%TF.GenerationSoftware,KiCad,Pcbnew,7.0.10*%
%TF.CreationDate,2024-02-04T10:39:00+08:00*%
%TF.ProjectId,42stepmotor,34327374-6570-46d6-9f74-6f722e6b6963,rev?*%
%TF.SameCoordinates,Original*%
%TF.FileFunction,Paste,Top*%
%TF.FilePolarity,Positive*%
%FSLAX46Y46*%
G04 Gerber Fmt 4.6, Leading zero omitted, Abs format (unit mm)*
G04 Created by KiCad (PCBNEW 7.0.10) date 2024-02-04 10:39:00*
%MOMM*%
%LPD*%
G01*
G04 APERTURE LIST*
G04 Aperture macros list*
%AMRoundRect*
0 Rectangle with rounded corners*
0 $1 Rounding radius*
0 $2 $3 $4 $5 $6 $7 $8 $9 X,Y pos of 4 corners*
0 Add a 4 corners polygon primitive as box body*
4,1,4,$2,$3,$4,$5,$6,$7,$8,$9,$2,$3,0*
0 Add four circle primitives for the rounded corners*
1,1,$1+$1,$2,$3*
1,1,$1+$1,$4,$5*
1,1,$1+$1,$6,$7*
1,1,$1+$1,$8,$9*
0 Add four rect primitives between the rounded corners*
20,1,$1+$1,$2,$3,$4,$5,0*
20,1,$1+$1,$4,$5,$6,$7,0*
20,1,$1+$1,$6,$7,$8,$9,0*
20,1,$1+$1,$8,$9,$2,$3,0*%
G04 Aperture macros list end*
%ADD10C,0.025400*%
%ADD11RoundRect,0.140000X0.140000X0.170000X-0.140000X0.170000X-0.140000X-0.170000X0.140000X-0.170000X0*%
%ADD12RoundRect,0.218750X-0.218750X-0.256250X0.218750X-0.256250X0.218750X0.256250X-0.218750X0.256250X0*%
%ADD13R,1.450000X0.600000*%
%ADD14R,1.450000X0.300000*%
%ADD15RoundRect,0.225000X-0.225000X-0.250000X0.225000X-0.250000X0.225000X0.250000X-0.225000X0.250000X0*%
%ADD16RoundRect,0.225000X-0.250000X0.225000X-0.250000X-0.225000X0.250000X-0.225000X0.250000X0.225000X0*%
%ADD17R,0.304800X0.711200*%
%ADD18R,0.711200X0.304800*%
%ADD19RoundRect,0.250000X0.475000X-0.250000X0.475000X0.250000X-0.475000X0.250000X-0.475000X-0.250000X0*%
%ADD20RoundRect,0.200000X-0.200000X-0.275000X0.200000X-0.275000X0.200000X0.275000X-0.200000X0.275000X0*%
%ADD21RoundRect,0.140000X0.170000X-0.140000X0.170000X0.140000X-0.170000X0.140000X-0.170000X-0.140000X0*%
%ADD22R,1.700000X0.900000*%
%ADD23RoundRect,0.200000X0.275000X-0.200000X0.275000X0.200000X-0.275000X0.200000X-0.275000X-0.200000X0*%
%ADD24RoundRect,0.145000X-0.145000X0.145000X-0.145000X-0.145000X0.145000X-0.145000X0.145000X0.145000X0*%
%ADD25RoundRect,0.062500X-0.062500X0.375000X-0.062500X-0.375000X0.062500X-0.375000X0.062500X0.375000X0*%
%ADD26RoundRect,0.062500X-0.375000X0.062500X-0.375000X-0.062500X0.375000X-0.062500X0.375000X0.062500X0*%
%ADD27RoundRect,0.135000X-0.135000X-0.185000X0.135000X-0.185000X0.135000X0.185000X-0.135000X0.185000X0*%
%ADD28RoundRect,0.150000X-0.150000X0.512500X-0.150000X-0.512500X0.150000X-0.512500X0.150000X0.512500X0*%
%ADD29R,3.700000X1.900000*%
%ADD30RoundRect,0.225000X0.225000X0.250000X-0.225000X0.250000X-0.225000X-0.250000X0.225000X-0.250000X0*%
%ADD31R,1.200000X2.000000*%
%ADD32RoundRect,0.250000X0.250000X0.475000X-0.250000X0.475000X-0.250000X-0.475000X0.250000X-0.475000X0*%
%ADD33RoundRect,0.250000X-0.475000X0.250000X-0.475000X-0.250000X0.475000X-0.250000X0.475000X0.250000X0*%
%ADD34RoundRect,0.140000X-0.140000X-0.170000X0.140000X-0.170000X0.140000X0.170000X-0.140000X0.170000X0*%
%ADD35RoundRect,0.250000X0.285000X-0.285000X0.285000X0.285000X-0.285000X0.285000X-0.285000X-0.285000X0*%
%ADD36RoundRect,0.062500X0.062500X-0.337500X0.062500X0.337500X-0.062500X0.337500X-0.062500X-0.337500X0*%
%ADD37RoundRect,0.062500X0.337500X-0.062500X0.337500X0.062500X-0.337500X0.062500X-0.337500X-0.062500X0*%
%ADD38RoundRect,0.200000X0.200000X0.275000X-0.200000X0.275000X-0.200000X-0.275000X0.200000X-0.275000X0*%
%ADD39RoundRect,0.147500X0.172500X-0.147500X0.172500X0.147500X-0.172500X0.147500X-0.172500X-0.147500X0*%
G04 APERTURE END LIST*
%TO.C,U5*%
D10*
X120550760Y-91900760D02*
X118896560Y-91900760D01*
X118896560Y-90246560D01*
X120550760Y-90246560D01*
X120550760Y-91900760D01*
G36*
X120550760Y-91900760D02*
G01*
X118896560Y-91900760D01*
X118896560Y-90246560D01*
X120550760Y-90246560D01*
X120550760Y-91900760D01*
G37*
X120550760Y-93754960D02*
X118896560Y-93754960D01*
X118896560Y-92100760D01*
X120550760Y-92100760D01*
X120550760Y-93754960D01*
G36*
X120550760Y-93754960D02*
G01*
X118896560Y-93754960D01*
X118896560Y-92100760D01*
X120550760Y-92100760D01*
X120550760Y-93754960D01*
G37*
X122404960Y-91900760D02*
X120750760Y-91900760D01*
X120750760Y-90246560D01*
X122404960Y-90246560D01*
X122404960Y-91900760D01*
G36*
X122404960Y-91900760D02*
G01*
X120750760Y-91900760D01*
X120750760Y-90246560D01*
X122404960Y-90246560D01*
X122404960Y-91900760D01*
G37*
X122404960Y-93754960D02*
X120750760Y-93754960D01*
X120750760Y-92100760D01*
X122404960Y-92100760D01*
X122404960Y-93754960D01*
G36*
X122404960Y-93754960D02*
G01*
X120750760Y-93754960D01*
X120750760Y-92100760D01*
X122404960Y-92100760D01*
X122404960Y-93754960D01*
G37*
%TD*%
D11*
%TO.C,C7*%
X107220000Y-107200000D03*
X108180000Y-107200000D03*
%TD*%
D12*
%TO.C,D2*%
X103012500Y-94325000D03*
X101437500Y-94325000D03*
%TD*%
D13*
%TO.C,J2*%
X102385000Y-107350000D03*
X102385000Y-108150000D03*
D14*
X102385000Y-109350000D03*
X102385000Y-110350000D03*
X102385000Y-110850000D03*
X102385000Y-111850000D03*
D13*
X102385000Y-113050000D03*
X102385000Y-113850000D03*
X102385000Y-113850000D03*
X102385000Y-113050000D03*
D14*
X102385000Y-112350000D03*
X102385000Y-111350000D03*
X102385000Y-109850000D03*
X102385000Y-108850000D03*
D13*
X102385000Y-108150000D03*
X102385000Y-107350000D03*
%TD*%
D15*
%TO.C,C9*%
X121923510Y-88098510D03*
X120373510Y-88098510D03*
%TD*%
D16*
%TO.C,C11*%
X125650000Y-91875000D03*
X125650000Y-90325000D03*
%TD*%
D17*
%TO.C,U5*%
X122151900Y-94500760D03*
X121651520Y-94500760D03*
X121151141Y-94500760D03*
X120650760Y-94500760D03*
X120150379Y-94500760D03*
X119650000Y-94500760D03*
X119149620Y-94500760D03*
D18*
X118150760Y-93501900D03*
X118150760Y-93001520D03*
X118150760Y-92501141D03*
X118150760Y-92000760D03*
X118150760Y-91500379D03*
X118150760Y-91000000D03*
X118150760Y-90499620D03*
D17*
X119149620Y-89500760D03*
X119650000Y-89500760D03*
X120150379Y-89500760D03*
X120650760Y-89500760D03*
X121151141Y-89500760D03*
X121651520Y-89500760D03*
X122151900Y-89500760D03*
D18*
X123150760Y-90499620D03*
X123150760Y-91000000D03*
X123150760Y-91500379D03*
X123150760Y-92000760D03*
X123150760Y-92501141D03*
X123150760Y-93001520D03*
X123150760Y-93501900D03*
%TD*%
D16*
%TO.C,C12*%
X125650000Y-95025000D03*
X125650000Y-93475000D03*
%TD*%
D11*
%TO.C,CANT_C2*%
X111210000Y-116470000D03*
X112170000Y-116470000D03*
%TD*%
D19*
%TO.C,C4*%
X105825000Y-98925000D03*
X105825000Y-100825000D03*
%TD*%
D20*
%TO.C,R2*%
X99375000Y-94325000D03*
X97725000Y-94325000D03*
%TD*%
D21*
%TO.C,C3*%
X105200000Y-112620000D03*
X105200000Y-113580000D03*
%TD*%
D15*
%TO.C,C2*%
X103000000Y-95925000D03*
X101450000Y-95925000D03*
%TD*%
D22*
%TO.C,SW1*%
X115000000Y-118900000D03*
X115000000Y-123300000D03*
%TD*%
D11*
%TO.C,ANT_C1*%
X111120000Y-119470000D03*
X112080000Y-119470000D03*
%TD*%
D23*
%TO.C,R11*%
X104625000Y-94300000D03*
X104625000Y-95950000D03*
%TD*%
D24*
%TO.C,U1*%
X106822500Y-109590000D03*
X106102500Y-109590000D03*
X106822500Y-110310000D03*
X106102500Y-110310000D03*
D25*
X107212500Y-108512500D03*
X106712500Y-108512500D03*
X106212500Y-108512500D03*
X105712500Y-108512500D03*
D26*
X105025000Y-109200000D03*
X105025000Y-109700000D03*
X105025000Y-110200000D03*
X105025000Y-110700000D03*
D25*
X105712500Y-111387500D03*
X106212500Y-111387500D03*
X106712500Y-111387500D03*
X107212500Y-111387500D03*
D26*
X107900000Y-110700000D03*
X107900000Y-110200000D03*
X107900000Y-109700000D03*
X107900000Y-109200000D03*
%TD*%
D27*
%TO.C,R4*%
X114210000Y-116500000D03*
X113190000Y-116500000D03*
%TD*%
D20*
%TO.C,R1*%
X103050000Y-97525000D03*
X101400000Y-97525000D03*
%TD*%
D28*
%TO.C,U4*%
X99675000Y-98412500D03*
X98725000Y-98412500D03*
X97775000Y-98412500D03*
X97775000Y-96137500D03*
X98725000Y-96137500D03*
X99675000Y-96137500D03*
%TD*%
D20*
%TO.C,R3*%
X99350000Y-100225000D03*
X97700000Y-100225000D03*
%TD*%
D29*
%TO.C,L1*%
X102425000Y-103875000D03*
X102425000Y-101175000D03*
%TD*%
D23*
%TO.C,R9*%
X115948510Y-91673510D03*
X115948510Y-93323510D03*
%TD*%
D30*
%TO.C,C13*%
X117273510Y-88098510D03*
X118823510Y-88098510D03*
%TD*%
D31*
%TO.C,E1*%
X110650000Y-122300000D03*
X105150000Y-122300000D03*
%TD*%
D30*
%TO.C,C1*%
X101450000Y-99125000D03*
X103000000Y-99125000D03*
%TD*%
D32*
%TO.C,C5*%
X97375000Y-102025000D03*
X99275000Y-102025000D03*
%TD*%
D33*
%TO.C,C8*%
X105825000Y-104325000D03*
X105825000Y-102425000D03*
%TD*%
D34*
%TO.C,C6*%
X116080000Y-116500000D03*
X115120000Y-116500000D03*
%TD*%
D35*
%TO.C,U3*%
X111460000Y-113300000D03*
X112780000Y-113300000D03*
X114100000Y-113300000D03*
X115420000Y-113300000D03*
X111460000Y-111980000D03*
X112780000Y-111980000D03*
X114100000Y-111980000D03*
X115420000Y-111980000D03*
X111460000Y-110660000D03*
X112780000Y-110660000D03*
X114100000Y-110660000D03*
X115420000Y-110660000D03*
X111460000Y-109340000D03*
X112780000Y-109340000D03*
X114100000Y-109340000D03*
X115420000Y-109340000D03*
D36*
X110690000Y-114770000D03*
X111190000Y-114770000D03*
X111690000Y-114770000D03*
X112190000Y-114770000D03*
X112690000Y-114770000D03*
X113190000Y-114770000D03*
X113690000Y-114770000D03*
X114190000Y-114770000D03*
X114690000Y-114770000D03*
X115190000Y-114770000D03*
X115690000Y-114770000D03*
X116190000Y-114770000D03*
D37*
X116890000Y-114070000D03*
X116890000Y-113570000D03*
X116890000Y-113070000D03*
X116890000Y-112570000D03*
X116890000Y-112070000D03*
X116890000Y-111570000D03*
X116890000Y-111070000D03*
X116890000Y-110570000D03*
X116890000Y-110070000D03*
X116890000Y-109570000D03*
X116890000Y-109070000D03*
X116890000Y-108570000D03*
D36*
X116190000Y-107870000D03*
X115690000Y-107870000D03*
X115190000Y-107870000D03*
X114690000Y-107870000D03*
X114190000Y-107870000D03*
X113690000Y-107870000D03*
X113190000Y-107870000D03*
X112690000Y-107870000D03*
X112190000Y-107870000D03*
X111690000Y-107870000D03*
X111190000Y-107870000D03*
X110690000Y-107870000D03*
D37*
X109990000Y-108570000D03*
X109990000Y-109070000D03*
X109990000Y-109570000D03*
X109990000Y-110070000D03*
X109990000Y-110570000D03*
X109990000Y-111070000D03*
X109990000Y-111570000D03*
X109990000Y-112070000D03*
X109990000Y-112570000D03*
X109990000Y-113070000D03*
X109990000Y-113570000D03*
X109990000Y-114070000D03*
%TD*%
D38*
%TO.C,R6*%
X110075000Y-106300000D03*
X111725000Y-106300000D03*
%TD*%
D39*
%TO.C,ANT_L1*%
X111200000Y-117485000D03*
X111200000Y-118455000D03*
%TD*%
M02*
