%TF.GenerationSoftware,KiCad,Pcbnew,7.0.10*%
%TF.CreationDate,2024-02-04T10:39:11+08:00*%
%TF.ProjectId,42stepmotor,34327374-6570-46d6-9f74-6f722e6b6963,rev?*%
%TF.SameCoordinates,Original*%
%TF.FileFunction,Drillmap*%
%TF.FilePolarity,Positive*%
%FSLAX45Y45*%
G04 Gerber Fmt 4.5, Leading zero omitted, Abs format (unit mm)*
G04 Created by KiCad (PCBNEW 7.0.10) date 2024-02-04 10:39:11*
%MOMM*%
%LPD*%
G01*
G04 APERTURE LIST*
%ADD10C,0.100000*%
%ADD11C,0.200000*%
%ADD12C,0.320000*%
G04 APERTURE END LIST*
D10*
X9600000Y-8500000D02*
X9600000Y-12400000D01*
X10000000Y-12400000D02*
X13500000Y-12400000D01*
X13500000Y-8500000D02*
X9600000Y-8500000D01*
X9600000Y-12400000D02*
X10000000Y-12400000D01*
X13500000Y-12400000D02*
X13500000Y-8500000D01*
D11*
D10*
X9725000Y-10325000D02*
X9755000Y-10355000D01*
X9755000Y-10325000D02*
X9725000Y-10355000D01*
X9755000Y-9305000D02*
X9785000Y-9335000D01*
X9785000Y-9305000D02*
X9755000Y-9335000D01*
X9817500Y-9707500D02*
X9847500Y-9737500D01*
X9847500Y-9707500D02*
X9817500Y-9737500D01*
X10125000Y-9305000D02*
X10155000Y-9335000D01*
X10155000Y-9305000D02*
X10125000Y-9335000D01*
X10344942Y-10945000D02*
X10374942Y-10975000D01*
X10374942Y-10945000D02*
X10344942Y-10975000D01*
X10355000Y-11365000D02*
X10385000Y-11395000D01*
X10385000Y-11365000D02*
X10355000Y-11395000D01*
X10370000Y-11065000D02*
X10400000Y-11095000D01*
X10400000Y-11065000D02*
X10370000Y-11095000D01*
X10389363Y-10878465D02*
X10419363Y-10908465D01*
X10419363Y-10878465D02*
X10389363Y-10908465D01*
X10435000Y-10515000D02*
X10465000Y-10545000D01*
X10465000Y-10515000D02*
X10435000Y-10545000D01*
X10452097Y-10807903D02*
X10482097Y-10837903D01*
X10482097Y-10807903D02*
X10452097Y-10837903D01*
X10485000Y-11155000D02*
X10515000Y-11185000D01*
X10515000Y-11155000D02*
X10485000Y-11185000D01*
X10503092Y-10746262D02*
X10533092Y-10776262D01*
X10533092Y-10746262D02*
X10503092Y-10776262D01*
X10505000Y-11425000D02*
X10535000Y-11455000D01*
X10535000Y-11425000D02*
X10505000Y-11455000D01*
X10565000Y-9775000D02*
X10595000Y-9805000D01*
X10595000Y-9775000D02*
X10565000Y-9805000D01*
X10595000Y-10975000D02*
X10625000Y-11005000D01*
X10625000Y-10975000D02*
X10595000Y-11005000D01*
X10605000Y-10735000D02*
X10635000Y-10765000D01*
X10635000Y-10735000D02*
X10605000Y-10765000D01*
X10655000Y-9975000D02*
X10685000Y-10005000D01*
X10685000Y-9975000D02*
X10655000Y-10005000D01*
X10665000Y-10975000D02*
X10695000Y-11005000D01*
X10695000Y-10975000D02*
X10665000Y-11005000D01*
X10712500Y-11245000D02*
X10742500Y-11275000D01*
X10742500Y-11245000D02*
X10712500Y-11275000D01*
X10792951Y-10779098D02*
X10822951Y-10809098D01*
X10822951Y-10779098D02*
X10792951Y-10809098D01*
X10885000Y-10955000D02*
X10915000Y-10985000D01*
X10915000Y-10955000D02*
X10885000Y-10985000D01*
X10885000Y-11035000D02*
X10915000Y-11065000D01*
X10915000Y-11035000D02*
X10885000Y-11065000D01*
X10885000Y-11145000D02*
X10915000Y-11175000D01*
X10915000Y-11145000D02*
X10885000Y-11175000D01*
X10885000Y-11295000D02*
X10915000Y-11325000D01*
X10915000Y-11295000D02*
X10885000Y-11325000D01*
X10965000Y-11465000D02*
X10995000Y-11495000D01*
X10995000Y-11465000D02*
X10965000Y-11495000D01*
X10975000Y-10775000D02*
X11005000Y-10805000D01*
X11005000Y-10775000D02*
X10975000Y-10805000D01*
X10989000Y-11887000D02*
X11019000Y-11917000D01*
X11019000Y-11887000D02*
X10989000Y-11917000D01*
X10991000Y-11697000D02*
X11021000Y-11727000D01*
X11021000Y-11697000D02*
X10991000Y-11727000D01*
X11011000Y-11545000D02*
X11041000Y-11575000D01*
X11041000Y-11545000D02*
X11011000Y-11575000D01*
X11115000Y-11105000D02*
X11145000Y-11135000D01*
X11145000Y-11105000D02*
X11115000Y-11135000D01*
X11202000Y-11715000D02*
X11232000Y-11745000D01*
X11232000Y-11715000D02*
X11202000Y-11745000D01*
X11205000Y-11845000D02*
X11235000Y-11875000D01*
X11235000Y-11845000D02*
X11205000Y-11875000D01*
X11245000Y-11555000D02*
X11275000Y-11585000D01*
X11275000Y-11555000D02*
X11245000Y-11585000D01*
X11255000Y-11105000D02*
X11285000Y-11135000D01*
X11285000Y-11105000D02*
X11255000Y-11135000D01*
X11300000Y-9206000D02*
X11330000Y-9236000D01*
X11330000Y-9206000D02*
X11300000Y-9236000D01*
X11395000Y-11105000D02*
X11425000Y-11135000D01*
X11425000Y-11105000D02*
X11395000Y-11135000D01*
X11435000Y-10215000D02*
X11465000Y-10245000D01*
X11465000Y-10215000D02*
X11435000Y-10245000D01*
X11485000Y-12185000D02*
X11515000Y-12215000D01*
X11515000Y-12185000D02*
X11485000Y-12215000D01*
X11495000Y-11795000D02*
X11525000Y-11825000D01*
X11525000Y-11795000D02*
X11495000Y-11825000D01*
X11525000Y-10295000D02*
X11555000Y-10325000D01*
X11555000Y-10295000D02*
X11525000Y-10325000D01*
X11535000Y-11105000D02*
X11565000Y-11135000D01*
X11565000Y-11105000D02*
X11535000Y-11135000D01*
X11550000Y-10370929D02*
X11580000Y-10400929D01*
X11580000Y-10370929D02*
X11550000Y-10400929D01*
X11592500Y-10445000D02*
X11622500Y-10475000D01*
X11622500Y-10445000D02*
X11592500Y-10475000D01*
X11595000Y-11725000D02*
X11625000Y-11755000D01*
X11625000Y-11725000D02*
X11595000Y-11755000D01*
X11612500Y-10222500D02*
X11642500Y-10252500D01*
X11642500Y-10222500D02*
X11612500Y-10252500D01*
X11689851Y-9234851D02*
X11719851Y-9264851D01*
X11719851Y-9234851D02*
X11689851Y-9264851D01*
X11700000Y-9062500D02*
X11730000Y-9092500D01*
X11730000Y-9062500D02*
X11700000Y-9092500D01*
X11785000Y-11095000D02*
X11815000Y-11125000D01*
X11815000Y-11095000D02*
X11785000Y-11125000D01*
X11795000Y-10895000D02*
X11825000Y-10925000D01*
X11825000Y-10895000D02*
X11795000Y-10925000D01*
X11802500Y-8940500D02*
X11832500Y-8970500D01*
X11832500Y-8940500D02*
X11802500Y-8970500D01*
X11915000Y-9530000D02*
X11945000Y-9560000D01*
X11945000Y-9530000D02*
X11915000Y-9560000D01*
X11935000Y-10325000D02*
X11965000Y-10355000D01*
X11965000Y-10325000D02*
X11935000Y-10355000D01*
X12000038Y-9670038D02*
X12030038Y-9700038D01*
X12030038Y-9670038D02*
X12000038Y-9700038D01*
X12165000Y-9530000D02*
X12195000Y-9560000D01*
X12195000Y-9530000D02*
X12165000Y-9560000D01*
X12300076Y-9455000D02*
X12330076Y-9485000D01*
X12330076Y-9455000D02*
X12300076Y-9485000D01*
X12410076Y-9247576D02*
X12440076Y-9277576D01*
X12440076Y-9247576D02*
X12410076Y-9277576D01*
X9785000Y-8900000D02*
G75*
G03*
X9735000Y-8900000I-25000J0D01*
G01*
X9735000Y-8900000D02*
G75*
G03*
X9785000Y-8900000I25000J0D01*
G01*
X9785000Y-12000000D02*
G75*
G03*
X9735000Y-12000000I-25000J0D01*
G01*
X9735000Y-12000000D02*
G75*
G03*
X9785000Y-12000000I25000J0D01*
G01*
X9855294Y-8730294D02*
G75*
G03*
X9805294Y-8730294I-25000J0D01*
G01*
X9805294Y-8730294D02*
G75*
G03*
X9855294Y-8730294I25000J0D01*
G01*
X9855294Y-9069706D02*
G75*
G03*
X9805294Y-9069706I-25000J0D01*
G01*
X9805294Y-9069706D02*
G75*
G03*
X9855294Y-9069706I25000J0D01*
G01*
X9855294Y-11830294D02*
G75*
G03*
X9805294Y-11830294I-25000J0D01*
G01*
X9805294Y-11830294D02*
G75*
G03*
X9855294Y-11830294I25000J0D01*
G01*
X9855294Y-12169706D02*
G75*
G03*
X9805294Y-12169706I-25000J0D01*
G01*
X9805294Y-12169706D02*
G75*
G03*
X9855294Y-12169706I25000J0D01*
G01*
X10025000Y-8660000D02*
G75*
G03*
X9975000Y-8660000I-25000J0D01*
G01*
X9975000Y-8660000D02*
G75*
G03*
X10025000Y-8660000I25000J0D01*
G01*
X10025000Y-9140000D02*
G75*
G03*
X9975000Y-9140000I-25000J0D01*
G01*
X9975000Y-9140000D02*
G75*
G03*
X10025000Y-9140000I25000J0D01*
G01*
X10025000Y-11760000D02*
G75*
G03*
X9975000Y-11760000I-25000J0D01*
G01*
X9975000Y-11760000D02*
G75*
G03*
X10025000Y-11760000I25000J0D01*
G01*
X10025000Y-12240000D02*
G75*
G03*
X9975000Y-12240000I-25000J0D01*
G01*
X9975000Y-12240000D02*
G75*
G03*
X10025000Y-12240000I25000J0D01*
G01*
X10194706Y-8730294D02*
G75*
G03*
X10144706Y-8730294I-25000J0D01*
G01*
X10144706Y-8730294D02*
G75*
G03*
X10194706Y-8730294I25000J0D01*
G01*
X10194706Y-9069706D02*
G75*
G03*
X10144706Y-9069706I-25000J0D01*
G01*
X10144706Y-9069706D02*
G75*
G03*
X10194706Y-9069706I25000J0D01*
G01*
X10194706Y-11830294D02*
G75*
G03*
X10144706Y-11830294I-25000J0D01*
G01*
X10144706Y-11830294D02*
G75*
G03*
X10194706Y-11830294I25000J0D01*
G01*
X10194706Y-12169706D02*
G75*
G03*
X10144706Y-12169706I-25000J0D01*
G01*
X10144706Y-12169706D02*
G75*
G03*
X10194706Y-12169706I25000J0D01*
G01*
X10265000Y-8900000D02*
G75*
G03*
X10215000Y-8900000I-25000J0D01*
G01*
X10215000Y-8900000D02*
G75*
G03*
X10265000Y-8900000I25000J0D01*
G01*
X10265000Y-12000000D02*
G75*
G03*
X10215000Y-12000000I-25000J0D01*
G01*
X10215000Y-12000000D02*
G75*
G03*
X10265000Y-12000000I25000J0D01*
G01*
X12885000Y-8900000D02*
G75*
G03*
X12835000Y-8900000I-25000J0D01*
G01*
X12835000Y-8900000D02*
G75*
G03*
X12885000Y-8900000I25000J0D01*
G01*
X12885000Y-12000000D02*
G75*
G03*
X12835000Y-12000000I-25000J0D01*
G01*
X12835000Y-12000000D02*
G75*
G03*
X12885000Y-12000000I25000J0D01*
G01*
X12955294Y-8730294D02*
G75*
G03*
X12905294Y-8730294I-25000J0D01*
G01*
X12905294Y-8730294D02*
G75*
G03*
X12955294Y-8730294I25000J0D01*
G01*
X12955294Y-9069706D02*
G75*
G03*
X12905294Y-9069706I-25000J0D01*
G01*
X12905294Y-9069706D02*
G75*
G03*
X12955294Y-9069706I25000J0D01*
G01*
X12955294Y-11830294D02*
G75*
G03*
X12905294Y-11830294I-25000J0D01*
G01*
X12905294Y-11830294D02*
G75*
G03*
X12955294Y-11830294I25000J0D01*
G01*
X12955294Y-12169706D02*
G75*
G03*
X12905294Y-12169706I-25000J0D01*
G01*
X12905294Y-12169706D02*
G75*
G03*
X12955294Y-12169706I25000J0D01*
G01*
X13125000Y-8660000D02*
G75*
G03*
X13075000Y-8660000I-25000J0D01*
G01*
X13075000Y-8660000D02*
G75*
G03*
X13125000Y-8660000I25000J0D01*
G01*
X13125000Y-9140000D02*
G75*
G03*
X13075000Y-9140000I-25000J0D01*
G01*
X13075000Y-9140000D02*
G75*
G03*
X13125000Y-9140000I25000J0D01*
G01*
X13125000Y-11760000D02*
G75*
G03*
X13075000Y-11760000I-25000J0D01*
G01*
X13075000Y-11760000D02*
G75*
G03*
X13125000Y-11760000I25000J0D01*
G01*
X13125000Y-12240000D02*
G75*
G03*
X13075000Y-12240000I-25000J0D01*
G01*
X13075000Y-12240000D02*
G75*
G03*
X13125000Y-12240000I25000J0D01*
G01*
X13294706Y-8730294D02*
G75*
G03*
X13244706Y-8730294I-25000J0D01*
G01*
X13244706Y-8730294D02*
G75*
G03*
X13294706Y-8730294I25000J0D01*
G01*
X13294706Y-9069706D02*
G75*
G03*
X13244706Y-9069706I-25000J0D01*
G01*
X13244706Y-9069706D02*
G75*
G03*
X13294706Y-9069706I25000J0D01*
G01*
X13294706Y-11830294D02*
G75*
G03*
X13244706Y-11830294I-25000J0D01*
G01*
X13244706Y-11830294D02*
G75*
G03*
X13294706Y-11830294I25000J0D01*
G01*
X13294706Y-12169706D02*
G75*
G03*
X13244706Y-12169706I-25000J0D01*
G01*
X13244706Y-12169706D02*
G75*
G03*
X13294706Y-12169706I25000J0D01*
G01*
X13365000Y-8900000D02*
G75*
G03*
X13315000Y-8900000I-25000J0D01*
G01*
X13315000Y-8900000D02*
G75*
G03*
X13365000Y-8900000I25000J0D01*
G01*
X13365000Y-12000000D02*
G75*
G03*
X13315000Y-12000000I-25000J0D01*
G01*
X13315000Y-12000000D02*
G75*
G03*
X13365000Y-12000000I25000J0D01*
G01*
X9729000Y-10598000D02*
X9729000Y-10658000D01*
X9699000Y-10628000D02*
X9759000Y-10628000D01*
X9759000Y-10598000D02*
X9699000Y-10598000D01*
X9699000Y-10598000D02*
G75*
G03*
X9699000Y-10658000I0J-30000D01*
G01*
X9699000Y-10658000D02*
X9759000Y-10658000D01*
X9759000Y-10658000D02*
G75*
G03*
X9759000Y-10598000I0J30000D01*
G01*
X9729000Y-11462000D02*
X9729000Y-11522000D01*
X9699000Y-11492000D02*
X9759000Y-11492000D01*
X9759000Y-11462000D02*
X9699000Y-11462000D01*
X9699000Y-11462000D02*
G75*
G03*
X9699000Y-11522000I0J-30000D01*
G01*
X9699000Y-11522000D02*
X9759000Y-11522000D01*
X9759000Y-11522000D02*
G75*
G03*
X9759000Y-11462000I0J30000D01*
G01*
X10147000Y-10598000D02*
X10147000Y-10658000D01*
X10117000Y-10628000D02*
X10177000Y-10628000D01*
X10202000Y-10598000D02*
X10092000Y-10598000D01*
X10092000Y-10598000D02*
G75*
G03*
X10092000Y-10658000I0J-30000D01*
G01*
X10092000Y-10658000D02*
X10202000Y-10658000D01*
X10202000Y-10658000D02*
G75*
G03*
X10202000Y-10598000I0J30000D01*
G01*
X10147000Y-11462000D02*
X10147000Y-11522000D01*
X10117000Y-11492000D02*
X10177000Y-11492000D01*
X10202000Y-11462000D02*
X10092000Y-11462000D01*
X10092000Y-11462000D02*
G75*
G03*
X10092000Y-11522000I0J-30000D01*
G01*
X10092000Y-11522000D02*
X10202000Y-11522000D01*
X10202000Y-11522000D02*
G75*
G03*
X10202000Y-11462000I0J30000D01*
G01*
X12773588Y-10103588D02*
X12773588Y-10036412D01*
X12706412Y-10036412D01*
X12706412Y-10103588D01*
X12773588Y-10103588D01*
X12773588Y-10353588D02*
X12773588Y-10286412D01*
X12706412Y-10286412D01*
X12706412Y-10353588D01*
X12773588Y-10353588D01*
X12773588Y-10603588D02*
X12773588Y-10536412D01*
X12706412Y-10536412D01*
X12706412Y-10603588D01*
X12773588Y-10603588D01*
X12773588Y-10853588D02*
X12773588Y-10786412D01*
X12706412Y-10786412D01*
X12706412Y-10853588D01*
X12773588Y-10853588D01*
X10865000Y-9325000D02*
X10915000Y-9275000D01*
X10865000Y-9225000D01*
X10815000Y-9275000D01*
X10865000Y-9325000D01*
X11115000Y-9325000D02*
X11165000Y-9275000D01*
X11115000Y-9225000D01*
X11065000Y-9275000D01*
X11115000Y-9325000D01*
D12*
X9840000Y-8740000D02*
X10160000Y-9060000D01*
X10160000Y-8740000D02*
X9840000Y-9060000D01*
X10160000Y-8900000D02*
G75*
G03*
X9840000Y-8900000I-160000J0D01*
G01*
X9840000Y-8900000D02*
G75*
G03*
X10160000Y-8900000I160000J0D01*
G01*
X9840000Y-11840000D02*
X10160000Y-12160000D01*
X10160000Y-11840000D02*
X9840000Y-12160000D01*
X10160000Y-12000000D02*
G75*
G03*
X9840000Y-12000000I-160000J0D01*
G01*
X9840000Y-12000000D02*
G75*
G03*
X10160000Y-12000000I160000J0D01*
G01*
X12940000Y-8740000D02*
X13260000Y-9060000D01*
X13260000Y-8740000D02*
X12940000Y-9060000D01*
X13260000Y-8900000D02*
G75*
G03*
X12940000Y-8900000I-160000J0D01*
G01*
X12940000Y-8900000D02*
G75*
G03*
X13260000Y-8900000I160000J0D01*
G01*
X12940000Y-11840000D02*
X13260000Y-12160000D01*
X13260000Y-11840000D02*
X12940000Y-12160000D01*
X13260000Y-12000000D02*
G75*
G03*
X12940000Y-12000000I-160000J0D01*
G01*
X12940000Y-12000000D02*
G75*
G03*
X13260000Y-12000000I160000J0D01*
G01*
D11*
X9855777Y-12716484D02*
X9855777Y-12516484D01*
X9855777Y-12516484D02*
X9903396Y-12516484D01*
X9903396Y-12516484D02*
X9931967Y-12526008D01*
X9931967Y-12526008D02*
X9951015Y-12545055D01*
X9951015Y-12545055D02*
X9960539Y-12564103D01*
X9960539Y-12564103D02*
X9970063Y-12602198D01*
X9970063Y-12602198D02*
X9970063Y-12630769D01*
X9970063Y-12630769D02*
X9960539Y-12668865D01*
X9960539Y-12668865D02*
X9951015Y-12687912D01*
X9951015Y-12687912D02*
X9931967Y-12706960D01*
X9931967Y-12706960D02*
X9903396Y-12716484D01*
X9903396Y-12716484D02*
X9855777Y-12716484D01*
X10055777Y-12716484D02*
X10055777Y-12583150D01*
X10055777Y-12621246D02*
X10065301Y-12602198D01*
X10065301Y-12602198D02*
X10074824Y-12592674D01*
X10074824Y-12592674D02*
X10093872Y-12583150D01*
X10093872Y-12583150D02*
X10112920Y-12583150D01*
X10179586Y-12716484D02*
X10179586Y-12583150D01*
X10179586Y-12516484D02*
X10170063Y-12526008D01*
X10170063Y-12526008D02*
X10179586Y-12535531D01*
X10179586Y-12535531D02*
X10189110Y-12526008D01*
X10189110Y-12526008D02*
X10179586Y-12516484D01*
X10179586Y-12516484D02*
X10179586Y-12535531D01*
X10303396Y-12716484D02*
X10284348Y-12706960D01*
X10284348Y-12706960D02*
X10274824Y-12687912D01*
X10274824Y-12687912D02*
X10274824Y-12516484D01*
X10408158Y-12716484D02*
X10389110Y-12706960D01*
X10389110Y-12706960D02*
X10379586Y-12687912D01*
X10379586Y-12687912D02*
X10379586Y-12516484D01*
X10636729Y-12716484D02*
X10636729Y-12516484D01*
X10636729Y-12516484D02*
X10703396Y-12659341D01*
X10703396Y-12659341D02*
X10770063Y-12516484D01*
X10770063Y-12516484D02*
X10770063Y-12716484D01*
X10951015Y-12716484D02*
X10951015Y-12611722D01*
X10951015Y-12611722D02*
X10941491Y-12592674D01*
X10941491Y-12592674D02*
X10922444Y-12583150D01*
X10922444Y-12583150D02*
X10884348Y-12583150D01*
X10884348Y-12583150D02*
X10865301Y-12592674D01*
X10951015Y-12706960D02*
X10931967Y-12716484D01*
X10931967Y-12716484D02*
X10884348Y-12716484D01*
X10884348Y-12716484D02*
X10865301Y-12706960D01*
X10865301Y-12706960D02*
X10855777Y-12687912D01*
X10855777Y-12687912D02*
X10855777Y-12668865D01*
X10855777Y-12668865D02*
X10865301Y-12649817D01*
X10865301Y-12649817D02*
X10884348Y-12640293D01*
X10884348Y-12640293D02*
X10931967Y-12640293D01*
X10931967Y-12640293D02*
X10951015Y-12630769D01*
X11046253Y-12583150D02*
X11046253Y-12783150D01*
X11046253Y-12592674D02*
X11065301Y-12583150D01*
X11065301Y-12583150D02*
X11103396Y-12583150D01*
X11103396Y-12583150D02*
X11122444Y-12592674D01*
X11122444Y-12592674D02*
X11131967Y-12602198D01*
X11131967Y-12602198D02*
X11141491Y-12621246D01*
X11141491Y-12621246D02*
X11141491Y-12678388D01*
X11141491Y-12678388D02*
X11131967Y-12697436D01*
X11131967Y-12697436D02*
X11122444Y-12706960D01*
X11122444Y-12706960D02*
X11103396Y-12716484D01*
X11103396Y-12716484D02*
X11065301Y-12716484D01*
X11065301Y-12716484D02*
X11046253Y-12706960D01*
X11227205Y-12697436D02*
X11236729Y-12706960D01*
X11236729Y-12706960D02*
X11227205Y-12716484D01*
X11227205Y-12716484D02*
X11217682Y-12706960D01*
X11217682Y-12706960D02*
X11227205Y-12697436D01*
X11227205Y-12697436D02*
X11227205Y-12716484D01*
X11227205Y-12592674D02*
X11236729Y-12602198D01*
X11236729Y-12602198D02*
X11227205Y-12611722D01*
X11227205Y-12611722D02*
X11217682Y-12602198D01*
X11217682Y-12602198D02*
X11227205Y-12592674D01*
X11227205Y-12592674D02*
X11227205Y-12611722D01*
D10*
X9565000Y-13030000D02*
X9595000Y-13060000D01*
X9595000Y-13030000D02*
X9565000Y-13060000D01*
D11*
X9893872Y-12936484D02*
X9912920Y-12936484D01*
X9912920Y-12936484D02*
X9931967Y-12946008D01*
X9931967Y-12946008D02*
X9941491Y-12955531D01*
X9941491Y-12955531D02*
X9951015Y-12974579D01*
X9951015Y-12974579D02*
X9960539Y-13012674D01*
X9960539Y-13012674D02*
X9960539Y-13060293D01*
X9960539Y-13060293D02*
X9951015Y-13098388D01*
X9951015Y-13098388D02*
X9941491Y-13117436D01*
X9941491Y-13117436D02*
X9931967Y-13126960D01*
X9931967Y-13126960D02*
X9912920Y-13136484D01*
X9912920Y-13136484D02*
X9893872Y-13136484D01*
X9893872Y-13136484D02*
X9874824Y-13126960D01*
X9874824Y-13126960D02*
X9865301Y-13117436D01*
X9865301Y-13117436D02*
X9855777Y-13098388D01*
X9855777Y-13098388D02*
X9846253Y-13060293D01*
X9846253Y-13060293D02*
X9846253Y-13012674D01*
X9846253Y-13012674D02*
X9855777Y-12974579D01*
X9855777Y-12974579D02*
X9865301Y-12955531D01*
X9865301Y-12955531D02*
X9874824Y-12946008D01*
X9874824Y-12946008D02*
X9893872Y-12936484D01*
X10046253Y-13117436D02*
X10055777Y-13126960D01*
X10055777Y-13126960D02*
X10046253Y-13136484D01*
X10046253Y-13136484D02*
X10036729Y-13126960D01*
X10036729Y-13126960D02*
X10046253Y-13117436D01*
X10046253Y-13117436D02*
X10046253Y-13136484D01*
X10122444Y-12936484D02*
X10246253Y-12936484D01*
X10246253Y-12936484D02*
X10179586Y-13012674D01*
X10179586Y-13012674D02*
X10208158Y-13012674D01*
X10208158Y-13012674D02*
X10227205Y-13022198D01*
X10227205Y-13022198D02*
X10236729Y-13031722D01*
X10236729Y-13031722D02*
X10246253Y-13050769D01*
X10246253Y-13050769D02*
X10246253Y-13098388D01*
X10246253Y-13098388D02*
X10236729Y-13117436D01*
X10236729Y-13117436D02*
X10227205Y-13126960D01*
X10227205Y-13126960D02*
X10208158Y-13136484D01*
X10208158Y-13136484D02*
X10151015Y-13136484D01*
X10151015Y-13136484D02*
X10131967Y-13126960D01*
X10131967Y-13126960D02*
X10122444Y-13117436D01*
X10370063Y-12936484D02*
X10389110Y-12936484D01*
X10389110Y-12936484D02*
X10408158Y-12946008D01*
X10408158Y-12946008D02*
X10417682Y-12955531D01*
X10417682Y-12955531D02*
X10427205Y-12974579D01*
X10427205Y-12974579D02*
X10436729Y-13012674D01*
X10436729Y-13012674D02*
X10436729Y-13060293D01*
X10436729Y-13060293D02*
X10427205Y-13098388D01*
X10427205Y-13098388D02*
X10417682Y-13117436D01*
X10417682Y-13117436D02*
X10408158Y-13126960D01*
X10408158Y-13126960D02*
X10389110Y-13136484D01*
X10389110Y-13136484D02*
X10370063Y-13136484D01*
X10370063Y-13136484D02*
X10351015Y-13126960D01*
X10351015Y-13126960D02*
X10341491Y-13117436D01*
X10341491Y-13117436D02*
X10331967Y-13098388D01*
X10331967Y-13098388D02*
X10322444Y-13060293D01*
X10322444Y-13060293D02*
X10322444Y-13012674D01*
X10322444Y-13012674D02*
X10331967Y-12974579D01*
X10331967Y-12974579D02*
X10341491Y-12955531D01*
X10341491Y-12955531D02*
X10351015Y-12946008D01*
X10351015Y-12946008D02*
X10370063Y-12936484D01*
X10560539Y-12936484D02*
X10579586Y-12936484D01*
X10579586Y-12936484D02*
X10598634Y-12946008D01*
X10598634Y-12946008D02*
X10608158Y-12955531D01*
X10608158Y-12955531D02*
X10617682Y-12974579D01*
X10617682Y-12974579D02*
X10627205Y-13012674D01*
X10627205Y-13012674D02*
X10627205Y-13060293D01*
X10627205Y-13060293D02*
X10617682Y-13098388D01*
X10617682Y-13098388D02*
X10608158Y-13117436D01*
X10608158Y-13117436D02*
X10598634Y-13126960D01*
X10598634Y-13126960D02*
X10579586Y-13136484D01*
X10579586Y-13136484D02*
X10560539Y-13136484D01*
X10560539Y-13136484D02*
X10541491Y-13126960D01*
X10541491Y-13126960D02*
X10531967Y-13117436D01*
X10531967Y-13117436D02*
X10522444Y-13098388D01*
X10522444Y-13098388D02*
X10512920Y-13060293D01*
X10512920Y-13060293D02*
X10512920Y-13012674D01*
X10512920Y-13012674D02*
X10522444Y-12974579D01*
X10522444Y-12974579D02*
X10531967Y-12955531D01*
X10531967Y-12955531D02*
X10541491Y-12946008D01*
X10541491Y-12946008D02*
X10560539Y-12936484D01*
X10712920Y-13136484D02*
X10712920Y-13003150D01*
X10712920Y-13022198D02*
X10722444Y-13012674D01*
X10722444Y-13012674D02*
X10741491Y-13003150D01*
X10741491Y-13003150D02*
X10770063Y-13003150D01*
X10770063Y-13003150D02*
X10789110Y-13012674D01*
X10789110Y-13012674D02*
X10798634Y-13031722D01*
X10798634Y-13031722D02*
X10798634Y-13136484D01*
X10798634Y-13031722D02*
X10808158Y-13012674D01*
X10808158Y-13012674D02*
X10827205Y-13003150D01*
X10827205Y-13003150D02*
X10855777Y-13003150D01*
X10855777Y-13003150D02*
X10874825Y-13012674D01*
X10874825Y-13012674D02*
X10884348Y-13031722D01*
X10884348Y-13031722D02*
X10884348Y-13136484D01*
X10979586Y-13136484D02*
X10979586Y-13003150D01*
X10979586Y-13022198D02*
X10989110Y-13012674D01*
X10989110Y-13012674D02*
X11008158Y-13003150D01*
X11008158Y-13003150D02*
X11036729Y-13003150D01*
X11036729Y-13003150D02*
X11055777Y-13012674D01*
X11055777Y-13012674D02*
X11065301Y-13031722D01*
X11065301Y-13031722D02*
X11065301Y-13136484D01*
X11065301Y-13031722D02*
X11074825Y-13012674D01*
X11074825Y-13012674D02*
X11093872Y-13003150D01*
X11093872Y-13003150D02*
X11122444Y-13003150D01*
X11122444Y-13003150D02*
X11141491Y-13012674D01*
X11141491Y-13012674D02*
X11151015Y-13031722D01*
X11151015Y-13031722D02*
X11151015Y-13136484D01*
X11541491Y-12926960D02*
X11370063Y-13184103D01*
X11798634Y-12936484D02*
X11817682Y-12936484D01*
X11817682Y-12936484D02*
X11836729Y-12946008D01*
X11836729Y-12946008D02*
X11846253Y-12955531D01*
X11846253Y-12955531D02*
X11855777Y-12974579D01*
X11855777Y-12974579D02*
X11865301Y-13012674D01*
X11865301Y-13012674D02*
X11865301Y-13060293D01*
X11865301Y-13060293D02*
X11855777Y-13098388D01*
X11855777Y-13098388D02*
X11846253Y-13117436D01*
X11846253Y-13117436D02*
X11836729Y-13126960D01*
X11836729Y-13126960D02*
X11817682Y-13136484D01*
X11817682Y-13136484D02*
X11798634Y-13136484D01*
X11798634Y-13136484D02*
X11779586Y-13126960D01*
X11779586Y-13126960D02*
X11770063Y-13117436D01*
X11770063Y-13117436D02*
X11760539Y-13098388D01*
X11760539Y-13098388D02*
X11751015Y-13060293D01*
X11751015Y-13060293D02*
X11751015Y-13012674D01*
X11751015Y-13012674D02*
X11760539Y-12974579D01*
X11760539Y-12974579D02*
X11770063Y-12955531D01*
X11770063Y-12955531D02*
X11779586Y-12946008D01*
X11779586Y-12946008D02*
X11798634Y-12936484D01*
X11951015Y-13117436D02*
X11960539Y-13126960D01*
X11960539Y-13126960D02*
X11951015Y-13136484D01*
X11951015Y-13136484D02*
X11941491Y-13126960D01*
X11941491Y-13126960D02*
X11951015Y-13117436D01*
X11951015Y-13117436D02*
X11951015Y-13136484D01*
X12084348Y-12936484D02*
X12103396Y-12936484D01*
X12103396Y-12936484D02*
X12122444Y-12946008D01*
X12122444Y-12946008D02*
X12131967Y-12955531D01*
X12131967Y-12955531D02*
X12141491Y-12974579D01*
X12141491Y-12974579D02*
X12151015Y-13012674D01*
X12151015Y-13012674D02*
X12151015Y-13060293D01*
X12151015Y-13060293D02*
X12141491Y-13098388D01*
X12141491Y-13098388D02*
X12131967Y-13117436D01*
X12131967Y-13117436D02*
X12122444Y-13126960D01*
X12122444Y-13126960D02*
X12103396Y-13136484D01*
X12103396Y-13136484D02*
X12084348Y-13136484D01*
X12084348Y-13136484D02*
X12065301Y-13126960D01*
X12065301Y-13126960D02*
X12055777Y-13117436D01*
X12055777Y-13117436D02*
X12046253Y-13098388D01*
X12046253Y-13098388D02*
X12036729Y-13060293D01*
X12036729Y-13060293D02*
X12036729Y-13012674D01*
X12036729Y-13012674D02*
X12046253Y-12974579D01*
X12046253Y-12974579D02*
X12055777Y-12955531D01*
X12055777Y-12955531D02*
X12065301Y-12946008D01*
X12065301Y-12946008D02*
X12084348Y-12936484D01*
X12341491Y-13136484D02*
X12227206Y-13136484D01*
X12284348Y-13136484D02*
X12284348Y-12936484D01*
X12284348Y-12936484D02*
X12265301Y-12965055D01*
X12265301Y-12965055D02*
X12246253Y-12984103D01*
X12246253Y-12984103D02*
X12227206Y-12993627D01*
X12531967Y-13136484D02*
X12417682Y-13136484D01*
X12474825Y-13136484D02*
X12474825Y-12936484D01*
X12474825Y-12936484D02*
X12455777Y-12965055D01*
X12455777Y-12965055D02*
X12436729Y-12984103D01*
X12436729Y-12984103D02*
X12417682Y-12993627D01*
X12646253Y-13022198D02*
X12627206Y-13012674D01*
X12627206Y-13012674D02*
X12617682Y-13003150D01*
X12617682Y-13003150D02*
X12608158Y-12984103D01*
X12608158Y-12984103D02*
X12608158Y-12974579D01*
X12608158Y-12974579D02*
X12617682Y-12955531D01*
X12617682Y-12955531D02*
X12627206Y-12946008D01*
X12627206Y-12946008D02*
X12646253Y-12936484D01*
X12646253Y-12936484D02*
X12684348Y-12936484D01*
X12684348Y-12936484D02*
X12703396Y-12946008D01*
X12703396Y-12946008D02*
X12712920Y-12955531D01*
X12712920Y-12955531D02*
X12722444Y-12974579D01*
X12722444Y-12974579D02*
X12722444Y-12984103D01*
X12722444Y-12984103D02*
X12712920Y-13003150D01*
X12712920Y-13003150D02*
X12703396Y-13012674D01*
X12703396Y-13012674D02*
X12684348Y-13022198D01*
X12684348Y-13022198D02*
X12646253Y-13022198D01*
X12646253Y-13022198D02*
X12627206Y-13031722D01*
X12627206Y-13031722D02*
X12617682Y-13041246D01*
X12617682Y-13041246D02*
X12608158Y-13060293D01*
X12608158Y-13060293D02*
X12608158Y-13098388D01*
X12608158Y-13098388D02*
X12617682Y-13117436D01*
X12617682Y-13117436D02*
X12627206Y-13126960D01*
X12627206Y-13126960D02*
X12646253Y-13136484D01*
X12646253Y-13136484D02*
X12684348Y-13136484D01*
X12684348Y-13136484D02*
X12703396Y-13126960D01*
X12703396Y-13126960D02*
X12712920Y-13117436D01*
X12712920Y-13117436D02*
X12722444Y-13098388D01*
X12722444Y-13098388D02*
X12722444Y-13060293D01*
X12722444Y-13060293D02*
X12712920Y-13041246D01*
X12712920Y-13041246D02*
X12703396Y-13031722D01*
X12703396Y-13031722D02*
X12684348Y-13022198D01*
X12798634Y-12936484D02*
X12798634Y-12974579D01*
X12874825Y-12936484D02*
X12874825Y-12974579D01*
X13170063Y-13212674D02*
X13160539Y-13203150D01*
X13160539Y-13203150D02*
X13141491Y-13174579D01*
X13141491Y-13174579D02*
X13131968Y-13155531D01*
X13131968Y-13155531D02*
X13122444Y-13126960D01*
X13122444Y-13126960D02*
X13112920Y-13079341D01*
X13112920Y-13079341D02*
X13112920Y-13041246D01*
X13112920Y-13041246D02*
X13122444Y-12993627D01*
X13122444Y-12993627D02*
X13131968Y-12965055D01*
X13131968Y-12965055D02*
X13141491Y-12946008D01*
X13141491Y-12946008D02*
X13160539Y-12917436D01*
X13160539Y-12917436D02*
X13170063Y-12907912D01*
X13341491Y-12936484D02*
X13246253Y-12936484D01*
X13246253Y-12936484D02*
X13236729Y-13031722D01*
X13236729Y-13031722D02*
X13246253Y-13022198D01*
X13246253Y-13022198D02*
X13265301Y-13012674D01*
X13265301Y-13012674D02*
X13312920Y-13012674D01*
X13312920Y-13012674D02*
X13331968Y-13022198D01*
X13331968Y-13022198D02*
X13341491Y-13031722D01*
X13341491Y-13031722D02*
X13351015Y-13050769D01*
X13351015Y-13050769D02*
X13351015Y-13098388D01*
X13351015Y-13098388D02*
X13341491Y-13117436D01*
X13341491Y-13117436D02*
X13331968Y-13126960D01*
X13331968Y-13126960D02*
X13312920Y-13136484D01*
X13312920Y-13136484D02*
X13265301Y-13136484D01*
X13265301Y-13136484D02*
X13246253Y-13126960D01*
X13246253Y-13126960D02*
X13236729Y-13117436D01*
X13522444Y-12936484D02*
X13484348Y-12936484D01*
X13484348Y-12936484D02*
X13465301Y-12946008D01*
X13465301Y-12946008D02*
X13455777Y-12955531D01*
X13455777Y-12955531D02*
X13436729Y-12984103D01*
X13436729Y-12984103D02*
X13427206Y-13022198D01*
X13427206Y-13022198D02*
X13427206Y-13098388D01*
X13427206Y-13098388D02*
X13436729Y-13117436D01*
X13436729Y-13117436D02*
X13446253Y-13126960D01*
X13446253Y-13126960D02*
X13465301Y-13136484D01*
X13465301Y-13136484D02*
X13503396Y-13136484D01*
X13503396Y-13136484D02*
X13522444Y-13126960D01*
X13522444Y-13126960D02*
X13531968Y-13117436D01*
X13531968Y-13117436D02*
X13541491Y-13098388D01*
X13541491Y-13098388D02*
X13541491Y-13050769D01*
X13541491Y-13050769D02*
X13531968Y-13031722D01*
X13531968Y-13031722D02*
X13522444Y-13022198D01*
X13522444Y-13022198D02*
X13503396Y-13012674D01*
X13503396Y-13012674D02*
X13465301Y-13012674D01*
X13465301Y-13012674D02*
X13446253Y-13022198D01*
X13446253Y-13022198D02*
X13436729Y-13031722D01*
X13436729Y-13031722D02*
X13427206Y-13050769D01*
X13779587Y-13136484D02*
X13779587Y-12936484D01*
X13865301Y-13136484D02*
X13865301Y-13031722D01*
X13865301Y-13031722D02*
X13855777Y-13012674D01*
X13855777Y-13012674D02*
X13836730Y-13003150D01*
X13836730Y-13003150D02*
X13808158Y-13003150D01*
X13808158Y-13003150D02*
X13789110Y-13012674D01*
X13789110Y-13012674D02*
X13779587Y-13022198D01*
X13989110Y-13136484D02*
X13970063Y-13126960D01*
X13970063Y-13126960D02*
X13960539Y-13117436D01*
X13960539Y-13117436D02*
X13951015Y-13098388D01*
X13951015Y-13098388D02*
X13951015Y-13041246D01*
X13951015Y-13041246D02*
X13960539Y-13022198D01*
X13960539Y-13022198D02*
X13970063Y-13012674D01*
X13970063Y-13012674D02*
X13989110Y-13003150D01*
X13989110Y-13003150D02*
X14017682Y-13003150D01*
X14017682Y-13003150D02*
X14036730Y-13012674D01*
X14036730Y-13012674D02*
X14046253Y-13022198D01*
X14046253Y-13022198D02*
X14055777Y-13041246D01*
X14055777Y-13041246D02*
X14055777Y-13098388D01*
X14055777Y-13098388D02*
X14046253Y-13117436D01*
X14046253Y-13117436D02*
X14036730Y-13126960D01*
X14036730Y-13126960D02*
X14017682Y-13136484D01*
X14017682Y-13136484D02*
X13989110Y-13136484D01*
X14170063Y-13136484D02*
X14151015Y-13126960D01*
X14151015Y-13126960D02*
X14141491Y-13107912D01*
X14141491Y-13107912D02*
X14141491Y-12936484D01*
X14322444Y-13126960D02*
X14303396Y-13136484D01*
X14303396Y-13136484D02*
X14265301Y-13136484D01*
X14265301Y-13136484D02*
X14246253Y-13126960D01*
X14246253Y-13126960D02*
X14236730Y-13107912D01*
X14236730Y-13107912D02*
X14236730Y-13031722D01*
X14236730Y-13031722D02*
X14246253Y-13012674D01*
X14246253Y-13012674D02*
X14265301Y-13003150D01*
X14265301Y-13003150D02*
X14303396Y-13003150D01*
X14303396Y-13003150D02*
X14322444Y-13012674D01*
X14322444Y-13012674D02*
X14331968Y-13031722D01*
X14331968Y-13031722D02*
X14331968Y-13050769D01*
X14331968Y-13050769D02*
X14236730Y-13069817D01*
X14408158Y-13126960D02*
X14427206Y-13136484D01*
X14427206Y-13136484D02*
X14465301Y-13136484D01*
X14465301Y-13136484D02*
X14484349Y-13126960D01*
X14484349Y-13126960D02*
X14493872Y-13107912D01*
X14493872Y-13107912D02*
X14493872Y-13098388D01*
X14493872Y-13098388D02*
X14484349Y-13079341D01*
X14484349Y-13079341D02*
X14465301Y-13069817D01*
X14465301Y-13069817D02*
X14436730Y-13069817D01*
X14436730Y-13069817D02*
X14417682Y-13060293D01*
X14417682Y-13060293D02*
X14408158Y-13041246D01*
X14408158Y-13041246D02*
X14408158Y-13031722D01*
X14408158Y-13031722D02*
X14417682Y-13012674D01*
X14417682Y-13012674D02*
X14436730Y-13003150D01*
X14436730Y-13003150D02*
X14465301Y-13003150D01*
X14465301Y-13003150D02*
X14484349Y-13012674D01*
X14560539Y-13212674D02*
X14570063Y-13203150D01*
X14570063Y-13203150D02*
X14589111Y-13174579D01*
X14589111Y-13174579D02*
X14598634Y-13155531D01*
X14598634Y-13155531D02*
X14608158Y-13126960D01*
X14608158Y-13126960D02*
X14617682Y-13079341D01*
X14617682Y-13079341D02*
X14617682Y-13041246D01*
X14617682Y-13041246D02*
X14608158Y-12993627D01*
X14608158Y-12993627D02*
X14598634Y-12965055D01*
X14598634Y-12965055D02*
X14589111Y-12946008D01*
X14589111Y-12946008D02*
X14570063Y-12917436D01*
X14570063Y-12917436D02*
X14560539Y-12907912D01*
D10*
X9595000Y-13309000D02*
G75*
G03*
X9545000Y-13309000I-25000J0D01*
G01*
X9545000Y-13309000D02*
G75*
G03*
X9595000Y-13309000I25000J0D01*
G01*
D11*
X9893872Y-13200484D02*
X9912920Y-13200484D01*
X9912920Y-13200484D02*
X9931967Y-13210008D01*
X9931967Y-13210008D02*
X9941491Y-13219531D01*
X9941491Y-13219531D02*
X9951015Y-13238579D01*
X9951015Y-13238579D02*
X9960539Y-13276674D01*
X9960539Y-13276674D02*
X9960539Y-13324293D01*
X9960539Y-13324293D02*
X9951015Y-13362388D01*
X9951015Y-13362388D02*
X9941491Y-13381436D01*
X9941491Y-13381436D02*
X9931967Y-13390960D01*
X9931967Y-13390960D02*
X9912920Y-13400484D01*
X9912920Y-13400484D02*
X9893872Y-13400484D01*
X9893872Y-13400484D02*
X9874824Y-13390960D01*
X9874824Y-13390960D02*
X9865301Y-13381436D01*
X9865301Y-13381436D02*
X9855777Y-13362388D01*
X9855777Y-13362388D02*
X9846253Y-13324293D01*
X9846253Y-13324293D02*
X9846253Y-13276674D01*
X9846253Y-13276674D02*
X9855777Y-13238579D01*
X9855777Y-13238579D02*
X9865301Y-13219531D01*
X9865301Y-13219531D02*
X9874824Y-13210008D01*
X9874824Y-13210008D02*
X9893872Y-13200484D01*
X10046253Y-13381436D02*
X10055777Y-13390960D01*
X10055777Y-13390960D02*
X10046253Y-13400484D01*
X10046253Y-13400484D02*
X10036729Y-13390960D01*
X10036729Y-13390960D02*
X10046253Y-13381436D01*
X10046253Y-13381436D02*
X10046253Y-13400484D01*
X10236729Y-13200484D02*
X10141491Y-13200484D01*
X10141491Y-13200484D02*
X10131967Y-13295722D01*
X10131967Y-13295722D02*
X10141491Y-13286198D01*
X10141491Y-13286198D02*
X10160539Y-13276674D01*
X10160539Y-13276674D02*
X10208158Y-13276674D01*
X10208158Y-13276674D02*
X10227205Y-13286198D01*
X10227205Y-13286198D02*
X10236729Y-13295722D01*
X10236729Y-13295722D02*
X10246253Y-13314769D01*
X10246253Y-13314769D02*
X10246253Y-13362388D01*
X10246253Y-13362388D02*
X10236729Y-13381436D01*
X10236729Y-13381436D02*
X10227205Y-13390960D01*
X10227205Y-13390960D02*
X10208158Y-13400484D01*
X10208158Y-13400484D02*
X10160539Y-13400484D01*
X10160539Y-13400484D02*
X10141491Y-13390960D01*
X10141491Y-13390960D02*
X10131967Y-13381436D01*
X10370063Y-13200484D02*
X10389110Y-13200484D01*
X10389110Y-13200484D02*
X10408158Y-13210008D01*
X10408158Y-13210008D02*
X10417682Y-13219531D01*
X10417682Y-13219531D02*
X10427205Y-13238579D01*
X10427205Y-13238579D02*
X10436729Y-13276674D01*
X10436729Y-13276674D02*
X10436729Y-13324293D01*
X10436729Y-13324293D02*
X10427205Y-13362388D01*
X10427205Y-13362388D02*
X10417682Y-13381436D01*
X10417682Y-13381436D02*
X10408158Y-13390960D01*
X10408158Y-13390960D02*
X10389110Y-13400484D01*
X10389110Y-13400484D02*
X10370063Y-13400484D01*
X10370063Y-13400484D02*
X10351015Y-13390960D01*
X10351015Y-13390960D02*
X10341491Y-13381436D01*
X10341491Y-13381436D02*
X10331967Y-13362388D01*
X10331967Y-13362388D02*
X10322444Y-13324293D01*
X10322444Y-13324293D02*
X10322444Y-13276674D01*
X10322444Y-13276674D02*
X10331967Y-13238579D01*
X10331967Y-13238579D02*
X10341491Y-13219531D01*
X10341491Y-13219531D02*
X10351015Y-13210008D01*
X10351015Y-13210008D02*
X10370063Y-13200484D01*
X10560539Y-13200484D02*
X10579586Y-13200484D01*
X10579586Y-13200484D02*
X10598634Y-13210008D01*
X10598634Y-13210008D02*
X10608158Y-13219531D01*
X10608158Y-13219531D02*
X10617682Y-13238579D01*
X10617682Y-13238579D02*
X10627205Y-13276674D01*
X10627205Y-13276674D02*
X10627205Y-13324293D01*
X10627205Y-13324293D02*
X10617682Y-13362388D01*
X10617682Y-13362388D02*
X10608158Y-13381436D01*
X10608158Y-13381436D02*
X10598634Y-13390960D01*
X10598634Y-13390960D02*
X10579586Y-13400484D01*
X10579586Y-13400484D02*
X10560539Y-13400484D01*
X10560539Y-13400484D02*
X10541491Y-13390960D01*
X10541491Y-13390960D02*
X10531967Y-13381436D01*
X10531967Y-13381436D02*
X10522444Y-13362388D01*
X10522444Y-13362388D02*
X10512920Y-13324293D01*
X10512920Y-13324293D02*
X10512920Y-13276674D01*
X10512920Y-13276674D02*
X10522444Y-13238579D01*
X10522444Y-13238579D02*
X10531967Y-13219531D01*
X10531967Y-13219531D02*
X10541491Y-13210008D01*
X10541491Y-13210008D02*
X10560539Y-13200484D01*
X10712920Y-13400484D02*
X10712920Y-13267150D01*
X10712920Y-13286198D02*
X10722444Y-13276674D01*
X10722444Y-13276674D02*
X10741491Y-13267150D01*
X10741491Y-13267150D02*
X10770063Y-13267150D01*
X10770063Y-13267150D02*
X10789110Y-13276674D01*
X10789110Y-13276674D02*
X10798634Y-13295722D01*
X10798634Y-13295722D02*
X10798634Y-13400484D01*
X10798634Y-13295722D02*
X10808158Y-13276674D01*
X10808158Y-13276674D02*
X10827205Y-13267150D01*
X10827205Y-13267150D02*
X10855777Y-13267150D01*
X10855777Y-13267150D02*
X10874825Y-13276674D01*
X10874825Y-13276674D02*
X10884348Y-13295722D01*
X10884348Y-13295722D02*
X10884348Y-13400484D01*
X10979586Y-13400484D02*
X10979586Y-13267150D01*
X10979586Y-13286198D02*
X10989110Y-13276674D01*
X10989110Y-13276674D02*
X11008158Y-13267150D01*
X11008158Y-13267150D02*
X11036729Y-13267150D01*
X11036729Y-13267150D02*
X11055777Y-13276674D01*
X11055777Y-13276674D02*
X11065301Y-13295722D01*
X11065301Y-13295722D02*
X11065301Y-13400484D01*
X11065301Y-13295722D02*
X11074825Y-13276674D01*
X11074825Y-13276674D02*
X11093872Y-13267150D01*
X11093872Y-13267150D02*
X11122444Y-13267150D01*
X11122444Y-13267150D02*
X11141491Y-13276674D01*
X11141491Y-13276674D02*
X11151015Y-13295722D01*
X11151015Y-13295722D02*
X11151015Y-13400484D01*
X11541491Y-13190960D02*
X11370063Y-13448103D01*
X11798634Y-13200484D02*
X11817682Y-13200484D01*
X11817682Y-13200484D02*
X11836729Y-13210008D01*
X11836729Y-13210008D02*
X11846253Y-13219531D01*
X11846253Y-13219531D02*
X11855777Y-13238579D01*
X11855777Y-13238579D02*
X11865301Y-13276674D01*
X11865301Y-13276674D02*
X11865301Y-13324293D01*
X11865301Y-13324293D02*
X11855777Y-13362388D01*
X11855777Y-13362388D02*
X11846253Y-13381436D01*
X11846253Y-13381436D02*
X11836729Y-13390960D01*
X11836729Y-13390960D02*
X11817682Y-13400484D01*
X11817682Y-13400484D02*
X11798634Y-13400484D01*
X11798634Y-13400484D02*
X11779586Y-13390960D01*
X11779586Y-13390960D02*
X11770063Y-13381436D01*
X11770063Y-13381436D02*
X11760539Y-13362388D01*
X11760539Y-13362388D02*
X11751015Y-13324293D01*
X11751015Y-13324293D02*
X11751015Y-13276674D01*
X11751015Y-13276674D02*
X11760539Y-13238579D01*
X11760539Y-13238579D02*
X11770063Y-13219531D01*
X11770063Y-13219531D02*
X11779586Y-13210008D01*
X11779586Y-13210008D02*
X11798634Y-13200484D01*
X11951015Y-13381436D02*
X11960539Y-13390960D01*
X11960539Y-13390960D02*
X11951015Y-13400484D01*
X11951015Y-13400484D02*
X11941491Y-13390960D01*
X11941491Y-13390960D02*
X11951015Y-13381436D01*
X11951015Y-13381436D02*
X11951015Y-13400484D01*
X12084348Y-13200484D02*
X12103396Y-13200484D01*
X12103396Y-13200484D02*
X12122444Y-13210008D01*
X12122444Y-13210008D02*
X12131967Y-13219531D01*
X12131967Y-13219531D02*
X12141491Y-13238579D01*
X12141491Y-13238579D02*
X12151015Y-13276674D01*
X12151015Y-13276674D02*
X12151015Y-13324293D01*
X12151015Y-13324293D02*
X12141491Y-13362388D01*
X12141491Y-13362388D02*
X12131967Y-13381436D01*
X12131967Y-13381436D02*
X12122444Y-13390960D01*
X12122444Y-13390960D02*
X12103396Y-13400484D01*
X12103396Y-13400484D02*
X12084348Y-13400484D01*
X12084348Y-13400484D02*
X12065301Y-13390960D01*
X12065301Y-13390960D02*
X12055777Y-13381436D01*
X12055777Y-13381436D02*
X12046253Y-13362388D01*
X12046253Y-13362388D02*
X12036729Y-13324293D01*
X12036729Y-13324293D02*
X12036729Y-13276674D01*
X12036729Y-13276674D02*
X12046253Y-13238579D01*
X12046253Y-13238579D02*
X12055777Y-13219531D01*
X12055777Y-13219531D02*
X12065301Y-13210008D01*
X12065301Y-13210008D02*
X12084348Y-13200484D01*
X12341491Y-13400484D02*
X12227206Y-13400484D01*
X12284348Y-13400484D02*
X12284348Y-13200484D01*
X12284348Y-13200484D02*
X12265301Y-13229055D01*
X12265301Y-13229055D02*
X12246253Y-13248103D01*
X12246253Y-13248103D02*
X12227206Y-13257627D01*
X12436729Y-13400484D02*
X12474825Y-13400484D01*
X12474825Y-13400484D02*
X12493872Y-13390960D01*
X12493872Y-13390960D02*
X12503396Y-13381436D01*
X12503396Y-13381436D02*
X12522444Y-13352865D01*
X12522444Y-13352865D02*
X12531967Y-13314769D01*
X12531967Y-13314769D02*
X12531967Y-13238579D01*
X12531967Y-13238579D02*
X12522444Y-13219531D01*
X12522444Y-13219531D02*
X12512920Y-13210008D01*
X12512920Y-13210008D02*
X12493872Y-13200484D01*
X12493872Y-13200484D02*
X12455777Y-13200484D01*
X12455777Y-13200484D02*
X12436729Y-13210008D01*
X12436729Y-13210008D02*
X12427206Y-13219531D01*
X12427206Y-13219531D02*
X12417682Y-13238579D01*
X12417682Y-13238579D02*
X12417682Y-13286198D01*
X12417682Y-13286198D02*
X12427206Y-13305246D01*
X12427206Y-13305246D02*
X12436729Y-13314769D01*
X12436729Y-13314769D02*
X12455777Y-13324293D01*
X12455777Y-13324293D02*
X12493872Y-13324293D01*
X12493872Y-13324293D02*
X12512920Y-13314769D01*
X12512920Y-13314769D02*
X12522444Y-13305246D01*
X12522444Y-13305246D02*
X12531967Y-13286198D01*
X12598634Y-13200484D02*
X12731967Y-13200484D01*
X12731967Y-13200484D02*
X12646253Y-13400484D01*
X12798634Y-13200484D02*
X12798634Y-13238579D01*
X12874825Y-13200484D02*
X12874825Y-13238579D01*
X13170063Y-13476674D02*
X13160539Y-13467150D01*
X13160539Y-13467150D02*
X13141491Y-13438579D01*
X13141491Y-13438579D02*
X13131968Y-13419531D01*
X13131968Y-13419531D02*
X13122444Y-13390960D01*
X13122444Y-13390960D02*
X13112920Y-13343341D01*
X13112920Y-13343341D02*
X13112920Y-13305246D01*
X13112920Y-13305246D02*
X13122444Y-13257627D01*
X13122444Y-13257627D02*
X13131968Y-13229055D01*
X13131968Y-13229055D02*
X13141491Y-13210008D01*
X13141491Y-13210008D02*
X13160539Y-13181436D01*
X13160539Y-13181436D02*
X13170063Y-13171912D01*
X13227206Y-13200484D02*
X13351015Y-13200484D01*
X13351015Y-13200484D02*
X13284348Y-13276674D01*
X13284348Y-13276674D02*
X13312920Y-13276674D01*
X13312920Y-13276674D02*
X13331968Y-13286198D01*
X13331968Y-13286198D02*
X13341491Y-13295722D01*
X13341491Y-13295722D02*
X13351015Y-13314769D01*
X13351015Y-13314769D02*
X13351015Y-13362388D01*
X13351015Y-13362388D02*
X13341491Y-13381436D01*
X13341491Y-13381436D02*
X13331968Y-13390960D01*
X13331968Y-13390960D02*
X13312920Y-13400484D01*
X13312920Y-13400484D02*
X13255777Y-13400484D01*
X13255777Y-13400484D02*
X13236729Y-13390960D01*
X13236729Y-13390960D02*
X13227206Y-13381436D01*
X13427206Y-13219531D02*
X13436729Y-13210008D01*
X13436729Y-13210008D02*
X13455777Y-13200484D01*
X13455777Y-13200484D02*
X13503396Y-13200484D01*
X13503396Y-13200484D02*
X13522444Y-13210008D01*
X13522444Y-13210008D02*
X13531968Y-13219531D01*
X13531968Y-13219531D02*
X13541491Y-13238579D01*
X13541491Y-13238579D02*
X13541491Y-13257627D01*
X13541491Y-13257627D02*
X13531968Y-13286198D01*
X13531968Y-13286198D02*
X13417682Y-13400484D01*
X13417682Y-13400484D02*
X13541491Y-13400484D01*
X13779587Y-13400484D02*
X13779587Y-13200484D01*
X13865301Y-13400484D02*
X13865301Y-13295722D01*
X13865301Y-13295722D02*
X13855777Y-13276674D01*
X13855777Y-13276674D02*
X13836730Y-13267150D01*
X13836730Y-13267150D02*
X13808158Y-13267150D01*
X13808158Y-13267150D02*
X13789110Y-13276674D01*
X13789110Y-13276674D02*
X13779587Y-13286198D01*
X13989110Y-13400484D02*
X13970063Y-13390960D01*
X13970063Y-13390960D02*
X13960539Y-13381436D01*
X13960539Y-13381436D02*
X13951015Y-13362388D01*
X13951015Y-13362388D02*
X13951015Y-13305246D01*
X13951015Y-13305246D02*
X13960539Y-13286198D01*
X13960539Y-13286198D02*
X13970063Y-13276674D01*
X13970063Y-13276674D02*
X13989110Y-13267150D01*
X13989110Y-13267150D02*
X14017682Y-13267150D01*
X14017682Y-13267150D02*
X14036730Y-13276674D01*
X14036730Y-13276674D02*
X14046253Y-13286198D01*
X14046253Y-13286198D02*
X14055777Y-13305246D01*
X14055777Y-13305246D02*
X14055777Y-13362388D01*
X14055777Y-13362388D02*
X14046253Y-13381436D01*
X14046253Y-13381436D02*
X14036730Y-13390960D01*
X14036730Y-13390960D02*
X14017682Y-13400484D01*
X14017682Y-13400484D02*
X13989110Y-13400484D01*
X14170063Y-13400484D02*
X14151015Y-13390960D01*
X14151015Y-13390960D02*
X14141491Y-13371912D01*
X14141491Y-13371912D02*
X14141491Y-13200484D01*
X14322444Y-13390960D02*
X14303396Y-13400484D01*
X14303396Y-13400484D02*
X14265301Y-13400484D01*
X14265301Y-13400484D02*
X14246253Y-13390960D01*
X14246253Y-13390960D02*
X14236730Y-13371912D01*
X14236730Y-13371912D02*
X14236730Y-13295722D01*
X14236730Y-13295722D02*
X14246253Y-13276674D01*
X14246253Y-13276674D02*
X14265301Y-13267150D01*
X14265301Y-13267150D02*
X14303396Y-13267150D01*
X14303396Y-13267150D02*
X14322444Y-13276674D01*
X14322444Y-13276674D02*
X14331968Y-13295722D01*
X14331968Y-13295722D02*
X14331968Y-13314769D01*
X14331968Y-13314769D02*
X14236730Y-13333817D01*
X14408158Y-13390960D02*
X14427206Y-13400484D01*
X14427206Y-13400484D02*
X14465301Y-13400484D01*
X14465301Y-13400484D02*
X14484349Y-13390960D01*
X14484349Y-13390960D02*
X14493872Y-13371912D01*
X14493872Y-13371912D02*
X14493872Y-13362388D01*
X14493872Y-13362388D02*
X14484349Y-13343341D01*
X14484349Y-13343341D02*
X14465301Y-13333817D01*
X14465301Y-13333817D02*
X14436730Y-13333817D01*
X14436730Y-13333817D02*
X14417682Y-13324293D01*
X14417682Y-13324293D02*
X14408158Y-13305246D01*
X14408158Y-13305246D02*
X14408158Y-13295722D01*
X14408158Y-13295722D02*
X14417682Y-13276674D01*
X14417682Y-13276674D02*
X14436730Y-13267150D01*
X14436730Y-13267150D02*
X14465301Y-13267150D01*
X14465301Y-13267150D02*
X14484349Y-13276674D01*
X14560539Y-13476674D02*
X14570063Y-13467150D01*
X14570063Y-13467150D02*
X14589111Y-13438579D01*
X14589111Y-13438579D02*
X14598634Y-13419531D01*
X14598634Y-13419531D02*
X14608158Y-13390960D01*
X14608158Y-13390960D02*
X14617682Y-13343341D01*
X14617682Y-13343341D02*
X14617682Y-13305246D01*
X14617682Y-13305246D02*
X14608158Y-13257627D01*
X14608158Y-13257627D02*
X14598634Y-13229055D01*
X14598634Y-13229055D02*
X14589111Y-13210008D01*
X14589111Y-13210008D02*
X14570063Y-13181436D01*
X14570063Y-13181436D02*
X14560539Y-13171912D01*
D10*
X9565000Y-13543000D02*
X9565000Y-13603000D01*
X9535000Y-13573000D02*
X9595000Y-13573000D01*
D11*
X9893872Y-13464484D02*
X9912920Y-13464484D01*
X9912920Y-13464484D02*
X9931967Y-13474008D01*
X9931967Y-13474008D02*
X9941491Y-13483531D01*
X9941491Y-13483531D02*
X9951015Y-13502579D01*
X9951015Y-13502579D02*
X9960539Y-13540674D01*
X9960539Y-13540674D02*
X9960539Y-13588293D01*
X9960539Y-13588293D02*
X9951015Y-13626388D01*
X9951015Y-13626388D02*
X9941491Y-13645436D01*
X9941491Y-13645436D02*
X9931967Y-13654960D01*
X9931967Y-13654960D02*
X9912920Y-13664484D01*
X9912920Y-13664484D02*
X9893872Y-13664484D01*
X9893872Y-13664484D02*
X9874824Y-13654960D01*
X9874824Y-13654960D02*
X9865301Y-13645436D01*
X9865301Y-13645436D02*
X9855777Y-13626388D01*
X9855777Y-13626388D02*
X9846253Y-13588293D01*
X9846253Y-13588293D02*
X9846253Y-13540674D01*
X9846253Y-13540674D02*
X9855777Y-13502579D01*
X9855777Y-13502579D02*
X9865301Y-13483531D01*
X9865301Y-13483531D02*
X9874824Y-13474008D01*
X9874824Y-13474008D02*
X9893872Y-13464484D01*
X10046253Y-13645436D02*
X10055777Y-13654960D01*
X10055777Y-13654960D02*
X10046253Y-13664484D01*
X10046253Y-13664484D02*
X10036729Y-13654960D01*
X10036729Y-13654960D02*
X10046253Y-13645436D01*
X10046253Y-13645436D02*
X10046253Y-13664484D01*
X10227205Y-13464484D02*
X10189110Y-13464484D01*
X10189110Y-13464484D02*
X10170063Y-13474008D01*
X10170063Y-13474008D02*
X10160539Y-13483531D01*
X10160539Y-13483531D02*
X10141491Y-13512103D01*
X10141491Y-13512103D02*
X10131967Y-13550198D01*
X10131967Y-13550198D02*
X10131967Y-13626388D01*
X10131967Y-13626388D02*
X10141491Y-13645436D01*
X10141491Y-13645436D02*
X10151015Y-13654960D01*
X10151015Y-13654960D02*
X10170063Y-13664484D01*
X10170063Y-13664484D02*
X10208158Y-13664484D01*
X10208158Y-13664484D02*
X10227205Y-13654960D01*
X10227205Y-13654960D02*
X10236729Y-13645436D01*
X10236729Y-13645436D02*
X10246253Y-13626388D01*
X10246253Y-13626388D02*
X10246253Y-13578769D01*
X10246253Y-13578769D02*
X10236729Y-13559722D01*
X10236729Y-13559722D02*
X10227205Y-13550198D01*
X10227205Y-13550198D02*
X10208158Y-13540674D01*
X10208158Y-13540674D02*
X10170063Y-13540674D01*
X10170063Y-13540674D02*
X10151015Y-13550198D01*
X10151015Y-13550198D02*
X10141491Y-13559722D01*
X10141491Y-13559722D02*
X10131967Y-13578769D01*
X10370063Y-13464484D02*
X10389110Y-13464484D01*
X10389110Y-13464484D02*
X10408158Y-13474008D01*
X10408158Y-13474008D02*
X10417682Y-13483531D01*
X10417682Y-13483531D02*
X10427205Y-13502579D01*
X10427205Y-13502579D02*
X10436729Y-13540674D01*
X10436729Y-13540674D02*
X10436729Y-13588293D01*
X10436729Y-13588293D02*
X10427205Y-13626388D01*
X10427205Y-13626388D02*
X10417682Y-13645436D01*
X10417682Y-13645436D02*
X10408158Y-13654960D01*
X10408158Y-13654960D02*
X10389110Y-13664484D01*
X10389110Y-13664484D02*
X10370063Y-13664484D01*
X10370063Y-13664484D02*
X10351015Y-13654960D01*
X10351015Y-13654960D02*
X10341491Y-13645436D01*
X10341491Y-13645436D02*
X10331967Y-13626388D01*
X10331967Y-13626388D02*
X10322444Y-13588293D01*
X10322444Y-13588293D02*
X10322444Y-13540674D01*
X10322444Y-13540674D02*
X10331967Y-13502579D01*
X10331967Y-13502579D02*
X10341491Y-13483531D01*
X10341491Y-13483531D02*
X10351015Y-13474008D01*
X10351015Y-13474008D02*
X10370063Y-13464484D01*
X10560539Y-13464484D02*
X10579586Y-13464484D01*
X10579586Y-13464484D02*
X10598634Y-13474008D01*
X10598634Y-13474008D02*
X10608158Y-13483531D01*
X10608158Y-13483531D02*
X10617682Y-13502579D01*
X10617682Y-13502579D02*
X10627205Y-13540674D01*
X10627205Y-13540674D02*
X10627205Y-13588293D01*
X10627205Y-13588293D02*
X10617682Y-13626388D01*
X10617682Y-13626388D02*
X10608158Y-13645436D01*
X10608158Y-13645436D02*
X10598634Y-13654960D01*
X10598634Y-13654960D02*
X10579586Y-13664484D01*
X10579586Y-13664484D02*
X10560539Y-13664484D01*
X10560539Y-13664484D02*
X10541491Y-13654960D01*
X10541491Y-13654960D02*
X10531967Y-13645436D01*
X10531967Y-13645436D02*
X10522444Y-13626388D01*
X10522444Y-13626388D02*
X10512920Y-13588293D01*
X10512920Y-13588293D02*
X10512920Y-13540674D01*
X10512920Y-13540674D02*
X10522444Y-13502579D01*
X10522444Y-13502579D02*
X10531967Y-13483531D01*
X10531967Y-13483531D02*
X10541491Y-13474008D01*
X10541491Y-13474008D02*
X10560539Y-13464484D01*
X10712920Y-13664484D02*
X10712920Y-13531150D01*
X10712920Y-13550198D02*
X10722444Y-13540674D01*
X10722444Y-13540674D02*
X10741491Y-13531150D01*
X10741491Y-13531150D02*
X10770063Y-13531150D01*
X10770063Y-13531150D02*
X10789110Y-13540674D01*
X10789110Y-13540674D02*
X10798634Y-13559722D01*
X10798634Y-13559722D02*
X10798634Y-13664484D01*
X10798634Y-13559722D02*
X10808158Y-13540674D01*
X10808158Y-13540674D02*
X10827205Y-13531150D01*
X10827205Y-13531150D02*
X10855777Y-13531150D01*
X10855777Y-13531150D02*
X10874825Y-13540674D01*
X10874825Y-13540674D02*
X10884348Y-13559722D01*
X10884348Y-13559722D02*
X10884348Y-13664484D01*
X10979586Y-13664484D02*
X10979586Y-13531150D01*
X10979586Y-13550198D02*
X10989110Y-13540674D01*
X10989110Y-13540674D02*
X11008158Y-13531150D01*
X11008158Y-13531150D02*
X11036729Y-13531150D01*
X11036729Y-13531150D02*
X11055777Y-13540674D01*
X11055777Y-13540674D02*
X11065301Y-13559722D01*
X11065301Y-13559722D02*
X11065301Y-13664484D01*
X11065301Y-13559722D02*
X11074825Y-13540674D01*
X11074825Y-13540674D02*
X11093872Y-13531150D01*
X11093872Y-13531150D02*
X11122444Y-13531150D01*
X11122444Y-13531150D02*
X11141491Y-13540674D01*
X11141491Y-13540674D02*
X11151015Y-13559722D01*
X11151015Y-13559722D02*
X11151015Y-13664484D01*
X11541491Y-13454960D02*
X11370063Y-13712103D01*
X11798634Y-13464484D02*
X11817682Y-13464484D01*
X11817682Y-13464484D02*
X11836729Y-13474008D01*
X11836729Y-13474008D02*
X11846253Y-13483531D01*
X11846253Y-13483531D02*
X11855777Y-13502579D01*
X11855777Y-13502579D02*
X11865301Y-13540674D01*
X11865301Y-13540674D02*
X11865301Y-13588293D01*
X11865301Y-13588293D02*
X11855777Y-13626388D01*
X11855777Y-13626388D02*
X11846253Y-13645436D01*
X11846253Y-13645436D02*
X11836729Y-13654960D01*
X11836729Y-13654960D02*
X11817682Y-13664484D01*
X11817682Y-13664484D02*
X11798634Y-13664484D01*
X11798634Y-13664484D02*
X11779586Y-13654960D01*
X11779586Y-13654960D02*
X11770063Y-13645436D01*
X11770063Y-13645436D02*
X11760539Y-13626388D01*
X11760539Y-13626388D02*
X11751015Y-13588293D01*
X11751015Y-13588293D02*
X11751015Y-13540674D01*
X11751015Y-13540674D02*
X11760539Y-13502579D01*
X11760539Y-13502579D02*
X11770063Y-13483531D01*
X11770063Y-13483531D02*
X11779586Y-13474008D01*
X11779586Y-13474008D02*
X11798634Y-13464484D01*
X11951015Y-13645436D02*
X11960539Y-13654960D01*
X11960539Y-13654960D02*
X11951015Y-13664484D01*
X11951015Y-13664484D02*
X11941491Y-13654960D01*
X11941491Y-13654960D02*
X11951015Y-13645436D01*
X11951015Y-13645436D02*
X11951015Y-13664484D01*
X12084348Y-13464484D02*
X12103396Y-13464484D01*
X12103396Y-13464484D02*
X12122444Y-13474008D01*
X12122444Y-13474008D02*
X12131967Y-13483531D01*
X12131967Y-13483531D02*
X12141491Y-13502579D01*
X12141491Y-13502579D02*
X12151015Y-13540674D01*
X12151015Y-13540674D02*
X12151015Y-13588293D01*
X12151015Y-13588293D02*
X12141491Y-13626388D01*
X12141491Y-13626388D02*
X12131967Y-13645436D01*
X12131967Y-13645436D02*
X12122444Y-13654960D01*
X12122444Y-13654960D02*
X12103396Y-13664484D01*
X12103396Y-13664484D02*
X12084348Y-13664484D01*
X12084348Y-13664484D02*
X12065301Y-13654960D01*
X12065301Y-13654960D02*
X12055777Y-13645436D01*
X12055777Y-13645436D02*
X12046253Y-13626388D01*
X12046253Y-13626388D02*
X12036729Y-13588293D01*
X12036729Y-13588293D02*
X12036729Y-13540674D01*
X12036729Y-13540674D02*
X12046253Y-13502579D01*
X12046253Y-13502579D02*
X12055777Y-13483531D01*
X12055777Y-13483531D02*
X12065301Y-13474008D01*
X12065301Y-13474008D02*
X12084348Y-13464484D01*
X12227206Y-13483531D02*
X12236729Y-13474008D01*
X12236729Y-13474008D02*
X12255777Y-13464484D01*
X12255777Y-13464484D02*
X12303396Y-13464484D01*
X12303396Y-13464484D02*
X12322444Y-13474008D01*
X12322444Y-13474008D02*
X12331967Y-13483531D01*
X12331967Y-13483531D02*
X12341491Y-13502579D01*
X12341491Y-13502579D02*
X12341491Y-13521627D01*
X12341491Y-13521627D02*
X12331967Y-13550198D01*
X12331967Y-13550198D02*
X12217682Y-13664484D01*
X12217682Y-13664484D02*
X12341491Y-13664484D01*
X12408158Y-13464484D02*
X12531967Y-13464484D01*
X12531967Y-13464484D02*
X12465301Y-13540674D01*
X12465301Y-13540674D02*
X12493872Y-13540674D01*
X12493872Y-13540674D02*
X12512920Y-13550198D01*
X12512920Y-13550198D02*
X12522444Y-13559722D01*
X12522444Y-13559722D02*
X12531967Y-13578769D01*
X12531967Y-13578769D02*
X12531967Y-13626388D01*
X12531967Y-13626388D02*
X12522444Y-13645436D01*
X12522444Y-13645436D02*
X12512920Y-13654960D01*
X12512920Y-13654960D02*
X12493872Y-13664484D01*
X12493872Y-13664484D02*
X12436729Y-13664484D01*
X12436729Y-13664484D02*
X12417682Y-13654960D01*
X12417682Y-13654960D02*
X12408158Y-13645436D01*
X12703396Y-13464484D02*
X12665301Y-13464484D01*
X12665301Y-13464484D02*
X12646253Y-13474008D01*
X12646253Y-13474008D02*
X12636729Y-13483531D01*
X12636729Y-13483531D02*
X12617682Y-13512103D01*
X12617682Y-13512103D02*
X12608158Y-13550198D01*
X12608158Y-13550198D02*
X12608158Y-13626388D01*
X12608158Y-13626388D02*
X12617682Y-13645436D01*
X12617682Y-13645436D02*
X12627206Y-13654960D01*
X12627206Y-13654960D02*
X12646253Y-13664484D01*
X12646253Y-13664484D02*
X12684348Y-13664484D01*
X12684348Y-13664484D02*
X12703396Y-13654960D01*
X12703396Y-13654960D02*
X12712920Y-13645436D01*
X12712920Y-13645436D02*
X12722444Y-13626388D01*
X12722444Y-13626388D02*
X12722444Y-13578769D01*
X12722444Y-13578769D02*
X12712920Y-13559722D01*
X12712920Y-13559722D02*
X12703396Y-13550198D01*
X12703396Y-13550198D02*
X12684348Y-13540674D01*
X12684348Y-13540674D02*
X12646253Y-13540674D01*
X12646253Y-13540674D02*
X12627206Y-13550198D01*
X12627206Y-13550198D02*
X12617682Y-13559722D01*
X12617682Y-13559722D02*
X12608158Y-13578769D01*
X12798634Y-13464484D02*
X12798634Y-13502579D01*
X12874825Y-13464484D02*
X12874825Y-13502579D01*
X13170063Y-13740674D02*
X13160539Y-13731150D01*
X13160539Y-13731150D02*
X13141491Y-13702579D01*
X13141491Y-13702579D02*
X13131968Y-13683531D01*
X13131968Y-13683531D02*
X13122444Y-13654960D01*
X13122444Y-13654960D02*
X13112920Y-13607341D01*
X13112920Y-13607341D02*
X13112920Y-13569246D01*
X13112920Y-13569246D02*
X13122444Y-13521627D01*
X13122444Y-13521627D02*
X13131968Y-13493055D01*
X13131968Y-13493055D02*
X13141491Y-13474008D01*
X13141491Y-13474008D02*
X13160539Y-13445436D01*
X13160539Y-13445436D02*
X13170063Y-13435912D01*
X13284348Y-13464484D02*
X13303396Y-13464484D01*
X13303396Y-13464484D02*
X13322444Y-13474008D01*
X13322444Y-13474008D02*
X13331968Y-13483531D01*
X13331968Y-13483531D02*
X13341491Y-13502579D01*
X13341491Y-13502579D02*
X13351015Y-13540674D01*
X13351015Y-13540674D02*
X13351015Y-13588293D01*
X13351015Y-13588293D02*
X13341491Y-13626388D01*
X13341491Y-13626388D02*
X13331968Y-13645436D01*
X13331968Y-13645436D02*
X13322444Y-13654960D01*
X13322444Y-13654960D02*
X13303396Y-13664484D01*
X13303396Y-13664484D02*
X13284348Y-13664484D01*
X13284348Y-13664484D02*
X13265301Y-13654960D01*
X13265301Y-13654960D02*
X13255777Y-13645436D01*
X13255777Y-13645436D02*
X13246253Y-13626388D01*
X13246253Y-13626388D02*
X13236729Y-13588293D01*
X13236729Y-13588293D02*
X13236729Y-13540674D01*
X13236729Y-13540674D02*
X13246253Y-13502579D01*
X13246253Y-13502579D02*
X13255777Y-13483531D01*
X13255777Y-13483531D02*
X13265301Y-13474008D01*
X13265301Y-13474008D02*
X13284348Y-13464484D01*
X13589110Y-13664484D02*
X13589110Y-13464484D01*
X13674825Y-13664484D02*
X13674825Y-13559722D01*
X13674825Y-13559722D02*
X13665301Y-13540674D01*
X13665301Y-13540674D02*
X13646253Y-13531150D01*
X13646253Y-13531150D02*
X13617682Y-13531150D01*
X13617682Y-13531150D02*
X13598634Y-13540674D01*
X13598634Y-13540674D02*
X13589110Y-13550198D01*
X13798634Y-13664484D02*
X13779587Y-13654960D01*
X13779587Y-13654960D02*
X13770063Y-13645436D01*
X13770063Y-13645436D02*
X13760539Y-13626388D01*
X13760539Y-13626388D02*
X13760539Y-13569246D01*
X13760539Y-13569246D02*
X13770063Y-13550198D01*
X13770063Y-13550198D02*
X13779587Y-13540674D01*
X13779587Y-13540674D02*
X13798634Y-13531150D01*
X13798634Y-13531150D02*
X13827206Y-13531150D01*
X13827206Y-13531150D02*
X13846253Y-13540674D01*
X13846253Y-13540674D02*
X13855777Y-13550198D01*
X13855777Y-13550198D02*
X13865301Y-13569246D01*
X13865301Y-13569246D02*
X13865301Y-13626388D01*
X13865301Y-13626388D02*
X13855777Y-13645436D01*
X13855777Y-13645436D02*
X13846253Y-13654960D01*
X13846253Y-13654960D02*
X13827206Y-13664484D01*
X13827206Y-13664484D02*
X13798634Y-13664484D01*
X13979587Y-13664484D02*
X13960539Y-13654960D01*
X13960539Y-13654960D02*
X13951015Y-13635912D01*
X13951015Y-13635912D02*
X13951015Y-13464484D01*
X14131968Y-13654960D02*
X14112920Y-13664484D01*
X14112920Y-13664484D02*
X14074825Y-13664484D01*
X14074825Y-13664484D02*
X14055777Y-13654960D01*
X14055777Y-13654960D02*
X14046253Y-13635912D01*
X14046253Y-13635912D02*
X14046253Y-13559722D01*
X14046253Y-13559722D02*
X14055777Y-13540674D01*
X14055777Y-13540674D02*
X14074825Y-13531150D01*
X14074825Y-13531150D02*
X14112920Y-13531150D01*
X14112920Y-13531150D02*
X14131968Y-13540674D01*
X14131968Y-13540674D02*
X14141491Y-13559722D01*
X14141491Y-13559722D02*
X14141491Y-13578769D01*
X14141491Y-13578769D02*
X14046253Y-13597817D01*
X14217682Y-13654960D02*
X14236730Y-13664484D01*
X14236730Y-13664484D02*
X14274825Y-13664484D01*
X14274825Y-13664484D02*
X14293872Y-13654960D01*
X14293872Y-13654960D02*
X14303396Y-13635912D01*
X14303396Y-13635912D02*
X14303396Y-13626388D01*
X14303396Y-13626388D02*
X14293872Y-13607341D01*
X14293872Y-13607341D02*
X14274825Y-13597817D01*
X14274825Y-13597817D02*
X14246253Y-13597817D01*
X14246253Y-13597817D02*
X14227206Y-13588293D01*
X14227206Y-13588293D02*
X14217682Y-13569246D01*
X14217682Y-13569246D02*
X14217682Y-13559722D01*
X14217682Y-13559722D02*
X14227206Y-13540674D01*
X14227206Y-13540674D02*
X14246253Y-13531150D01*
X14246253Y-13531150D02*
X14274825Y-13531150D01*
X14274825Y-13531150D02*
X14293872Y-13540674D01*
X14541492Y-13588293D02*
X14693873Y-13588293D01*
X14617682Y-13664484D02*
X14617682Y-13512103D01*
X15027206Y-13531150D02*
X15027206Y-13664484D01*
X14979587Y-13454960D02*
X14931968Y-13597817D01*
X14931968Y-13597817D02*
X15055777Y-13597817D01*
X15274825Y-13654960D02*
X15293873Y-13664484D01*
X15293873Y-13664484D02*
X15331968Y-13664484D01*
X15331968Y-13664484D02*
X15351015Y-13654960D01*
X15351015Y-13654960D02*
X15360539Y-13635912D01*
X15360539Y-13635912D02*
X15360539Y-13626388D01*
X15360539Y-13626388D02*
X15351015Y-13607341D01*
X15351015Y-13607341D02*
X15331968Y-13597817D01*
X15331968Y-13597817D02*
X15303396Y-13597817D01*
X15303396Y-13597817D02*
X15284349Y-13588293D01*
X15284349Y-13588293D02*
X15274825Y-13569246D01*
X15274825Y-13569246D02*
X15274825Y-13559722D01*
X15274825Y-13559722D02*
X15284349Y-13540674D01*
X15284349Y-13540674D02*
X15303396Y-13531150D01*
X15303396Y-13531150D02*
X15331968Y-13531150D01*
X15331968Y-13531150D02*
X15351015Y-13540674D01*
X15474825Y-13664484D02*
X15455777Y-13654960D01*
X15455777Y-13654960D02*
X15446254Y-13635912D01*
X15446254Y-13635912D02*
X15446254Y-13464484D01*
X15579587Y-13664484D02*
X15560539Y-13654960D01*
X15560539Y-13654960D02*
X15551015Y-13645436D01*
X15551015Y-13645436D02*
X15541492Y-13626388D01*
X15541492Y-13626388D02*
X15541492Y-13569246D01*
X15541492Y-13569246D02*
X15551015Y-13550198D01*
X15551015Y-13550198D02*
X15560539Y-13540674D01*
X15560539Y-13540674D02*
X15579587Y-13531150D01*
X15579587Y-13531150D02*
X15608158Y-13531150D01*
X15608158Y-13531150D02*
X15627206Y-13540674D01*
X15627206Y-13540674D02*
X15636730Y-13550198D01*
X15636730Y-13550198D02*
X15646254Y-13569246D01*
X15646254Y-13569246D02*
X15646254Y-13626388D01*
X15646254Y-13626388D02*
X15636730Y-13645436D01*
X15636730Y-13645436D02*
X15627206Y-13654960D01*
X15627206Y-13654960D02*
X15608158Y-13664484D01*
X15608158Y-13664484D02*
X15579587Y-13664484D01*
X15703396Y-13531150D02*
X15779587Y-13531150D01*
X15731968Y-13464484D02*
X15731968Y-13635912D01*
X15731968Y-13635912D02*
X15741492Y-13654960D01*
X15741492Y-13654960D02*
X15760539Y-13664484D01*
X15760539Y-13664484D02*
X15779587Y-13664484D01*
X15836730Y-13654960D02*
X15855777Y-13664484D01*
X15855777Y-13664484D02*
X15893873Y-13664484D01*
X15893873Y-13664484D02*
X15912920Y-13654960D01*
X15912920Y-13654960D02*
X15922444Y-13635912D01*
X15922444Y-13635912D02*
X15922444Y-13626388D01*
X15922444Y-13626388D02*
X15912920Y-13607341D01*
X15912920Y-13607341D02*
X15893873Y-13597817D01*
X15893873Y-13597817D02*
X15865301Y-13597817D01*
X15865301Y-13597817D02*
X15846254Y-13588293D01*
X15846254Y-13588293D02*
X15836730Y-13569246D01*
X15836730Y-13569246D02*
X15836730Y-13559722D01*
X15836730Y-13559722D02*
X15846254Y-13540674D01*
X15846254Y-13540674D02*
X15865301Y-13531150D01*
X15865301Y-13531150D02*
X15893873Y-13531150D01*
X15893873Y-13531150D02*
X15912920Y-13540674D01*
X15989111Y-13740674D02*
X15998635Y-13731150D01*
X15998635Y-13731150D02*
X16017682Y-13702579D01*
X16017682Y-13702579D02*
X16027206Y-13683531D01*
X16027206Y-13683531D02*
X16036730Y-13654960D01*
X16036730Y-13654960D02*
X16046254Y-13607341D01*
X16046254Y-13607341D02*
X16046254Y-13569246D01*
X16046254Y-13569246D02*
X16036730Y-13521627D01*
X16036730Y-13521627D02*
X16027206Y-13493055D01*
X16027206Y-13493055D02*
X16017682Y-13474008D01*
X16017682Y-13474008D02*
X15998635Y-13445436D01*
X15998635Y-13445436D02*
X15989111Y-13435912D01*
D10*
X9581088Y-13870588D02*
X9581088Y-13803412D01*
X9513912Y-13803412D01*
X9513912Y-13870588D01*
X9581088Y-13870588D01*
D11*
X9893872Y-13728484D02*
X9912920Y-13728484D01*
X9912920Y-13728484D02*
X9931967Y-13738008D01*
X9931967Y-13738008D02*
X9941491Y-13747531D01*
X9941491Y-13747531D02*
X9951015Y-13766579D01*
X9951015Y-13766579D02*
X9960539Y-13804674D01*
X9960539Y-13804674D02*
X9960539Y-13852293D01*
X9960539Y-13852293D02*
X9951015Y-13890388D01*
X9951015Y-13890388D02*
X9941491Y-13909436D01*
X9941491Y-13909436D02*
X9931967Y-13918960D01*
X9931967Y-13918960D02*
X9912920Y-13928484D01*
X9912920Y-13928484D02*
X9893872Y-13928484D01*
X9893872Y-13928484D02*
X9874824Y-13918960D01*
X9874824Y-13918960D02*
X9865301Y-13909436D01*
X9865301Y-13909436D02*
X9855777Y-13890388D01*
X9855777Y-13890388D02*
X9846253Y-13852293D01*
X9846253Y-13852293D02*
X9846253Y-13804674D01*
X9846253Y-13804674D02*
X9855777Y-13766579D01*
X9855777Y-13766579D02*
X9865301Y-13747531D01*
X9865301Y-13747531D02*
X9874824Y-13738008D01*
X9874824Y-13738008D02*
X9893872Y-13728484D01*
X10046253Y-13909436D02*
X10055777Y-13918960D01*
X10055777Y-13918960D02*
X10046253Y-13928484D01*
X10046253Y-13928484D02*
X10036729Y-13918960D01*
X10036729Y-13918960D02*
X10046253Y-13909436D01*
X10046253Y-13909436D02*
X10046253Y-13928484D01*
X10151015Y-13928484D02*
X10189110Y-13928484D01*
X10189110Y-13928484D02*
X10208158Y-13918960D01*
X10208158Y-13918960D02*
X10217682Y-13909436D01*
X10217682Y-13909436D02*
X10236729Y-13880865D01*
X10236729Y-13880865D02*
X10246253Y-13842769D01*
X10246253Y-13842769D02*
X10246253Y-13766579D01*
X10246253Y-13766579D02*
X10236729Y-13747531D01*
X10236729Y-13747531D02*
X10227205Y-13738008D01*
X10227205Y-13738008D02*
X10208158Y-13728484D01*
X10208158Y-13728484D02*
X10170063Y-13728484D01*
X10170063Y-13728484D02*
X10151015Y-13738008D01*
X10151015Y-13738008D02*
X10141491Y-13747531D01*
X10141491Y-13747531D02*
X10131967Y-13766579D01*
X10131967Y-13766579D02*
X10131967Y-13814198D01*
X10131967Y-13814198D02*
X10141491Y-13833246D01*
X10141491Y-13833246D02*
X10151015Y-13842769D01*
X10151015Y-13842769D02*
X10170063Y-13852293D01*
X10170063Y-13852293D02*
X10208158Y-13852293D01*
X10208158Y-13852293D02*
X10227205Y-13842769D01*
X10227205Y-13842769D02*
X10236729Y-13833246D01*
X10236729Y-13833246D02*
X10246253Y-13814198D01*
X10427205Y-13728484D02*
X10331967Y-13728484D01*
X10331967Y-13728484D02*
X10322444Y-13823722D01*
X10322444Y-13823722D02*
X10331967Y-13814198D01*
X10331967Y-13814198D02*
X10351015Y-13804674D01*
X10351015Y-13804674D02*
X10398634Y-13804674D01*
X10398634Y-13804674D02*
X10417682Y-13814198D01*
X10417682Y-13814198D02*
X10427205Y-13823722D01*
X10427205Y-13823722D02*
X10436729Y-13842769D01*
X10436729Y-13842769D02*
X10436729Y-13890388D01*
X10436729Y-13890388D02*
X10427205Y-13909436D01*
X10427205Y-13909436D02*
X10417682Y-13918960D01*
X10417682Y-13918960D02*
X10398634Y-13928484D01*
X10398634Y-13928484D02*
X10351015Y-13928484D01*
X10351015Y-13928484D02*
X10331967Y-13918960D01*
X10331967Y-13918960D02*
X10322444Y-13909436D01*
X10560539Y-13728484D02*
X10579586Y-13728484D01*
X10579586Y-13728484D02*
X10598634Y-13738008D01*
X10598634Y-13738008D02*
X10608158Y-13747531D01*
X10608158Y-13747531D02*
X10617682Y-13766579D01*
X10617682Y-13766579D02*
X10627205Y-13804674D01*
X10627205Y-13804674D02*
X10627205Y-13852293D01*
X10627205Y-13852293D02*
X10617682Y-13890388D01*
X10617682Y-13890388D02*
X10608158Y-13909436D01*
X10608158Y-13909436D02*
X10598634Y-13918960D01*
X10598634Y-13918960D02*
X10579586Y-13928484D01*
X10579586Y-13928484D02*
X10560539Y-13928484D01*
X10560539Y-13928484D02*
X10541491Y-13918960D01*
X10541491Y-13918960D02*
X10531967Y-13909436D01*
X10531967Y-13909436D02*
X10522444Y-13890388D01*
X10522444Y-13890388D02*
X10512920Y-13852293D01*
X10512920Y-13852293D02*
X10512920Y-13804674D01*
X10512920Y-13804674D02*
X10522444Y-13766579D01*
X10522444Y-13766579D02*
X10531967Y-13747531D01*
X10531967Y-13747531D02*
X10541491Y-13738008D01*
X10541491Y-13738008D02*
X10560539Y-13728484D01*
X10712920Y-13928484D02*
X10712920Y-13795150D01*
X10712920Y-13814198D02*
X10722444Y-13804674D01*
X10722444Y-13804674D02*
X10741491Y-13795150D01*
X10741491Y-13795150D02*
X10770063Y-13795150D01*
X10770063Y-13795150D02*
X10789110Y-13804674D01*
X10789110Y-13804674D02*
X10798634Y-13823722D01*
X10798634Y-13823722D02*
X10798634Y-13928484D01*
X10798634Y-13823722D02*
X10808158Y-13804674D01*
X10808158Y-13804674D02*
X10827205Y-13795150D01*
X10827205Y-13795150D02*
X10855777Y-13795150D01*
X10855777Y-13795150D02*
X10874825Y-13804674D01*
X10874825Y-13804674D02*
X10884348Y-13823722D01*
X10884348Y-13823722D02*
X10884348Y-13928484D01*
X10979586Y-13928484D02*
X10979586Y-13795150D01*
X10979586Y-13814198D02*
X10989110Y-13804674D01*
X10989110Y-13804674D02*
X11008158Y-13795150D01*
X11008158Y-13795150D02*
X11036729Y-13795150D01*
X11036729Y-13795150D02*
X11055777Y-13804674D01*
X11055777Y-13804674D02*
X11065301Y-13823722D01*
X11065301Y-13823722D02*
X11065301Y-13928484D01*
X11065301Y-13823722D02*
X11074825Y-13804674D01*
X11074825Y-13804674D02*
X11093872Y-13795150D01*
X11093872Y-13795150D02*
X11122444Y-13795150D01*
X11122444Y-13795150D02*
X11141491Y-13804674D01*
X11141491Y-13804674D02*
X11151015Y-13823722D01*
X11151015Y-13823722D02*
X11151015Y-13928484D01*
X11541491Y-13718960D02*
X11370063Y-13976103D01*
X11798634Y-13728484D02*
X11817682Y-13728484D01*
X11817682Y-13728484D02*
X11836729Y-13738008D01*
X11836729Y-13738008D02*
X11846253Y-13747531D01*
X11846253Y-13747531D02*
X11855777Y-13766579D01*
X11855777Y-13766579D02*
X11865301Y-13804674D01*
X11865301Y-13804674D02*
X11865301Y-13852293D01*
X11865301Y-13852293D02*
X11855777Y-13890388D01*
X11855777Y-13890388D02*
X11846253Y-13909436D01*
X11846253Y-13909436D02*
X11836729Y-13918960D01*
X11836729Y-13918960D02*
X11817682Y-13928484D01*
X11817682Y-13928484D02*
X11798634Y-13928484D01*
X11798634Y-13928484D02*
X11779586Y-13918960D01*
X11779586Y-13918960D02*
X11770063Y-13909436D01*
X11770063Y-13909436D02*
X11760539Y-13890388D01*
X11760539Y-13890388D02*
X11751015Y-13852293D01*
X11751015Y-13852293D02*
X11751015Y-13804674D01*
X11751015Y-13804674D02*
X11760539Y-13766579D01*
X11760539Y-13766579D02*
X11770063Y-13747531D01*
X11770063Y-13747531D02*
X11779586Y-13738008D01*
X11779586Y-13738008D02*
X11798634Y-13728484D01*
X11951015Y-13909436D02*
X11960539Y-13918960D01*
X11960539Y-13918960D02*
X11951015Y-13928484D01*
X11951015Y-13928484D02*
X11941491Y-13918960D01*
X11941491Y-13918960D02*
X11951015Y-13909436D01*
X11951015Y-13909436D02*
X11951015Y-13928484D01*
X12084348Y-13728484D02*
X12103396Y-13728484D01*
X12103396Y-13728484D02*
X12122444Y-13738008D01*
X12122444Y-13738008D02*
X12131967Y-13747531D01*
X12131967Y-13747531D02*
X12141491Y-13766579D01*
X12141491Y-13766579D02*
X12151015Y-13804674D01*
X12151015Y-13804674D02*
X12151015Y-13852293D01*
X12151015Y-13852293D02*
X12141491Y-13890388D01*
X12141491Y-13890388D02*
X12131967Y-13909436D01*
X12131967Y-13909436D02*
X12122444Y-13918960D01*
X12122444Y-13918960D02*
X12103396Y-13928484D01*
X12103396Y-13928484D02*
X12084348Y-13928484D01*
X12084348Y-13928484D02*
X12065301Y-13918960D01*
X12065301Y-13918960D02*
X12055777Y-13909436D01*
X12055777Y-13909436D02*
X12046253Y-13890388D01*
X12046253Y-13890388D02*
X12036729Y-13852293D01*
X12036729Y-13852293D02*
X12036729Y-13804674D01*
X12036729Y-13804674D02*
X12046253Y-13766579D01*
X12046253Y-13766579D02*
X12055777Y-13747531D01*
X12055777Y-13747531D02*
X12065301Y-13738008D01*
X12065301Y-13738008D02*
X12084348Y-13728484D01*
X12217682Y-13728484D02*
X12341491Y-13728484D01*
X12341491Y-13728484D02*
X12274825Y-13804674D01*
X12274825Y-13804674D02*
X12303396Y-13804674D01*
X12303396Y-13804674D02*
X12322444Y-13814198D01*
X12322444Y-13814198D02*
X12331967Y-13823722D01*
X12331967Y-13823722D02*
X12341491Y-13842769D01*
X12341491Y-13842769D02*
X12341491Y-13890388D01*
X12341491Y-13890388D02*
X12331967Y-13909436D01*
X12331967Y-13909436D02*
X12322444Y-13918960D01*
X12322444Y-13918960D02*
X12303396Y-13928484D01*
X12303396Y-13928484D02*
X12246253Y-13928484D01*
X12246253Y-13928484D02*
X12227206Y-13918960D01*
X12227206Y-13918960D02*
X12217682Y-13909436D01*
X12408158Y-13728484D02*
X12541491Y-13728484D01*
X12541491Y-13728484D02*
X12455777Y-13928484D01*
X12703396Y-13795150D02*
X12703396Y-13928484D01*
X12655777Y-13718960D02*
X12608158Y-13861817D01*
X12608158Y-13861817D02*
X12731967Y-13861817D01*
X12798634Y-13728484D02*
X12798634Y-13766579D01*
X12874825Y-13728484D02*
X12874825Y-13766579D01*
X13170063Y-14004674D02*
X13160539Y-13995150D01*
X13160539Y-13995150D02*
X13141491Y-13966579D01*
X13141491Y-13966579D02*
X13131968Y-13947531D01*
X13131968Y-13947531D02*
X13122444Y-13918960D01*
X13122444Y-13918960D02*
X13112920Y-13871341D01*
X13112920Y-13871341D02*
X13112920Y-13833246D01*
X13112920Y-13833246D02*
X13122444Y-13785627D01*
X13122444Y-13785627D02*
X13131968Y-13757055D01*
X13131968Y-13757055D02*
X13141491Y-13738008D01*
X13141491Y-13738008D02*
X13160539Y-13709436D01*
X13160539Y-13709436D02*
X13170063Y-13699912D01*
X13331968Y-13795150D02*
X13331968Y-13928484D01*
X13284348Y-13718960D02*
X13236729Y-13861817D01*
X13236729Y-13861817D02*
X13360539Y-13861817D01*
X13589110Y-13928484D02*
X13589110Y-13728484D01*
X13674825Y-13928484D02*
X13674825Y-13823722D01*
X13674825Y-13823722D02*
X13665301Y-13804674D01*
X13665301Y-13804674D02*
X13646253Y-13795150D01*
X13646253Y-13795150D02*
X13617682Y-13795150D01*
X13617682Y-13795150D02*
X13598634Y-13804674D01*
X13598634Y-13804674D02*
X13589110Y-13814198D01*
X13798634Y-13928484D02*
X13779587Y-13918960D01*
X13779587Y-13918960D02*
X13770063Y-13909436D01*
X13770063Y-13909436D02*
X13760539Y-13890388D01*
X13760539Y-13890388D02*
X13760539Y-13833246D01*
X13760539Y-13833246D02*
X13770063Y-13814198D01*
X13770063Y-13814198D02*
X13779587Y-13804674D01*
X13779587Y-13804674D02*
X13798634Y-13795150D01*
X13798634Y-13795150D02*
X13827206Y-13795150D01*
X13827206Y-13795150D02*
X13846253Y-13804674D01*
X13846253Y-13804674D02*
X13855777Y-13814198D01*
X13855777Y-13814198D02*
X13865301Y-13833246D01*
X13865301Y-13833246D02*
X13865301Y-13890388D01*
X13865301Y-13890388D02*
X13855777Y-13909436D01*
X13855777Y-13909436D02*
X13846253Y-13918960D01*
X13846253Y-13918960D02*
X13827206Y-13928484D01*
X13827206Y-13928484D02*
X13798634Y-13928484D01*
X13979587Y-13928484D02*
X13960539Y-13918960D01*
X13960539Y-13918960D02*
X13951015Y-13899912D01*
X13951015Y-13899912D02*
X13951015Y-13728484D01*
X14131968Y-13918960D02*
X14112920Y-13928484D01*
X14112920Y-13928484D02*
X14074825Y-13928484D01*
X14074825Y-13928484D02*
X14055777Y-13918960D01*
X14055777Y-13918960D02*
X14046253Y-13899912D01*
X14046253Y-13899912D02*
X14046253Y-13823722D01*
X14046253Y-13823722D02*
X14055777Y-13804674D01*
X14055777Y-13804674D02*
X14074825Y-13795150D01*
X14074825Y-13795150D02*
X14112920Y-13795150D01*
X14112920Y-13795150D02*
X14131968Y-13804674D01*
X14131968Y-13804674D02*
X14141491Y-13823722D01*
X14141491Y-13823722D02*
X14141491Y-13842769D01*
X14141491Y-13842769D02*
X14046253Y-13861817D01*
X14217682Y-13918960D02*
X14236730Y-13928484D01*
X14236730Y-13928484D02*
X14274825Y-13928484D01*
X14274825Y-13928484D02*
X14293872Y-13918960D01*
X14293872Y-13918960D02*
X14303396Y-13899912D01*
X14303396Y-13899912D02*
X14303396Y-13890388D01*
X14303396Y-13890388D02*
X14293872Y-13871341D01*
X14293872Y-13871341D02*
X14274825Y-13861817D01*
X14274825Y-13861817D02*
X14246253Y-13861817D01*
X14246253Y-13861817D02*
X14227206Y-13852293D01*
X14227206Y-13852293D02*
X14217682Y-13833246D01*
X14217682Y-13833246D02*
X14217682Y-13823722D01*
X14217682Y-13823722D02*
X14227206Y-13804674D01*
X14227206Y-13804674D02*
X14246253Y-13795150D01*
X14246253Y-13795150D02*
X14274825Y-13795150D01*
X14274825Y-13795150D02*
X14293872Y-13804674D01*
X14370063Y-14004674D02*
X14379587Y-13995150D01*
X14379587Y-13995150D02*
X14398634Y-13966579D01*
X14398634Y-13966579D02*
X14408158Y-13947531D01*
X14408158Y-13947531D02*
X14417682Y-13918960D01*
X14417682Y-13918960D02*
X14427206Y-13871341D01*
X14427206Y-13871341D02*
X14427206Y-13833246D01*
X14427206Y-13833246D02*
X14417682Y-13785627D01*
X14417682Y-13785627D02*
X14408158Y-13757055D01*
X14408158Y-13757055D02*
X14398634Y-13738008D01*
X14398634Y-13738008D02*
X14379587Y-13709436D01*
X14379587Y-13709436D02*
X14370063Y-13699912D01*
D10*
X9545000Y-14151000D02*
X9595000Y-14101000D01*
X9545000Y-14051000D01*
X9495000Y-14101000D01*
X9545000Y-14151000D01*
D11*
X9960539Y-14192484D02*
X9846253Y-14192484D01*
X9903396Y-14192484D02*
X9903396Y-13992484D01*
X9903396Y-13992484D02*
X9884348Y-14021055D01*
X9884348Y-14021055D02*
X9865301Y-14040103D01*
X9865301Y-14040103D02*
X9846253Y-14049627D01*
X10046253Y-14173436D02*
X10055777Y-14182960D01*
X10055777Y-14182960D02*
X10046253Y-14192484D01*
X10046253Y-14192484D02*
X10036729Y-14182960D01*
X10036729Y-14182960D02*
X10046253Y-14173436D01*
X10046253Y-14173436D02*
X10046253Y-14192484D01*
X10179586Y-13992484D02*
X10198634Y-13992484D01*
X10198634Y-13992484D02*
X10217682Y-14002008D01*
X10217682Y-14002008D02*
X10227205Y-14011531D01*
X10227205Y-14011531D02*
X10236729Y-14030579D01*
X10236729Y-14030579D02*
X10246253Y-14068674D01*
X10246253Y-14068674D02*
X10246253Y-14116293D01*
X10246253Y-14116293D02*
X10236729Y-14154388D01*
X10236729Y-14154388D02*
X10227205Y-14173436D01*
X10227205Y-14173436D02*
X10217682Y-14182960D01*
X10217682Y-14182960D02*
X10198634Y-14192484D01*
X10198634Y-14192484D02*
X10179586Y-14192484D01*
X10179586Y-14192484D02*
X10160539Y-14182960D01*
X10160539Y-14182960D02*
X10151015Y-14173436D01*
X10151015Y-14173436D02*
X10141491Y-14154388D01*
X10141491Y-14154388D02*
X10131967Y-14116293D01*
X10131967Y-14116293D02*
X10131967Y-14068674D01*
X10131967Y-14068674D02*
X10141491Y-14030579D01*
X10141491Y-14030579D02*
X10151015Y-14011531D01*
X10151015Y-14011531D02*
X10160539Y-14002008D01*
X10160539Y-14002008D02*
X10179586Y-13992484D01*
X10370063Y-13992484D02*
X10389110Y-13992484D01*
X10389110Y-13992484D02*
X10408158Y-14002008D01*
X10408158Y-14002008D02*
X10417682Y-14011531D01*
X10417682Y-14011531D02*
X10427205Y-14030579D01*
X10427205Y-14030579D02*
X10436729Y-14068674D01*
X10436729Y-14068674D02*
X10436729Y-14116293D01*
X10436729Y-14116293D02*
X10427205Y-14154388D01*
X10427205Y-14154388D02*
X10417682Y-14173436D01*
X10417682Y-14173436D02*
X10408158Y-14182960D01*
X10408158Y-14182960D02*
X10389110Y-14192484D01*
X10389110Y-14192484D02*
X10370063Y-14192484D01*
X10370063Y-14192484D02*
X10351015Y-14182960D01*
X10351015Y-14182960D02*
X10341491Y-14173436D01*
X10341491Y-14173436D02*
X10331967Y-14154388D01*
X10331967Y-14154388D02*
X10322444Y-14116293D01*
X10322444Y-14116293D02*
X10322444Y-14068674D01*
X10322444Y-14068674D02*
X10331967Y-14030579D01*
X10331967Y-14030579D02*
X10341491Y-14011531D01*
X10341491Y-14011531D02*
X10351015Y-14002008D01*
X10351015Y-14002008D02*
X10370063Y-13992484D01*
X10560539Y-13992484D02*
X10579586Y-13992484D01*
X10579586Y-13992484D02*
X10598634Y-14002008D01*
X10598634Y-14002008D02*
X10608158Y-14011531D01*
X10608158Y-14011531D02*
X10617682Y-14030579D01*
X10617682Y-14030579D02*
X10627205Y-14068674D01*
X10627205Y-14068674D02*
X10627205Y-14116293D01*
X10627205Y-14116293D02*
X10617682Y-14154388D01*
X10617682Y-14154388D02*
X10608158Y-14173436D01*
X10608158Y-14173436D02*
X10598634Y-14182960D01*
X10598634Y-14182960D02*
X10579586Y-14192484D01*
X10579586Y-14192484D02*
X10560539Y-14192484D01*
X10560539Y-14192484D02*
X10541491Y-14182960D01*
X10541491Y-14182960D02*
X10531967Y-14173436D01*
X10531967Y-14173436D02*
X10522444Y-14154388D01*
X10522444Y-14154388D02*
X10512920Y-14116293D01*
X10512920Y-14116293D02*
X10512920Y-14068674D01*
X10512920Y-14068674D02*
X10522444Y-14030579D01*
X10522444Y-14030579D02*
X10531967Y-14011531D01*
X10531967Y-14011531D02*
X10541491Y-14002008D01*
X10541491Y-14002008D02*
X10560539Y-13992484D01*
X10712920Y-14192484D02*
X10712920Y-14059150D01*
X10712920Y-14078198D02*
X10722444Y-14068674D01*
X10722444Y-14068674D02*
X10741491Y-14059150D01*
X10741491Y-14059150D02*
X10770063Y-14059150D01*
X10770063Y-14059150D02*
X10789110Y-14068674D01*
X10789110Y-14068674D02*
X10798634Y-14087722D01*
X10798634Y-14087722D02*
X10798634Y-14192484D01*
X10798634Y-14087722D02*
X10808158Y-14068674D01*
X10808158Y-14068674D02*
X10827205Y-14059150D01*
X10827205Y-14059150D02*
X10855777Y-14059150D01*
X10855777Y-14059150D02*
X10874825Y-14068674D01*
X10874825Y-14068674D02*
X10884348Y-14087722D01*
X10884348Y-14087722D02*
X10884348Y-14192484D01*
X10979586Y-14192484D02*
X10979586Y-14059150D01*
X10979586Y-14078198D02*
X10989110Y-14068674D01*
X10989110Y-14068674D02*
X11008158Y-14059150D01*
X11008158Y-14059150D02*
X11036729Y-14059150D01*
X11036729Y-14059150D02*
X11055777Y-14068674D01*
X11055777Y-14068674D02*
X11065301Y-14087722D01*
X11065301Y-14087722D02*
X11065301Y-14192484D01*
X11065301Y-14087722D02*
X11074825Y-14068674D01*
X11074825Y-14068674D02*
X11093872Y-14059150D01*
X11093872Y-14059150D02*
X11122444Y-14059150D01*
X11122444Y-14059150D02*
X11141491Y-14068674D01*
X11141491Y-14068674D02*
X11151015Y-14087722D01*
X11151015Y-14087722D02*
X11151015Y-14192484D01*
X11541491Y-13982960D02*
X11370063Y-14240103D01*
X11798634Y-13992484D02*
X11817682Y-13992484D01*
X11817682Y-13992484D02*
X11836729Y-14002008D01*
X11836729Y-14002008D02*
X11846253Y-14011531D01*
X11846253Y-14011531D02*
X11855777Y-14030579D01*
X11855777Y-14030579D02*
X11865301Y-14068674D01*
X11865301Y-14068674D02*
X11865301Y-14116293D01*
X11865301Y-14116293D02*
X11855777Y-14154388D01*
X11855777Y-14154388D02*
X11846253Y-14173436D01*
X11846253Y-14173436D02*
X11836729Y-14182960D01*
X11836729Y-14182960D02*
X11817682Y-14192484D01*
X11817682Y-14192484D02*
X11798634Y-14192484D01*
X11798634Y-14192484D02*
X11779586Y-14182960D01*
X11779586Y-14182960D02*
X11770063Y-14173436D01*
X11770063Y-14173436D02*
X11760539Y-14154388D01*
X11760539Y-14154388D02*
X11751015Y-14116293D01*
X11751015Y-14116293D02*
X11751015Y-14068674D01*
X11751015Y-14068674D02*
X11760539Y-14030579D01*
X11760539Y-14030579D02*
X11770063Y-14011531D01*
X11770063Y-14011531D02*
X11779586Y-14002008D01*
X11779586Y-14002008D02*
X11798634Y-13992484D01*
X11951015Y-14173436D02*
X11960539Y-14182960D01*
X11960539Y-14182960D02*
X11951015Y-14192484D01*
X11951015Y-14192484D02*
X11941491Y-14182960D01*
X11941491Y-14182960D02*
X11951015Y-14173436D01*
X11951015Y-14173436D02*
X11951015Y-14192484D01*
X12084348Y-13992484D02*
X12103396Y-13992484D01*
X12103396Y-13992484D02*
X12122444Y-14002008D01*
X12122444Y-14002008D02*
X12131967Y-14011531D01*
X12131967Y-14011531D02*
X12141491Y-14030579D01*
X12141491Y-14030579D02*
X12151015Y-14068674D01*
X12151015Y-14068674D02*
X12151015Y-14116293D01*
X12151015Y-14116293D02*
X12141491Y-14154388D01*
X12141491Y-14154388D02*
X12131967Y-14173436D01*
X12131967Y-14173436D02*
X12122444Y-14182960D01*
X12122444Y-14182960D02*
X12103396Y-14192484D01*
X12103396Y-14192484D02*
X12084348Y-14192484D01*
X12084348Y-14192484D02*
X12065301Y-14182960D01*
X12065301Y-14182960D02*
X12055777Y-14173436D01*
X12055777Y-14173436D02*
X12046253Y-14154388D01*
X12046253Y-14154388D02*
X12036729Y-14116293D01*
X12036729Y-14116293D02*
X12036729Y-14068674D01*
X12036729Y-14068674D02*
X12046253Y-14030579D01*
X12046253Y-14030579D02*
X12055777Y-14011531D01*
X12055777Y-14011531D02*
X12065301Y-14002008D01*
X12065301Y-14002008D02*
X12084348Y-13992484D01*
X12217682Y-13992484D02*
X12341491Y-13992484D01*
X12341491Y-13992484D02*
X12274825Y-14068674D01*
X12274825Y-14068674D02*
X12303396Y-14068674D01*
X12303396Y-14068674D02*
X12322444Y-14078198D01*
X12322444Y-14078198D02*
X12331967Y-14087722D01*
X12331967Y-14087722D02*
X12341491Y-14106769D01*
X12341491Y-14106769D02*
X12341491Y-14154388D01*
X12341491Y-14154388D02*
X12331967Y-14173436D01*
X12331967Y-14173436D02*
X12322444Y-14182960D01*
X12322444Y-14182960D02*
X12303396Y-14192484D01*
X12303396Y-14192484D02*
X12246253Y-14192484D01*
X12246253Y-14192484D02*
X12227206Y-14182960D01*
X12227206Y-14182960D02*
X12217682Y-14173436D01*
X12436729Y-14192484D02*
X12474825Y-14192484D01*
X12474825Y-14192484D02*
X12493872Y-14182960D01*
X12493872Y-14182960D02*
X12503396Y-14173436D01*
X12503396Y-14173436D02*
X12522444Y-14144865D01*
X12522444Y-14144865D02*
X12531967Y-14106769D01*
X12531967Y-14106769D02*
X12531967Y-14030579D01*
X12531967Y-14030579D02*
X12522444Y-14011531D01*
X12522444Y-14011531D02*
X12512920Y-14002008D01*
X12512920Y-14002008D02*
X12493872Y-13992484D01*
X12493872Y-13992484D02*
X12455777Y-13992484D01*
X12455777Y-13992484D02*
X12436729Y-14002008D01*
X12436729Y-14002008D02*
X12427206Y-14011531D01*
X12427206Y-14011531D02*
X12417682Y-14030579D01*
X12417682Y-14030579D02*
X12417682Y-14078198D01*
X12417682Y-14078198D02*
X12427206Y-14097246D01*
X12427206Y-14097246D02*
X12436729Y-14106769D01*
X12436729Y-14106769D02*
X12455777Y-14116293D01*
X12455777Y-14116293D02*
X12493872Y-14116293D01*
X12493872Y-14116293D02*
X12512920Y-14106769D01*
X12512920Y-14106769D02*
X12522444Y-14097246D01*
X12522444Y-14097246D02*
X12531967Y-14078198D01*
X12703396Y-14059150D02*
X12703396Y-14192484D01*
X12655777Y-13982960D02*
X12608158Y-14125817D01*
X12608158Y-14125817D02*
X12731967Y-14125817D01*
X12798634Y-13992484D02*
X12798634Y-14030579D01*
X12874825Y-13992484D02*
X12874825Y-14030579D01*
X13170063Y-14268674D02*
X13160539Y-14259150D01*
X13160539Y-14259150D02*
X13141491Y-14230579D01*
X13141491Y-14230579D02*
X13131968Y-14211531D01*
X13131968Y-14211531D02*
X13122444Y-14182960D01*
X13122444Y-14182960D02*
X13112920Y-14135341D01*
X13112920Y-14135341D02*
X13112920Y-14097246D01*
X13112920Y-14097246D02*
X13122444Y-14049627D01*
X13122444Y-14049627D02*
X13131968Y-14021055D01*
X13131968Y-14021055D02*
X13141491Y-14002008D01*
X13141491Y-14002008D02*
X13160539Y-13973436D01*
X13160539Y-13973436D02*
X13170063Y-13963912D01*
X13236729Y-14011531D02*
X13246253Y-14002008D01*
X13246253Y-14002008D02*
X13265301Y-13992484D01*
X13265301Y-13992484D02*
X13312920Y-13992484D01*
X13312920Y-13992484D02*
X13331968Y-14002008D01*
X13331968Y-14002008D02*
X13341491Y-14011531D01*
X13341491Y-14011531D02*
X13351015Y-14030579D01*
X13351015Y-14030579D02*
X13351015Y-14049627D01*
X13351015Y-14049627D02*
X13341491Y-14078198D01*
X13341491Y-14078198D02*
X13227206Y-14192484D01*
X13227206Y-14192484D02*
X13351015Y-14192484D01*
X13589110Y-14192484D02*
X13589110Y-13992484D01*
X13674825Y-14192484D02*
X13674825Y-14087722D01*
X13674825Y-14087722D02*
X13665301Y-14068674D01*
X13665301Y-14068674D02*
X13646253Y-14059150D01*
X13646253Y-14059150D02*
X13617682Y-14059150D01*
X13617682Y-14059150D02*
X13598634Y-14068674D01*
X13598634Y-14068674D02*
X13589110Y-14078198D01*
X13798634Y-14192484D02*
X13779587Y-14182960D01*
X13779587Y-14182960D02*
X13770063Y-14173436D01*
X13770063Y-14173436D02*
X13760539Y-14154388D01*
X13760539Y-14154388D02*
X13760539Y-14097246D01*
X13760539Y-14097246D02*
X13770063Y-14078198D01*
X13770063Y-14078198D02*
X13779587Y-14068674D01*
X13779587Y-14068674D02*
X13798634Y-14059150D01*
X13798634Y-14059150D02*
X13827206Y-14059150D01*
X13827206Y-14059150D02*
X13846253Y-14068674D01*
X13846253Y-14068674D02*
X13855777Y-14078198D01*
X13855777Y-14078198D02*
X13865301Y-14097246D01*
X13865301Y-14097246D02*
X13865301Y-14154388D01*
X13865301Y-14154388D02*
X13855777Y-14173436D01*
X13855777Y-14173436D02*
X13846253Y-14182960D01*
X13846253Y-14182960D02*
X13827206Y-14192484D01*
X13827206Y-14192484D02*
X13798634Y-14192484D01*
X13979587Y-14192484D02*
X13960539Y-14182960D01*
X13960539Y-14182960D02*
X13951015Y-14163912D01*
X13951015Y-14163912D02*
X13951015Y-13992484D01*
X14131968Y-14182960D02*
X14112920Y-14192484D01*
X14112920Y-14192484D02*
X14074825Y-14192484D01*
X14074825Y-14192484D02*
X14055777Y-14182960D01*
X14055777Y-14182960D02*
X14046253Y-14163912D01*
X14046253Y-14163912D02*
X14046253Y-14087722D01*
X14046253Y-14087722D02*
X14055777Y-14068674D01*
X14055777Y-14068674D02*
X14074825Y-14059150D01*
X14074825Y-14059150D02*
X14112920Y-14059150D01*
X14112920Y-14059150D02*
X14131968Y-14068674D01*
X14131968Y-14068674D02*
X14141491Y-14087722D01*
X14141491Y-14087722D02*
X14141491Y-14106769D01*
X14141491Y-14106769D02*
X14046253Y-14125817D01*
X14217682Y-14182960D02*
X14236730Y-14192484D01*
X14236730Y-14192484D02*
X14274825Y-14192484D01*
X14274825Y-14192484D02*
X14293872Y-14182960D01*
X14293872Y-14182960D02*
X14303396Y-14163912D01*
X14303396Y-14163912D02*
X14303396Y-14154388D01*
X14303396Y-14154388D02*
X14293872Y-14135341D01*
X14293872Y-14135341D02*
X14274825Y-14125817D01*
X14274825Y-14125817D02*
X14246253Y-14125817D01*
X14246253Y-14125817D02*
X14227206Y-14116293D01*
X14227206Y-14116293D02*
X14217682Y-14097246D01*
X14217682Y-14097246D02*
X14217682Y-14087722D01*
X14217682Y-14087722D02*
X14227206Y-14068674D01*
X14227206Y-14068674D02*
X14246253Y-14059150D01*
X14246253Y-14059150D02*
X14274825Y-14059150D01*
X14274825Y-14059150D02*
X14293872Y-14068674D01*
X14370063Y-14268674D02*
X14379587Y-14259150D01*
X14379587Y-14259150D02*
X14398634Y-14230579D01*
X14398634Y-14230579D02*
X14408158Y-14211531D01*
X14408158Y-14211531D02*
X14417682Y-14182960D01*
X14417682Y-14182960D02*
X14427206Y-14135341D01*
X14427206Y-14135341D02*
X14427206Y-14097246D01*
X14427206Y-14097246D02*
X14417682Y-14049627D01*
X14417682Y-14049627D02*
X14408158Y-14021055D01*
X14408158Y-14021055D02*
X14398634Y-14002008D01*
X14398634Y-14002008D02*
X14379587Y-13973436D01*
X14379587Y-13973436D02*
X14370063Y-13963912D01*
X9395000Y-14265000D02*
X9595000Y-14465000D01*
X9595000Y-14265000D02*
X9395000Y-14465000D01*
X9595000Y-14365000D02*
G75*
G03*
X9395000Y-14365000I-100000J0D01*
G01*
X9395000Y-14365000D02*
G75*
G03*
X9595000Y-14365000I100000J0D01*
G01*
X9836729Y-14256484D02*
X9960539Y-14256484D01*
X9960539Y-14256484D02*
X9893872Y-14332674D01*
X9893872Y-14332674D02*
X9922444Y-14332674D01*
X9922444Y-14332674D02*
X9941491Y-14342198D01*
X9941491Y-14342198D02*
X9951015Y-14351722D01*
X9951015Y-14351722D02*
X9960539Y-14370769D01*
X9960539Y-14370769D02*
X9960539Y-14418388D01*
X9960539Y-14418388D02*
X9951015Y-14437436D01*
X9951015Y-14437436D02*
X9941491Y-14446960D01*
X9941491Y-14446960D02*
X9922444Y-14456484D01*
X9922444Y-14456484D02*
X9865301Y-14456484D01*
X9865301Y-14456484D02*
X9846253Y-14446960D01*
X9846253Y-14446960D02*
X9836729Y-14437436D01*
X10046253Y-14437436D02*
X10055777Y-14446960D01*
X10055777Y-14446960D02*
X10046253Y-14456484D01*
X10046253Y-14456484D02*
X10036729Y-14446960D01*
X10036729Y-14446960D02*
X10046253Y-14437436D01*
X10046253Y-14437436D02*
X10046253Y-14456484D01*
X10131967Y-14275531D02*
X10141491Y-14266008D01*
X10141491Y-14266008D02*
X10160539Y-14256484D01*
X10160539Y-14256484D02*
X10208158Y-14256484D01*
X10208158Y-14256484D02*
X10227205Y-14266008D01*
X10227205Y-14266008D02*
X10236729Y-14275531D01*
X10236729Y-14275531D02*
X10246253Y-14294579D01*
X10246253Y-14294579D02*
X10246253Y-14313627D01*
X10246253Y-14313627D02*
X10236729Y-14342198D01*
X10236729Y-14342198D02*
X10122444Y-14456484D01*
X10122444Y-14456484D02*
X10246253Y-14456484D01*
X10370063Y-14256484D02*
X10389110Y-14256484D01*
X10389110Y-14256484D02*
X10408158Y-14266008D01*
X10408158Y-14266008D02*
X10417682Y-14275531D01*
X10417682Y-14275531D02*
X10427205Y-14294579D01*
X10427205Y-14294579D02*
X10436729Y-14332674D01*
X10436729Y-14332674D02*
X10436729Y-14380293D01*
X10436729Y-14380293D02*
X10427205Y-14418388D01*
X10427205Y-14418388D02*
X10417682Y-14437436D01*
X10417682Y-14437436D02*
X10408158Y-14446960D01*
X10408158Y-14446960D02*
X10389110Y-14456484D01*
X10389110Y-14456484D02*
X10370063Y-14456484D01*
X10370063Y-14456484D02*
X10351015Y-14446960D01*
X10351015Y-14446960D02*
X10341491Y-14437436D01*
X10341491Y-14437436D02*
X10331967Y-14418388D01*
X10331967Y-14418388D02*
X10322444Y-14380293D01*
X10322444Y-14380293D02*
X10322444Y-14332674D01*
X10322444Y-14332674D02*
X10331967Y-14294579D01*
X10331967Y-14294579D02*
X10341491Y-14275531D01*
X10341491Y-14275531D02*
X10351015Y-14266008D01*
X10351015Y-14266008D02*
X10370063Y-14256484D01*
X10560539Y-14256484D02*
X10579586Y-14256484D01*
X10579586Y-14256484D02*
X10598634Y-14266008D01*
X10598634Y-14266008D02*
X10608158Y-14275531D01*
X10608158Y-14275531D02*
X10617682Y-14294579D01*
X10617682Y-14294579D02*
X10627205Y-14332674D01*
X10627205Y-14332674D02*
X10627205Y-14380293D01*
X10627205Y-14380293D02*
X10617682Y-14418388D01*
X10617682Y-14418388D02*
X10608158Y-14437436D01*
X10608158Y-14437436D02*
X10598634Y-14446960D01*
X10598634Y-14446960D02*
X10579586Y-14456484D01*
X10579586Y-14456484D02*
X10560539Y-14456484D01*
X10560539Y-14456484D02*
X10541491Y-14446960D01*
X10541491Y-14446960D02*
X10531967Y-14437436D01*
X10531967Y-14437436D02*
X10522444Y-14418388D01*
X10522444Y-14418388D02*
X10512920Y-14380293D01*
X10512920Y-14380293D02*
X10512920Y-14332674D01*
X10512920Y-14332674D02*
X10522444Y-14294579D01*
X10522444Y-14294579D02*
X10531967Y-14275531D01*
X10531967Y-14275531D02*
X10541491Y-14266008D01*
X10541491Y-14266008D02*
X10560539Y-14256484D01*
X10712920Y-14456484D02*
X10712920Y-14323150D01*
X10712920Y-14342198D02*
X10722444Y-14332674D01*
X10722444Y-14332674D02*
X10741491Y-14323150D01*
X10741491Y-14323150D02*
X10770063Y-14323150D01*
X10770063Y-14323150D02*
X10789110Y-14332674D01*
X10789110Y-14332674D02*
X10798634Y-14351722D01*
X10798634Y-14351722D02*
X10798634Y-14456484D01*
X10798634Y-14351722D02*
X10808158Y-14332674D01*
X10808158Y-14332674D02*
X10827205Y-14323150D01*
X10827205Y-14323150D02*
X10855777Y-14323150D01*
X10855777Y-14323150D02*
X10874825Y-14332674D01*
X10874825Y-14332674D02*
X10884348Y-14351722D01*
X10884348Y-14351722D02*
X10884348Y-14456484D01*
X10979586Y-14456484D02*
X10979586Y-14323150D01*
X10979586Y-14342198D02*
X10989110Y-14332674D01*
X10989110Y-14332674D02*
X11008158Y-14323150D01*
X11008158Y-14323150D02*
X11036729Y-14323150D01*
X11036729Y-14323150D02*
X11055777Y-14332674D01*
X11055777Y-14332674D02*
X11065301Y-14351722D01*
X11065301Y-14351722D02*
X11065301Y-14456484D01*
X11065301Y-14351722D02*
X11074825Y-14332674D01*
X11074825Y-14332674D02*
X11093872Y-14323150D01*
X11093872Y-14323150D02*
X11122444Y-14323150D01*
X11122444Y-14323150D02*
X11141491Y-14332674D01*
X11141491Y-14332674D02*
X11151015Y-14351722D01*
X11151015Y-14351722D02*
X11151015Y-14456484D01*
X11541491Y-14246960D02*
X11370063Y-14504103D01*
X11798634Y-14256484D02*
X11817682Y-14256484D01*
X11817682Y-14256484D02*
X11836729Y-14266008D01*
X11836729Y-14266008D02*
X11846253Y-14275531D01*
X11846253Y-14275531D02*
X11855777Y-14294579D01*
X11855777Y-14294579D02*
X11865301Y-14332674D01*
X11865301Y-14332674D02*
X11865301Y-14380293D01*
X11865301Y-14380293D02*
X11855777Y-14418388D01*
X11855777Y-14418388D02*
X11846253Y-14437436D01*
X11846253Y-14437436D02*
X11836729Y-14446960D01*
X11836729Y-14446960D02*
X11817682Y-14456484D01*
X11817682Y-14456484D02*
X11798634Y-14456484D01*
X11798634Y-14456484D02*
X11779586Y-14446960D01*
X11779586Y-14446960D02*
X11770063Y-14437436D01*
X11770063Y-14437436D02*
X11760539Y-14418388D01*
X11760539Y-14418388D02*
X11751015Y-14380293D01*
X11751015Y-14380293D02*
X11751015Y-14332674D01*
X11751015Y-14332674D02*
X11760539Y-14294579D01*
X11760539Y-14294579D02*
X11770063Y-14275531D01*
X11770063Y-14275531D02*
X11779586Y-14266008D01*
X11779586Y-14266008D02*
X11798634Y-14256484D01*
X11951015Y-14437436D02*
X11960539Y-14446960D01*
X11960539Y-14446960D02*
X11951015Y-14456484D01*
X11951015Y-14456484D02*
X11941491Y-14446960D01*
X11941491Y-14446960D02*
X11951015Y-14437436D01*
X11951015Y-14437436D02*
X11951015Y-14456484D01*
X12151015Y-14456484D02*
X12036729Y-14456484D01*
X12093872Y-14456484D02*
X12093872Y-14256484D01*
X12093872Y-14256484D02*
X12074825Y-14285055D01*
X12074825Y-14285055D02*
X12055777Y-14304103D01*
X12055777Y-14304103D02*
X12036729Y-14313627D01*
X12227206Y-14275531D02*
X12236729Y-14266008D01*
X12236729Y-14266008D02*
X12255777Y-14256484D01*
X12255777Y-14256484D02*
X12303396Y-14256484D01*
X12303396Y-14256484D02*
X12322444Y-14266008D01*
X12322444Y-14266008D02*
X12331967Y-14275531D01*
X12331967Y-14275531D02*
X12341491Y-14294579D01*
X12341491Y-14294579D02*
X12341491Y-14313627D01*
X12341491Y-14313627D02*
X12331967Y-14342198D01*
X12331967Y-14342198D02*
X12217682Y-14456484D01*
X12217682Y-14456484D02*
X12341491Y-14456484D01*
X12512920Y-14256484D02*
X12474825Y-14256484D01*
X12474825Y-14256484D02*
X12455777Y-14266008D01*
X12455777Y-14266008D02*
X12446253Y-14275531D01*
X12446253Y-14275531D02*
X12427206Y-14304103D01*
X12427206Y-14304103D02*
X12417682Y-14342198D01*
X12417682Y-14342198D02*
X12417682Y-14418388D01*
X12417682Y-14418388D02*
X12427206Y-14437436D01*
X12427206Y-14437436D02*
X12436729Y-14446960D01*
X12436729Y-14446960D02*
X12455777Y-14456484D01*
X12455777Y-14456484D02*
X12493872Y-14456484D01*
X12493872Y-14456484D02*
X12512920Y-14446960D01*
X12512920Y-14446960D02*
X12522444Y-14437436D01*
X12522444Y-14437436D02*
X12531967Y-14418388D01*
X12531967Y-14418388D02*
X12531967Y-14370769D01*
X12531967Y-14370769D02*
X12522444Y-14351722D01*
X12522444Y-14351722D02*
X12512920Y-14342198D01*
X12512920Y-14342198D02*
X12493872Y-14332674D01*
X12493872Y-14332674D02*
X12455777Y-14332674D01*
X12455777Y-14332674D02*
X12436729Y-14342198D01*
X12436729Y-14342198D02*
X12427206Y-14351722D01*
X12427206Y-14351722D02*
X12417682Y-14370769D01*
X12655777Y-14256484D02*
X12674825Y-14256484D01*
X12674825Y-14256484D02*
X12693872Y-14266008D01*
X12693872Y-14266008D02*
X12703396Y-14275531D01*
X12703396Y-14275531D02*
X12712920Y-14294579D01*
X12712920Y-14294579D02*
X12722444Y-14332674D01*
X12722444Y-14332674D02*
X12722444Y-14380293D01*
X12722444Y-14380293D02*
X12712920Y-14418388D01*
X12712920Y-14418388D02*
X12703396Y-14437436D01*
X12703396Y-14437436D02*
X12693872Y-14446960D01*
X12693872Y-14446960D02*
X12674825Y-14456484D01*
X12674825Y-14456484D02*
X12655777Y-14456484D01*
X12655777Y-14456484D02*
X12636729Y-14446960D01*
X12636729Y-14446960D02*
X12627206Y-14437436D01*
X12627206Y-14437436D02*
X12617682Y-14418388D01*
X12617682Y-14418388D02*
X12608158Y-14380293D01*
X12608158Y-14380293D02*
X12608158Y-14332674D01*
X12608158Y-14332674D02*
X12617682Y-14294579D01*
X12617682Y-14294579D02*
X12627206Y-14275531D01*
X12627206Y-14275531D02*
X12636729Y-14266008D01*
X12636729Y-14266008D02*
X12655777Y-14256484D01*
X12798634Y-14256484D02*
X12798634Y-14294579D01*
X12874825Y-14256484D02*
X12874825Y-14294579D01*
X13170063Y-14532674D02*
X13160539Y-14523150D01*
X13160539Y-14523150D02*
X13141491Y-14494579D01*
X13141491Y-14494579D02*
X13131968Y-14475531D01*
X13131968Y-14475531D02*
X13122444Y-14446960D01*
X13122444Y-14446960D02*
X13112920Y-14399341D01*
X13112920Y-14399341D02*
X13112920Y-14361246D01*
X13112920Y-14361246D02*
X13122444Y-14313627D01*
X13122444Y-14313627D02*
X13131968Y-14285055D01*
X13131968Y-14285055D02*
X13141491Y-14266008D01*
X13141491Y-14266008D02*
X13160539Y-14237436D01*
X13160539Y-14237436D02*
X13170063Y-14227912D01*
X13331968Y-14323150D02*
X13331968Y-14456484D01*
X13284348Y-14246960D02*
X13236729Y-14389817D01*
X13236729Y-14389817D02*
X13360539Y-14389817D01*
X13589110Y-14456484D02*
X13589110Y-14256484D01*
X13674825Y-14456484D02*
X13674825Y-14351722D01*
X13674825Y-14351722D02*
X13665301Y-14332674D01*
X13665301Y-14332674D02*
X13646253Y-14323150D01*
X13646253Y-14323150D02*
X13617682Y-14323150D01*
X13617682Y-14323150D02*
X13598634Y-14332674D01*
X13598634Y-14332674D02*
X13589110Y-14342198D01*
X13798634Y-14456484D02*
X13779587Y-14446960D01*
X13779587Y-14446960D02*
X13770063Y-14437436D01*
X13770063Y-14437436D02*
X13760539Y-14418388D01*
X13760539Y-14418388D02*
X13760539Y-14361246D01*
X13760539Y-14361246D02*
X13770063Y-14342198D01*
X13770063Y-14342198D02*
X13779587Y-14332674D01*
X13779587Y-14332674D02*
X13798634Y-14323150D01*
X13798634Y-14323150D02*
X13827206Y-14323150D01*
X13827206Y-14323150D02*
X13846253Y-14332674D01*
X13846253Y-14332674D02*
X13855777Y-14342198D01*
X13855777Y-14342198D02*
X13865301Y-14361246D01*
X13865301Y-14361246D02*
X13865301Y-14418388D01*
X13865301Y-14418388D02*
X13855777Y-14437436D01*
X13855777Y-14437436D02*
X13846253Y-14446960D01*
X13846253Y-14446960D02*
X13827206Y-14456484D01*
X13827206Y-14456484D02*
X13798634Y-14456484D01*
X13979587Y-14456484D02*
X13960539Y-14446960D01*
X13960539Y-14446960D02*
X13951015Y-14427912D01*
X13951015Y-14427912D02*
X13951015Y-14256484D01*
X14131968Y-14446960D02*
X14112920Y-14456484D01*
X14112920Y-14456484D02*
X14074825Y-14456484D01*
X14074825Y-14456484D02*
X14055777Y-14446960D01*
X14055777Y-14446960D02*
X14046253Y-14427912D01*
X14046253Y-14427912D02*
X14046253Y-14351722D01*
X14046253Y-14351722D02*
X14055777Y-14332674D01*
X14055777Y-14332674D02*
X14074825Y-14323150D01*
X14074825Y-14323150D02*
X14112920Y-14323150D01*
X14112920Y-14323150D02*
X14131968Y-14332674D01*
X14131968Y-14332674D02*
X14141491Y-14351722D01*
X14141491Y-14351722D02*
X14141491Y-14370769D01*
X14141491Y-14370769D02*
X14046253Y-14389817D01*
X14217682Y-14446960D02*
X14236730Y-14456484D01*
X14236730Y-14456484D02*
X14274825Y-14456484D01*
X14274825Y-14456484D02*
X14293872Y-14446960D01*
X14293872Y-14446960D02*
X14303396Y-14427912D01*
X14303396Y-14427912D02*
X14303396Y-14418388D01*
X14303396Y-14418388D02*
X14293872Y-14399341D01*
X14293872Y-14399341D02*
X14274825Y-14389817D01*
X14274825Y-14389817D02*
X14246253Y-14389817D01*
X14246253Y-14389817D02*
X14227206Y-14380293D01*
X14227206Y-14380293D02*
X14217682Y-14361246D01*
X14217682Y-14361246D02*
X14217682Y-14351722D01*
X14217682Y-14351722D02*
X14227206Y-14332674D01*
X14227206Y-14332674D02*
X14246253Y-14323150D01*
X14246253Y-14323150D02*
X14274825Y-14323150D01*
X14274825Y-14323150D02*
X14293872Y-14332674D01*
X14370063Y-14532674D02*
X14379587Y-14523150D01*
X14379587Y-14523150D02*
X14398634Y-14494579D01*
X14398634Y-14494579D02*
X14408158Y-14475531D01*
X14408158Y-14475531D02*
X14417682Y-14446960D01*
X14417682Y-14446960D02*
X14427206Y-14399341D01*
X14427206Y-14399341D02*
X14427206Y-14361246D01*
X14427206Y-14361246D02*
X14417682Y-14313627D01*
X14417682Y-14313627D02*
X14408158Y-14285055D01*
X14408158Y-14285055D02*
X14398634Y-14266008D01*
X14398634Y-14266008D02*
X14379587Y-14237436D01*
X14379587Y-14237436D02*
X14370063Y-14227912D01*
M02*
