%TF.GenerationSoftware,KiCad,Pcbnew,7.0.10*%
%TF.CreationDate,2024-02-04T10:39:00+08:00*%
%TF.ProjectId,42stepmotor,34327374-6570-46d6-9f74-6f722e6b6963,rev?*%
%TF.SameCoordinates,Original*%
%TF.FileFunction,Soldermask,Bot*%
%TF.FilePolarity,Negative*%
%FSLAX46Y46*%
G04 Gerber Fmt 4.6, Leading zero omitted, Abs format (unit mm)*
G04 Created by KiCad (PCBNEW 7.0.10) date 2024-02-04 10:39:00*
%MOMM*%
%LPD*%
G01*
G04 APERTURE LIST*
G04 Aperture macros list*
%AMRoundRect*
0 Rectangle with rounded corners*
0 $1 Rounding radius*
0 $2 $3 $4 $5 $6 $7 $8 $9 X,Y pos of 4 corners*
0 Add a 4 corners polygon primitive as box body*
4,1,4,$2,$3,$4,$5,$6,$7,$8,$9,$2,$3,0*
0 Add four circle primitives for the rounded corners*
1,1,$1+$1,$2,$3*
1,1,$1+$1,$4,$5*
1,1,$1+$1,$6,$7*
1,1,$1+$1,$8,$9*
0 Add four rect primitives between the rounded corners*
20,1,$1+$1,$2,$3,$4,$5,0*
20,1,$1+$1,$4,$5,$6,$7,0*
20,1,$1+$1,$6,$7,$8,$9,0*
20,1,$1+$1,$8,$9,$2,$3,0*%
G04 Aperture macros list end*
%ADD10RoundRect,0.250000X0.725000X-0.600000X0.725000X0.600000X-0.725000X0.600000X-0.725000X-0.600000X0*%
%ADD11O,1.950000X1.700000*%
%ADD12O,1.700000X2.000000*%
%ADD13RoundRect,0.250000X0.600000X0.750000X-0.600000X0.750000X-0.600000X-0.750000X0.600000X-0.750000X0*%
%ADD14C,0.650000*%
%ADD15O,2.100000X1.000000*%
%ADD16O,1.600000X1.000000*%
%ADD17C,0.800000*%
%ADD18C,6.400000*%
%ADD19RoundRect,0.150000X0.725000X0.150000X-0.725000X0.150000X-0.725000X-0.150000X0.725000X-0.150000X0*%
%ADD20RoundRect,0.225000X0.225000X0.250000X-0.225000X0.250000X-0.225000X-0.250000X0.225000X-0.250000X0*%
G04 APERTURE END LIST*
D10*
%TO.C,E2*%
X127400000Y-108200000D03*
D11*
X127400000Y-105700000D03*
X127400000Y-103200000D03*
X127400000Y-100700000D03*
%TD*%
D12*
%TO.C,J1*%
X108650000Y-92750000D03*
D13*
X111150000Y-92750000D03*
%TD*%
D14*
%TO.C,J2*%
X100940000Y-107710000D03*
X100940000Y-113490000D03*
D15*
X101470000Y-106280000D03*
D16*
X97290000Y-106280000D03*
D15*
X101470000Y-114920000D03*
D16*
X97290000Y-114920000D03*
%TD*%
D17*
%TO.C,H3*%
X128600000Y-89000000D03*
X129302944Y-87302944D03*
X129302944Y-90697056D03*
X131000000Y-86600000D03*
D18*
X131000000Y-89000000D03*
D17*
X131000000Y-91400000D03*
X132697056Y-87302944D03*
X132697056Y-90697056D03*
X133400000Y-89000000D03*
%TD*%
%TO.C,H2*%
X97600000Y-120000000D03*
X98302944Y-118302944D03*
X98302944Y-121697056D03*
X100000000Y-117600000D03*
D18*
X100000000Y-120000000D03*
D17*
X100000000Y-122400000D03*
X101697056Y-118302944D03*
X101697056Y-121697056D03*
X102400000Y-120000000D03*
%TD*%
%TO.C,H4*%
X97600000Y-89000000D03*
X98302944Y-87302944D03*
X98302944Y-90697056D03*
X100000000Y-86600000D03*
D18*
X100000000Y-89000000D03*
D17*
X100000000Y-91400000D03*
X101697056Y-87302944D03*
X101697056Y-90697056D03*
X102400000Y-89000000D03*
%TD*%
%TO.C,H1*%
X128600000Y-120000000D03*
X129302944Y-118302944D03*
X129302944Y-121697056D03*
X131000000Y-117600000D03*
D18*
X131000000Y-120000000D03*
D17*
X131000000Y-122400000D03*
X132697056Y-118302944D03*
X132697056Y-121697056D03*
X133400000Y-120000000D03*
%TD*%
D19*
%TO.C,U2*%
X118075000Y-102595000D03*
X118075000Y-103865000D03*
X118075000Y-105135000D03*
X118075000Y-106405000D03*
X112925000Y-106405000D03*
X112925000Y-105135000D03*
X112925000Y-103865000D03*
X112925000Y-102595000D03*
%TD*%
D20*
%TO.C,C14*%
X114725000Y-101000000D03*
X116275000Y-101000000D03*
%TD*%
M02*
