%TF.GenerationSoftware,KiCad,Pcbnew,7.0.10*%
%TF.CreationDate,2024-02-04T10:39:00+08:00*%
%TF.ProjectId,42stepmotor,34327374-6570-46d6-9f74-6f722e6b6963,rev?*%
%TF.SameCoordinates,Original*%
%TF.FileFunction,Legend,Top*%
%TF.FilePolarity,Positive*%
%FSLAX46Y46*%
G04 Gerber Fmt 4.6, Leading zero omitted, Abs format (unit mm)*
G04 Created by KiCad (PCBNEW 7.0.10) date 2024-02-04 10:39:00*
%MOMM*%
%LPD*%
G01*
G04 APERTURE LIST*
%ADD10C,0.150000*%
%ADD11C,0.120000*%
%ADD12C,0.025400*%
%ADD13C,0.152400*%
G04 APERTURE END LIST*
D10*
X119990455Y-91455579D02*
X119990455Y-92265102D01*
X119990455Y-92265102D02*
X120038074Y-92360340D01*
X120038074Y-92360340D02*
X120085693Y-92407960D01*
X120085693Y-92407960D02*
X120180931Y-92455579D01*
X120180931Y-92455579D02*
X120371407Y-92455579D01*
X120371407Y-92455579D02*
X120466645Y-92407960D01*
X120466645Y-92407960D02*
X120514264Y-92360340D01*
X120514264Y-92360340D02*
X120561883Y-92265102D01*
X120561883Y-92265102D02*
X120561883Y-91455579D01*
X121514264Y-91455579D02*
X121038074Y-91455579D01*
X121038074Y-91455579D02*
X120990455Y-91931769D01*
X120990455Y-91931769D02*
X121038074Y-91884150D01*
X121038074Y-91884150D02*
X121133312Y-91836531D01*
X121133312Y-91836531D02*
X121371407Y-91836531D01*
X121371407Y-91836531D02*
X121466645Y-91884150D01*
X121466645Y-91884150D02*
X121514264Y-91931769D01*
X121514264Y-91931769D02*
X121561883Y-92027007D01*
X121561883Y-92027007D02*
X121561883Y-92265102D01*
X121561883Y-92265102D02*
X121514264Y-92360340D01*
X121514264Y-92360340D02*
X121466645Y-92407960D01*
X121466645Y-92407960D02*
X121371407Y-92455579D01*
X121371407Y-92455579D02*
X121133312Y-92455579D01*
X121133312Y-92455579D02*
X121038074Y-92407960D01*
X121038074Y-92407960D02*
X120990455Y-92360340D01*
D11*
%TO.C,E2*%
X123390000Y-110760000D02*
X123390000Y-109340000D01*
X135110000Y-110760000D02*
X123390000Y-110760000D01*
X123390000Y-109340000D02*
X127890000Y-109340000D01*
X125300000Y-108500000D02*
X125300000Y-107900000D01*
X129000000Y-108450000D02*
X134500000Y-108450000D01*
X134500000Y-108450000D02*
X134500000Y-107950000D01*
X125900000Y-108200000D02*
X125300000Y-108500000D01*
X129000000Y-107950000D02*
X129000000Y-108450000D01*
X134500000Y-107950000D02*
X129000000Y-107950000D01*
X125300000Y-107900000D02*
X125900000Y-108200000D01*
X129000000Y-105950000D02*
X134500000Y-105950000D01*
X134500000Y-105950000D02*
X134500000Y-105450000D01*
X129000000Y-105450000D02*
X129000000Y-105950000D01*
X134500000Y-105450000D02*
X129000000Y-105450000D01*
X135110000Y-104450000D02*
X135110000Y-110760000D01*
X135110000Y-104450000D02*
X135110000Y-98140000D01*
X129000000Y-103450000D02*
X134500000Y-103450000D01*
X134500000Y-103450000D02*
X134500000Y-102950000D01*
X129000000Y-102950000D02*
X129000000Y-103450000D01*
X134500000Y-102950000D02*
X129000000Y-102950000D01*
X129000000Y-100950000D02*
X134500000Y-100950000D01*
X134500000Y-100950000D02*
X134500000Y-100450000D01*
X129000000Y-100450000D02*
X129000000Y-100950000D01*
X134500000Y-100450000D02*
X129000000Y-100450000D01*
X123390000Y-99560000D02*
X127890000Y-99560000D01*
X123390000Y-98140000D02*
X123390000Y-99560000D01*
X135110000Y-98140000D02*
X123390000Y-98140000D01*
%TO.C,C7*%
X107807836Y-107560000D02*
X107592164Y-107560000D01*
X107807836Y-106840000D02*
X107592164Y-106840000D01*
%TO.C,J1*%
X106090000Y-96760000D02*
X107510000Y-96760000D01*
X111150000Y-94250000D02*
X111450000Y-94850000D01*
X108900000Y-91150000D02*
X108900000Y-85650000D01*
X113710000Y-85040000D02*
X113710000Y-96760000D01*
X110900000Y-91150000D02*
X111400000Y-91150000D01*
X108400000Y-85650000D02*
X108400000Y-91150000D01*
X107510000Y-96760000D02*
X107510000Y-92260000D01*
X106090000Y-85040000D02*
X106090000Y-96760000D01*
X110900000Y-85650000D02*
X110900000Y-91150000D01*
X110850000Y-94850000D02*
X111150000Y-94250000D01*
X108400000Y-91150000D02*
X108900000Y-91150000D01*
X111450000Y-94850000D02*
X110850000Y-94850000D01*
X112290000Y-96760000D02*
X112290000Y-92260000D01*
X111400000Y-85650000D02*
X110900000Y-85650000D01*
X111400000Y-91150000D02*
X111400000Y-85650000D01*
X108900000Y-85650000D02*
X108400000Y-85650000D01*
X109900000Y-85040000D02*
X106090000Y-85040000D01*
X113710000Y-96760000D02*
X112290000Y-96760000D01*
X109900000Y-85040000D02*
X113710000Y-85040000D01*
%TO.C,D2*%
X103025000Y-93590000D02*
X100740000Y-93590000D01*
X100740000Y-95060000D02*
X103025000Y-95060000D01*
X100740000Y-93590000D02*
X100740000Y-95060000D01*
%TO.C,J2*%
X100240000Y-105900000D02*
X98240000Y-105900000D01*
X96340000Y-105900000D02*
X94440000Y-105900000D01*
X94440000Y-105900000D02*
X94440000Y-115300000D01*
X100240000Y-115300000D02*
X98240000Y-115300000D01*
X96340000Y-115300000D02*
X94440000Y-115300000D01*
%TO.C,C9*%
X121007930Y-88608510D02*
X121289090Y-88608510D01*
X121007930Y-87588510D02*
X121289090Y-87588510D01*
%TO.C,C11*%
X125140000Y-90959420D02*
X125140000Y-91240580D01*
X126160000Y-90959420D02*
X126160000Y-91240580D01*
%TO.C,U5*%
D12*
X117541160Y-93192020D02*
X117287160Y-93192020D01*
X117287160Y-92811019D01*
X117541160Y-92811019D01*
X117541160Y-93192020D01*
G36*
X117541160Y-93192020D02*
G01*
X117287160Y-93192020D01*
X117287160Y-92811019D01*
X117541160Y-92811019D01*
X117541160Y-93192020D01*
G37*
X121341641Y-88891160D02*
X120960641Y-88891160D01*
X120960641Y-88637160D01*
X121341641Y-88637160D01*
X121341641Y-88891160D01*
G36*
X121341641Y-88891160D02*
G01*
X120960641Y-88891160D01*
X120960641Y-88637160D01*
X121341641Y-88637160D01*
X121341641Y-88891160D01*
G37*
D13*
X117755160Y-89105160D02*
X117755160Y-90019560D01*
X117755160Y-93981960D02*
X117755160Y-94896360D01*
X117755160Y-94896360D02*
X118669560Y-94896360D01*
X118669560Y-89105160D02*
X117755160Y-89105160D01*
X122631960Y-94896360D02*
X123546360Y-94896360D01*
X123546360Y-89105160D02*
X122631960Y-89105160D01*
X123546360Y-90019560D02*
X123546360Y-89105160D01*
X123546360Y-94896360D02*
X123546360Y-93981960D01*
D11*
%TO.C,C12*%
X125140000Y-94109420D02*
X125140000Y-94390580D01*
X126160000Y-94109420D02*
X126160000Y-94390580D01*
%TO.C,CANT_C2*%
X111797836Y-116110000D02*
X111582164Y-116110000D01*
X111797836Y-116830000D02*
X111582164Y-116830000D01*
%TO.C,C4*%
X106560000Y-100136252D02*
X106560000Y-99613748D01*
X105090000Y-100136252D02*
X105090000Y-99613748D01*
%TO.C,R2*%
X98312742Y-94847500D02*
X98787258Y-94847500D01*
X98312742Y-93802500D02*
X98787258Y-93802500D01*
%TO.C,C3*%
X105560000Y-113207836D02*
X105560000Y-112992164D01*
X104840000Y-113207836D02*
X104840000Y-112992164D01*
%TO.C,C2*%
X102084420Y-96435000D02*
X102365580Y-96435000D01*
X102084420Y-95415000D02*
X102365580Y-95415000D01*
%TO.C,SW1*%
X116400000Y-119450000D02*
X116100000Y-119450000D01*
X113600000Y-119450000D02*
X113900000Y-119450000D01*
X116400000Y-122750000D02*
X116400000Y-119450000D01*
X116100000Y-122750000D02*
X116400000Y-122750000D01*
X113900000Y-122750000D02*
X113600000Y-122750000D01*
X113600000Y-122750000D02*
X113600000Y-119450000D01*
%TO.C,ANT_C1*%
X111707836Y-119110000D02*
X111492164Y-119110000D01*
X111707836Y-119830000D02*
X111492164Y-119830000D01*
%TO.C,R11*%
X105147500Y-95362258D02*
X105147500Y-94887742D01*
X104102500Y-95362258D02*
X104102500Y-94887742D01*
%TO.C,U1*%
X104852500Y-108340000D02*
X105327500Y-108340000D01*
X108072500Y-108815000D02*
X108072500Y-108340000D01*
X104852500Y-108815000D02*
X104852500Y-108340000D01*
X108072500Y-111085000D02*
X108072500Y-111560000D01*
X104852500Y-111085000D02*
X104852500Y-111560000D01*
X108072500Y-111560000D02*
X107597500Y-111560000D01*
X104852500Y-111560000D02*
X105327500Y-111560000D01*
%TO.C,R4*%
X113546359Y-116880000D02*
X113853641Y-116880000D01*
X113546359Y-116120000D02*
X113853641Y-116120000D01*
%TO.C,R1*%
X101987742Y-98047500D02*
X102462258Y-98047500D01*
X101987742Y-97002500D02*
X102462258Y-97002500D01*
%TO.C,U4*%
X97165000Y-97275000D02*
X97165000Y-98075000D01*
X97165000Y-97275000D02*
X97165000Y-96475000D01*
X100285000Y-97275000D02*
X100285000Y-98075000D01*
X100285000Y-97275000D02*
X100285000Y-95475000D01*
%TO.C,R3*%
X98287742Y-100747500D02*
X98762258Y-100747500D01*
X98287742Y-99702500D02*
X98762258Y-99702500D01*
%TO.C,L1*%
X100165000Y-104785000D02*
X100315000Y-104785000D01*
X104685000Y-104785000D02*
X104535000Y-104785000D01*
X100165000Y-100265000D02*
X100165000Y-104785000D01*
X100165000Y-100265000D02*
X100315000Y-100265000D01*
X104685000Y-100265000D02*
X104685000Y-104785000D01*
X104685000Y-100265000D02*
X104535000Y-100265000D01*
%TO.C,R9*%
X116471010Y-92735768D02*
X116471010Y-92261252D01*
X115426010Y-92735768D02*
X115426010Y-92261252D01*
%TO.C,C13*%
X118189090Y-87588510D02*
X117907930Y-87588510D01*
X118189090Y-88608510D02*
X117907930Y-88608510D01*
%TO.C,C1*%
X102365580Y-98615000D02*
X102084420Y-98615000D01*
X102365580Y-99635000D02*
X102084420Y-99635000D01*
%TO.C,C5*%
X98586252Y-101290000D02*
X98063748Y-101290000D01*
X98586252Y-102760000D02*
X98063748Y-102760000D01*
%TO.C,C8*%
X105090000Y-103113748D02*
X105090000Y-103636252D01*
X106560000Y-103113748D02*
X106560000Y-103636252D01*
%TO.C,C6*%
X115492164Y-116860000D02*
X115707836Y-116860000D01*
X115492164Y-116140000D02*
X115707836Y-116140000D01*
%TO.C,U3*%
X117050000Y-114930000D02*
X116575000Y-114930000D01*
X109830000Y-114455000D02*
X109830000Y-114930000D01*
X117050000Y-114455000D02*
X117050000Y-114930000D01*
X109830000Y-108185000D02*
X109830000Y-107710000D01*
X117050000Y-108185000D02*
X117050000Y-107710000D01*
X109830000Y-107710000D02*
X110305000Y-107710000D01*
X117050000Y-107710000D02*
X116575000Y-107710000D01*
%TO.C,R6*%
X111137258Y-105777500D02*
X110662742Y-105777500D01*
X111137258Y-106822500D02*
X110662742Y-106822500D01*
%TD*%
M02*
