%TF.GenerationSoftware,KiCad,Pcbnew,7.0.10*%
%TF.CreationDate,2024-02-04T10:39:00+08:00*%
%TF.ProjectId,42stepmotor,34327374-6570-46d6-9f74-6f722e6b6963,rev?*%
%TF.SameCoordinates,Original*%
%TF.FileFunction,Copper,L1,Top*%
%TF.FilePolarity,Positive*%
%FSLAX46Y46*%
G04 Gerber Fmt 4.6, Leading zero omitted, Abs format (unit mm)*
G04 Created by KiCad (PCBNEW 7.0.10) date 2024-02-04 10:39:00*
%MOMM*%
%LPD*%
G01*
G04 APERTURE LIST*
G04 Aperture macros list*
%AMRoundRect*
0 Rectangle with rounded corners*
0 $1 Rounding radius*
0 $2 $3 $4 $5 $6 $7 $8 $9 X,Y pos of 4 corners*
0 Add a 4 corners polygon primitive as box body*
4,1,4,$2,$3,$4,$5,$6,$7,$8,$9,$2,$3,0*
0 Add four circle primitives for the rounded corners*
1,1,$1+$1,$2,$3*
1,1,$1+$1,$4,$5*
1,1,$1+$1,$6,$7*
1,1,$1+$1,$8,$9*
0 Add four rect primitives between the rounded corners*
20,1,$1+$1,$2,$3,$4,$5,0*
20,1,$1+$1,$4,$5,$6,$7,0*
20,1,$1+$1,$6,$7,$8,$9,0*
20,1,$1+$1,$8,$9,$2,$3,0*%
G04 Aperture macros list end*
%TA.AperFunction,ComponentPad*%
%ADD10RoundRect,0.250000X0.725000X-0.600000X0.725000X0.600000X-0.725000X0.600000X-0.725000X-0.600000X0*%
%TD*%
%TA.AperFunction,ComponentPad*%
%ADD11O,1.950000X1.700000*%
%TD*%
%TA.AperFunction,SMDPad,CuDef*%
%ADD12RoundRect,0.140000X0.140000X0.170000X-0.140000X0.170000X-0.140000X-0.170000X0.140000X-0.170000X0*%
%TD*%
%TA.AperFunction,ComponentPad*%
%ADD13O,1.700000X2.000000*%
%TD*%
%TA.AperFunction,ComponentPad*%
%ADD14RoundRect,0.250000X0.600000X0.750000X-0.600000X0.750000X-0.600000X-0.750000X0.600000X-0.750000X0*%
%TD*%
%TA.AperFunction,SMDPad,CuDef*%
%ADD15RoundRect,0.218750X-0.218750X-0.256250X0.218750X-0.256250X0.218750X0.256250X-0.218750X0.256250X0*%
%TD*%
%TA.AperFunction,SMDPad,CuDef*%
%ADD16R,1.450000X0.600000*%
%TD*%
%TA.AperFunction,SMDPad,CuDef*%
%ADD17R,1.450000X0.300000*%
%TD*%
%TA.AperFunction,ComponentPad*%
%ADD18O,2.100000X1.000000*%
%TD*%
%TA.AperFunction,ComponentPad*%
%ADD19O,1.600000X1.000000*%
%TD*%
%TA.AperFunction,SMDPad,CuDef*%
%ADD20RoundRect,0.225000X-0.225000X-0.250000X0.225000X-0.250000X0.225000X0.250000X-0.225000X0.250000X0*%
%TD*%
%TA.AperFunction,SMDPad,CuDef*%
%ADD21RoundRect,0.225000X-0.250000X0.225000X-0.250000X-0.225000X0.250000X-0.225000X0.250000X0.225000X0*%
%TD*%
%TA.AperFunction,SMDPad,CuDef*%
%ADD22R,3.708400X3.708400*%
%TD*%
%TA.AperFunction,SMDPad,CuDef*%
%ADD23R,0.304800X0.711200*%
%TD*%
%TA.AperFunction,SMDPad,CuDef*%
%ADD24R,0.711200X0.304800*%
%TD*%
%TA.AperFunction,SMDPad,CuDef*%
%ADD25RoundRect,0.250000X0.475000X-0.250000X0.475000X0.250000X-0.475000X0.250000X-0.475000X-0.250000X0*%
%TD*%
%TA.AperFunction,SMDPad,CuDef*%
%ADD26RoundRect,0.200000X-0.200000X-0.275000X0.200000X-0.275000X0.200000X0.275000X-0.200000X0.275000X0*%
%TD*%
%TA.AperFunction,SMDPad,CuDef*%
%ADD27RoundRect,0.140000X0.170000X-0.140000X0.170000X0.140000X-0.170000X0.140000X-0.170000X-0.140000X0*%
%TD*%
%TA.AperFunction,SMDPad,CuDef*%
%ADD28R,1.700000X0.900000*%
%TD*%
%TA.AperFunction,SMDPad,CuDef*%
%ADD29RoundRect,0.200000X0.275000X-0.200000X0.275000X0.200000X-0.275000X0.200000X-0.275000X-0.200000X0*%
%TD*%
%TA.AperFunction,SMDPad,CuDef*%
%ADD30RoundRect,0.062500X-0.062500X0.375000X-0.062500X-0.375000X0.062500X-0.375000X0.062500X0.375000X0*%
%TD*%
%TA.AperFunction,SMDPad,CuDef*%
%ADD31RoundRect,0.062500X-0.375000X0.062500X-0.375000X-0.062500X0.375000X-0.062500X0.375000X0.062500X0*%
%TD*%
%TA.AperFunction,SMDPad,CuDef*%
%ADD32R,1.450000X1.450000*%
%TD*%
%TA.AperFunction,SMDPad,CuDef*%
%ADD33RoundRect,0.135000X-0.135000X-0.185000X0.135000X-0.185000X0.135000X0.185000X-0.135000X0.185000X0*%
%TD*%
%TA.AperFunction,ComponentPad*%
%ADD34C,0.800000*%
%TD*%
%TA.AperFunction,ComponentPad*%
%ADD35C,6.400000*%
%TD*%
%TA.AperFunction,SMDPad,CuDef*%
%ADD36RoundRect,0.150000X-0.150000X0.512500X-0.150000X-0.512500X0.150000X-0.512500X0.150000X0.512500X0*%
%TD*%
%TA.AperFunction,SMDPad,CuDef*%
%ADD37R,3.700000X1.900000*%
%TD*%
%TA.AperFunction,SMDPad,CuDef*%
%ADD38RoundRect,0.225000X0.225000X0.250000X-0.225000X0.250000X-0.225000X-0.250000X0.225000X-0.250000X0*%
%TD*%
%TA.AperFunction,SMDPad,CuDef*%
%ADD39R,1.200000X2.000000*%
%TD*%
%TA.AperFunction,SMDPad,CuDef*%
%ADD40RoundRect,0.250000X0.250000X0.475000X-0.250000X0.475000X-0.250000X-0.475000X0.250000X-0.475000X0*%
%TD*%
%TA.AperFunction,SMDPad,CuDef*%
%ADD41RoundRect,0.250000X-0.475000X0.250000X-0.475000X-0.250000X0.475000X-0.250000X0.475000X0.250000X0*%
%TD*%
%TA.AperFunction,SMDPad,CuDef*%
%ADD42RoundRect,0.140000X-0.140000X-0.170000X0.140000X-0.170000X0.140000X0.170000X-0.140000X0.170000X0*%
%TD*%
%TA.AperFunction,SMDPad,CuDef*%
%ADD43RoundRect,0.062500X0.062500X-0.337500X0.062500X0.337500X-0.062500X0.337500X-0.062500X-0.337500X0*%
%TD*%
%TA.AperFunction,SMDPad,CuDef*%
%ADD44RoundRect,0.062500X0.337500X-0.062500X0.337500X0.062500X-0.337500X0.062500X-0.337500X-0.062500X0*%
%TD*%
%TA.AperFunction,SMDPad,CuDef*%
%ADD45R,5.300000X5.300000*%
%TD*%
%TA.AperFunction,SMDPad,CuDef*%
%ADD46RoundRect,0.200000X0.200000X0.275000X-0.200000X0.275000X-0.200000X-0.275000X0.200000X-0.275000X0*%
%TD*%
%TA.AperFunction,SMDPad,CuDef*%
%ADD47RoundRect,0.147500X0.172500X-0.147500X0.172500X0.147500X-0.172500X0.147500X-0.172500X-0.147500X0*%
%TD*%
%TA.AperFunction,ViaPad*%
%ADD48C,0.600000*%
%TD*%
%TA.AperFunction,Conductor*%
%ADD49C,0.250000*%
%TD*%
%TA.AperFunction,Conductor*%
%ADD50C,0.400000*%
%TD*%
%TA.AperFunction,Conductor*%
%ADD51C,0.500000*%
%TD*%
%TA.AperFunction,Conductor*%
%ADD52C,0.200000*%
%TD*%
G04 APERTURE END LIST*
D10*
%TO.P,E2,1,Pin_1*%
%TO.N,OA1*%
X127400000Y-108200000D03*
D11*
%TO.P,E2,2,Pin_2*%
%TO.N,OA2*%
X127400000Y-105700000D03*
%TO.P,E2,3,Pin_3*%
%TO.N,OB2*%
X127400000Y-103200000D03*
%TO.P,E2,4,Pin_4*%
%TO.N,OB1*%
X127400000Y-100700000D03*
%TD*%
D12*
%TO.P,C7,2*%
%TO.N,3.3V*%
X107220000Y-107200000D03*
%TO.P,C7,1*%
%TO.N,GND*%
X108180000Y-107200000D03*
%TD*%
D13*
%TO.P,J1,2,Pin_2*%
%TO.N,GND*%
X108650000Y-92750000D03*
D14*
%TO.P,J1,1,Pin_1*%
%TO.N,4.5V-30V*%
X111150000Y-92750000D03*
%TD*%
D15*
%TO.P,D2,2,A*%
%TO.N,Net-(D2-A)*%
X103012500Y-94325000D03*
%TO.P,D2,1,K*%
%TO.N,GND*%
X101437500Y-94325000D03*
%TD*%
D16*
%TO.P,J2,A1,GND*%
%TO.N,GND*%
X102385000Y-107350000D03*
%TO.P,J2,A4,VBUS*%
%TO.N,4.5V-30V*%
X102385000Y-108150000D03*
D17*
%TO.P,J2,A5,CC1*%
%TO.N,unconnected-(J2-CC1-PadA5)*%
X102385000Y-109350000D03*
%TO.P,J2,A6,D+*%
%TO.N,D+*%
X102385000Y-110350000D03*
%TO.P,J2,A7,D-*%
%TO.N,D-*%
X102385000Y-110850000D03*
%TO.P,J2,A8,SBU1*%
%TO.N,unconnected-(J2-SBU1-PadA8)*%
X102385000Y-111850000D03*
D16*
%TO.P,J2,A9,VBUS*%
%TO.N,4.5V-30V*%
X102385000Y-113050000D03*
%TO.P,J2,A12,GND*%
%TO.N,GND*%
X102385000Y-113850000D03*
%TO.P,J2,B1,GND*%
X102385000Y-113850000D03*
%TO.P,J2,B4,VBUS*%
%TO.N,4.5V-30V*%
X102385000Y-113050000D03*
D17*
%TO.P,J2,B5,CC2*%
%TO.N,unconnected-(J2-CC2-PadB5)*%
X102385000Y-112350000D03*
%TO.P,J2,B6,D+*%
%TO.N,D+*%
X102385000Y-111350000D03*
%TO.P,J2,B7,D-*%
%TO.N,D-*%
X102385000Y-109850000D03*
%TO.P,J2,B8,SBU2*%
%TO.N,unconnected-(J2-SBU2-PadB8)*%
X102385000Y-108850000D03*
D16*
%TO.P,J2,B9,VBUS*%
%TO.N,4.5V-30V*%
X102385000Y-108150000D03*
%TO.P,J2,B12,GND*%
%TO.N,GND*%
X102385000Y-107350000D03*
D18*
%TO.P,J2,S1,SHIELD*%
X101470000Y-106280000D03*
D19*
X97290000Y-106280000D03*
D18*
X101470000Y-114920000D03*
D19*
X97290000Y-114920000D03*
%TD*%
D20*
%TO.P,C9,2*%
%TO.N,5V*%
X121923510Y-88098510D03*
%TO.P,C9,1*%
%TO.N,GND*%
X120373510Y-88098510D03*
%TD*%
D21*
%TO.P,C11,2*%
%TO.N,Net-(U5-CPO)*%
X125650000Y-91875000D03*
%TO.P,C11,1*%
%TO.N,Net-(U5-CPI)*%
X125650000Y-90325000D03*
%TD*%
D22*
%TO.P,U5,29,EXP*%
%TO.N,GND*%
X120650760Y-92000760D03*
D23*
%TO.P,U5,28,VS*%
%TO.N,4.5V-30V*%
X122151900Y-94500760D03*
%TO.P,U5,27,BRB*%
%TO.N,GND*%
X121651520Y-94500760D03*
%TO.P,U5,26,OB1*%
%TO.N,OB1*%
X121151141Y-94500760D03*
%TO.P,U5,25,NC*%
%TO.N,unconnected-(U5-NC-Pad25)*%
X120650760Y-94500760D03*
%TO.P,U5,24,OA1*%
%TO.N,OA1*%
X120150379Y-94500760D03*
%TO.P,U5,23,BRA*%
%TO.N,GND*%
X119650000Y-94500760D03*
%TO.P,U5,22,VS*%
%TO.N,4.5V-30V*%
X119149620Y-94500760D03*
D24*
%TO.P,U5,21,OA2*%
%TO.N,OA2*%
X118150760Y-93501900D03*
%TO.P,U5,20,STDBY*%
%TO.N,Net-(U5-STDBY)*%
X118150760Y-93001520D03*
%TO.P,U5,19,DIR*%
%TO.N,TMC_DIR*%
X118150760Y-92501141D03*
%TO.P,U5,18,GND*%
%TO.N,GND*%
X118150760Y-92000760D03*
%TO.P,U5,17,VREF*%
%TO.N,unconnected-(U5-VREF-Pad17)*%
X118150760Y-91500379D03*
%TO.P,U5,16,STEP*%
%TO.N,TMC_STEP*%
X118150760Y-91000000D03*
%TO.P,U5,15,VCC_IO*%
%TO.N,5V*%
X118150760Y-90499620D03*
D23*
%TO.P,U5,14,~{PD}_UART*%
%TO.N,TMC_RX*%
X119149620Y-89500760D03*
%TO.P,U5,13,CLK*%
%TO.N,GND*%
X119650000Y-89500760D03*
%TO.P,U5,12,INDEX*%
%TO.N,unconnected-(U5-INDEX-Pad12)*%
X120150379Y-89500760D03*
%TO.P,U5,11,DIAG*%
%TO.N,unconnected-(U5-DIAG-Pad11)*%
X120650760Y-89500760D03*
%TO.P,U5,10,MS2_AD1*%
%TO.N,unconnected-(U5-MS2_AD1-Pad10)*%
X121151141Y-89500760D03*
%TO.P,U5,9,MS1_AD0*%
%TO.N,unconnected-(U5-MS1_AD0-Pad9)*%
X121651520Y-89500760D03*
%TO.P,U5,8,5VOUT*%
%TO.N,5V*%
X122151900Y-89500760D03*
D24*
%TO.P,U5,7,SPREAD*%
%TO.N,unconnected-(U5-SPREAD-Pad7)*%
X123150760Y-90499620D03*
%TO.P,U5,6,VCP*%
%TO.N,Net-(U5-VCP)*%
X123150760Y-91000000D03*
%TO.P,U5,5,CPI*%
%TO.N,Net-(U5-CPI)*%
X123150760Y-91500379D03*
%TO.P,U5,4,CPO*%
%TO.N,Net-(U5-CPO)*%
X123150760Y-92000760D03*
%TO.P,U5,3,GND*%
%TO.N,GND*%
X123150760Y-92501141D03*
%TO.P,U5,2,~{EN}*%
%TO.N,unconnected-(U5-~{EN}-Pad2)*%
X123150760Y-93001520D03*
%TO.P,U5,1,OB2*%
%TO.N,OB2*%
X123150760Y-93501900D03*
%TD*%
D21*
%TO.P,C12,2*%
%TO.N,4.5V-30V*%
X125650000Y-95025000D03*
%TO.P,C12,1*%
%TO.N,Net-(U5-VCP)*%
X125650000Y-93475000D03*
%TD*%
D12*
%TO.P,CANT_C2,2*%
%TO.N,Net-(U3-LNA_IN)*%
X111210000Y-116470000D03*
%TO.P,CANT_C2,1*%
%TO.N,GND*%
X112170000Y-116470000D03*
%TD*%
D25*
%TO.P,C4,2*%
%TO.N,GND*%
X105825000Y-98925000D03*
%TO.P,C4,1*%
%TO.N,3.3V*%
X105825000Y-100825000D03*
%TD*%
D26*
%TO.P,R2,2*%
%TO.N,Net-(U4-FB)*%
X99375000Y-94325000D03*
%TO.P,R2,1*%
%TO.N,GND*%
X97725000Y-94325000D03*
%TD*%
D27*
%TO.P,C3,2*%
%TO.N,3.3V*%
X105200000Y-112620000D03*
%TO.P,C3,1*%
%TO.N,GND*%
X105200000Y-113580000D03*
%TD*%
D20*
%TO.P,C2,2*%
%TO.N,3.3V*%
X103000000Y-95925000D03*
%TO.P,C2,1*%
%TO.N,Net-(U4-FB)*%
X101450000Y-95925000D03*
%TD*%
D28*
%TO.P,SW1,2,2*%
%TO.N,EN*%
X115000000Y-118900000D03*
%TO.P,SW1,1,1*%
%TO.N,GND*%
X115000000Y-123300000D03*
%TD*%
D12*
%TO.P,ANT_C1,2*%
%TO.N,Net-(E1-A)*%
X111120000Y-119470000D03*
%TO.P,ANT_C1,1*%
%TO.N,GND*%
X112080000Y-119470000D03*
%TD*%
D29*
%TO.P,R11,2*%
%TO.N,Net-(D2-A)*%
X104625000Y-94300000D03*
%TO.P,R11,1*%
%TO.N,3.3V*%
X104625000Y-95950000D03*
%TD*%
D30*
%TO.P,U1,1,VIO*%
%TO.N,3.3V*%
X107212500Y-108512500D03*
%TO.P,U1,2,GND*%
%TO.N,GND*%
X106712500Y-108512500D03*
%TO.P,U1,3,VDD5*%
%TO.N,3.3V*%
X106212500Y-108512500D03*
%TO.P,U1,4,TXD*%
%TO.N,RX*%
X105712500Y-108512500D03*
D31*
%TO.P,U1,5,RXD*%
%TO.N,TX*%
X105025000Y-109200000D03*
%TO.P,U1,6,V3*%
%TO.N,3.3V*%
X105025000Y-109700000D03*
%TO.P,U1,7,UD+*%
%TO.N,D+*%
X105025000Y-110200000D03*
%TO.P,U1,8,UD-*%
%TO.N,D-*%
X105025000Y-110700000D03*
D30*
%TO.P,U1,9,VBUS*%
%TO.N,3.3V*%
X105712500Y-111387500D03*
%TO.P,U1,10,ACT#*%
%TO.N,unconnected-(U1-ACT#-Pad10)*%
X106212500Y-111387500D03*
%TO.P,U1,11,DCD*%
%TO.N,unconnected-(U1-DCD-Pad11)*%
X106712500Y-111387500D03*
%TO.P,U1,12,DTR*%
%TO.N,OP*%
X107212500Y-111387500D03*
D31*
%TO.P,U1,13,RTS*%
%TO.N,EN*%
X107900000Y-110700000D03*
%TO.P,U1,14,DSR*%
%TO.N,unconnected-(U1-DSR-Pad14)*%
X107900000Y-110200000D03*
%TO.P,U1,15,CTS*%
%TO.N,unconnected-(U1-CTS-Pad15)*%
X107900000Y-109700000D03*
%TO.P,U1,16,RI*%
%TO.N,unconnected-(U1-RI-Pad16)*%
X107900000Y-109200000D03*
D32*
%TO.P,U1,17,GND*%
%TO.N,GND*%
X106462500Y-109950000D03*
%TD*%
D33*
%TO.P,R4,2*%
%TO.N,EN*%
X114210000Y-116500000D03*
%TO.P,R4,1*%
%TO.N,3.3V*%
X113190000Y-116500000D03*
%TD*%
D34*
%TO.P,H3,1*%
%TO.N,N/C*%
X128600000Y-89000000D03*
X129302944Y-87302944D03*
X129302944Y-90697056D03*
X131000000Y-86600000D03*
D35*
X131000000Y-89000000D03*
D34*
X131000000Y-91400000D03*
X132697056Y-87302944D03*
X132697056Y-90697056D03*
X133400000Y-89000000D03*
%TD*%
D26*
%TO.P,R1,2*%
%TO.N,3.3V*%
X103050000Y-97525000D03*
%TO.P,R1,1*%
%TO.N,Net-(U4-FB)*%
X101400000Y-97525000D03*
%TD*%
D36*
%TO.P,U4,6,SW*%
%TO.N,Net-(U4-SW)*%
X99675000Y-98412500D03*
%TO.P,U4,5,IN*%
%TO.N,4.5V-30V*%
X98725000Y-98412500D03*
%TO.P,U4,4,EN*%
%TO.N,Net-(U4-EN)*%
X97775000Y-98412500D03*
%TO.P,U4,3,FB*%
%TO.N,Net-(U4-FB)*%
X97775000Y-96137500D03*
%TO.P,U4,2,GND*%
%TO.N,GND*%
X98725000Y-96137500D03*
%TO.P,U4,1,BS*%
%TO.N,Net-(U4-BS)*%
X99675000Y-96137500D03*
%TD*%
D26*
%TO.P,R3,2*%
%TO.N,4.5V-30V*%
X99350000Y-100225000D03*
%TO.P,R3,1*%
%TO.N,Net-(U4-EN)*%
X97700000Y-100225000D03*
%TD*%
D34*
%TO.P,H2,1*%
%TO.N,N/C*%
X97600000Y-120000000D03*
X98302944Y-118302944D03*
X98302944Y-121697056D03*
X100000000Y-117600000D03*
D35*
X100000000Y-120000000D03*
D34*
X100000000Y-122400000D03*
X101697056Y-118302944D03*
X101697056Y-121697056D03*
X102400000Y-120000000D03*
%TD*%
D37*
%TO.P,L1,2,2*%
%TO.N,3.3V*%
X102425000Y-103875000D03*
%TO.P,L1,1,1*%
%TO.N,Net-(U4-SW)*%
X102425000Y-101175000D03*
%TD*%
D29*
%TO.P,R9,2*%
%TO.N,GND*%
X115948510Y-91673510D03*
%TO.P,R9,1*%
%TO.N,Net-(U5-STDBY)*%
X115948510Y-93323510D03*
%TD*%
D38*
%TO.P,C13,2*%
%TO.N,5V*%
X117273510Y-88098510D03*
%TO.P,C13,1*%
%TO.N,GND*%
X118823510Y-88098510D03*
%TD*%
D34*
%TO.P,H4,1*%
%TO.N,N/C*%
X97600000Y-89000000D03*
X98302944Y-87302944D03*
X98302944Y-90697056D03*
X100000000Y-86600000D03*
D35*
X100000000Y-89000000D03*
D34*
X100000000Y-91400000D03*
X101697056Y-87302944D03*
X101697056Y-90697056D03*
X102400000Y-89000000D03*
%TD*%
D39*
%TO.P,E1,1,A*%
%TO.N,Net-(E1-A)*%
X110650000Y-122300000D03*
%TO.P,E1,2*%
%TO.N,N/C*%
X105150000Y-122300000D03*
%TD*%
D34*
%TO.P,H1,1*%
%TO.N,N/C*%
X128600000Y-120000000D03*
X129302944Y-118302944D03*
X129302944Y-121697056D03*
X131000000Y-117600000D03*
D35*
X131000000Y-120000000D03*
D34*
X131000000Y-122400000D03*
X132697056Y-118302944D03*
X132697056Y-121697056D03*
X133400000Y-120000000D03*
%TD*%
D38*
%TO.P,C1,2*%
%TO.N,Net-(U4-BS)*%
X101450000Y-99125000D03*
%TO.P,C1,1*%
%TO.N,Net-(U4-SW)*%
X103000000Y-99125000D03*
%TD*%
D40*
%TO.P,C5,2*%
%TO.N,GND*%
X97375000Y-102025000D03*
%TO.P,C5,1*%
%TO.N,4.5V-30V*%
X99275000Y-102025000D03*
%TD*%
D41*
%TO.P,C8,2*%
%TO.N,GND*%
X105825000Y-104325000D03*
%TO.P,C8,1*%
%TO.N,3.3V*%
X105825000Y-102425000D03*
%TD*%
D42*
%TO.P,C6,2*%
%TO.N,GND*%
X116080000Y-116500000D03*
%TO.P,C6,1*%
%TO.N,EN*%
X115120000Y-116500000D03*
%TD*%
D43*
%TO.P,U3,1,VDDA*%
%TO.N,3.3V*%
X110690000Y-114770000D03*
%TO.P,U3,2,LNA_IN*%
%TO.N,Net-(U3-LNA_IN)*%
X111190000Y-114770000D03*
%TO.P,U3,3,VDDA3P3*%
%TO.N,3.3V*%
X111690000Y-114770000D03*
%TO.P,U3,4,VDDA3P3*%
X112190000Y-114770000D03*
%TO.P,U3,5,SEN_VP*%
%TO.N,unconnected-(U3-SEN_VP-Pad5)*%
X112690000Y-114770000D03*
%TO.P,U3,6,SEN_CAPP*%
%TO.N,unconnected-(U3-SEN_CAPP-Pad6)*%
X113190000Y-114770000D03*
%TO.P,U3,7,SEN_CAPN*%
%TO.N,unconnected-(U3-SEN_CAPN-Pad7)*%
X113690000Y-114770000D03*
%TO.P,U3,8,SEN_VN*%
%TO.N,unconnected-(U3-SEN_VN-Pad8)*%
X114190000Y-114770000D03*
%TO.P,U3,9,EN*%
%TO.N,EN*%
X114690000Y-114770000D03*
%TO.P,U3,10,IO34*%
%TO.N,unconnected-(U3-IO34-Pad10)*%
X115190000Y-114770000D03*
%TO.P,U3,11,IO35*%
%TO.N,unconnected-(U3-IO35-Pad11)*%
X115690000Y-114770000D03*
%TO.P,U3,12,IO32*%
%TO.N,unconnected-(U3-IO32-Pad12)*%
X116190000Y-114770000D03*
D44*
%TO.P,U3,13,IO33*%
%TO.N,SPI_CS*%
X116890000Y-114070000D03*
%TO.P,U3,14,IO25*%
%TO.N,SPI_MOSI*%
X116890000Y-113570000D03*
%TO.P,U3,15,IO26*%
%TO.N,SPI_MISO*%
X116890000Y-113070000D03*
%TO.P,U3,16,IO27*%
%TO.N,SPI_CLK*%
X116890000Y-112570000D03*
%TO.P,U3,17,IO14*%
%TO.N,unconnected-(U3-IO14-Pad17)*%
X116890000Y-112070000D03*
%TO.P,U3,18,IO12*%
%TO.N,unconnected-(U3-IO12-Pad18)*%
X116890000Y-111570000D03*
%TO.P,U3,19,VDD3P3_RTC*%
%TO.N,3.3V*%
X116890000Y-111070000D03*
%TO.P,U3,20,IO13*%
%TO.N,unconnected-(U3-IO13-Pad20)*%
X116890000Y-110570000D03*
%TO.P,U3,21,IO15*%
%TO.N,unconnected-(U3-IO15-Pad21)*%
X116890000Y-110070000D03*
%TO.P,U3,22,IO2*%
%TO.N,unconnected-(U3-IO2-Pad22)*%
X116890000Y-109570000D03*
%TO.P,U3,23,IO0*%
%TO.N,OP*%
X116890000Y-109070000D03*
%TO.P,U3,24,IO4*%
%TO.N,unconnected-(U3-IO4-Pad24)*%
X116890000Y-108570000D03*
D43*
%TO.P,U3,25,IO16*%
%TO.N,unconnected-(U3-IO16-Pad25)*%
X116190000Y-107870000D03*
%TO.P,U3,26,VDD_SDIO*%
%TO.N,unconnected-(U3-VDD_SDIO-Pad26)*%
X115690000Y-107870000D03*
%TO.P,U3,27,IO17*%
%TO.N,unconnected-(U3-IO17-Pad27)*%
X115190000Y-107870000D03*
%TO.P,U3,28,SD2*%
%TO.N,TMC_DIR*%
X114690000Y-107870000D03*
%TO.P,U3,29,SD3*%
%TO.N,TMC_STEP*%
X114190000Y-107870000D03*
%TO.P,U3,30,CMD*%
%TO.N,unconnected-(U3-CMD-Pad30)*%
X113690000Y-107870000D03*
%TO.P,U3,31,CLK*%
%TO.N,unconnected-(U3-CLK-Pad31)*%
X113190000Y-107870000D03*
%TO.P,U3,32,SD0*%
%TO.N,unconnected-(U3-SD0-Pad32)*%
X112690000Y-107870000D03*
%TO.P,U3,33,SD1*%
%TO.N,unconnected-(U3-SD1-Pad33)*%
X112190000Y-107870000D03*
%TO.P,U3,34,IO5*%
%TO.N,unconnected-(U3-IO5-Pad34)*%
X111690000Y-107870000D03*
%TO.P,U3,35,IO18*%
%TO.N,TMC_TX*%
X111190000Y-107870000D03*
%TO.P,U3,36,IO23*%
%TO.N,TMC_RX*%
X110690000Y-107870000D03*
D44*
%TO.P,U3,37,VDD3P3_CPU*%
%TO.N,3.3V*%
X109990000Y-108570000D03*
%TO.P,U3,38,IO19*%
%TO.N,unconnected-(U3-IO19-Pad38)*%
X109990000Y-109070000D03*
%TO.P,U3,39,IO22*%
%TO.N,unconnected-(U3-IO22-Pad39)*%
X109990000Y-109570000D03*
%TO.P,U3,40,U0RXD*%
%TO.N,RX*%
X109990000Y-110070000D03*
%TO.P,U3,41,U0TXD*%
%TO.N,TX*%
X109990000Y-110570000D03*
%TO.P,U3,42,IO21*%
%TO.N,unconnected-(U3-IO21-Pad42)*%
X109990000Y-111070000D03*
%TO.P,U3,43,VDDA*%
%TO.N,3.3V*%
X109990000Y-111570000D03*
%TO.P,U3,44,XTAL_N_NC*%
%TO.N,unconnected-(U3-XTAL_N_NC-Pad44)*%
X109990000Y-112070000D03*
%TO.P,U3,45,XTAL_P_NC*%
%TO.N,unconnected-(U3-XTAL_P_NC-Pad45)*%
X109990000Y-112570000D03*
%TO.P,U3,46,VDDA*%
%TO.N,3.3V*%
X109990000Y-113070000D03*
%TO.P,U3,47,CAP2_NC*%
%TO.N,unconnected-(U3-CAP2_NC-Pad47)*%
X109990000Y-113570000D03*
%TO.P,U3,48,CAP1_NC*%
%TO.N,unconnected-(U3-CAP1_NC-Pad48)*%
X109990000Y-114070000D03*
D45*
%TO.P,U3,49,GND*%
%TO.N,GND*%
X113440000Y-111320000D03*
%TD*%
D46*
%TO.P,R6,2*%
%TO.N,TMC_RX*%
X110075000Y-106300000D03*
%TO.P,R6,1*%
%TO.N,TMC_TX*%
X111725000Y-106300000D03*
%TD*%
D47*
%TO.P,ANT_L1,2,2*%
%TO.N,Net-(U3-LNA_IN)*%
X111200000Y-117485000D03*
%TO.P,ANT_L1,1,1*%
%TO.N,Net-(E1-A)*%
X111200000Y-118455000D03*
%TD*%
D48*
%TO.N,GND*%
X110040000Y-119020000D03*
X110060000Y-117120000D03*
%TO.N,TMC_RX*%
X113150000Y-92210000D03*
X118175000Y-89555000D03*
%TO.N,OB2*%
X123150760Y-94700000D03*
%TO.N,4.5V-30V*%
X121800000Y-95450000D03*
X119300000Y-95450000D03*
%TO.N,OA1*%
X120150379Y-96850379D03*
%TO.N,TMC_STEP*%
X117150000Y-90775000D03*
%TO.N,TMC_DIR*%
X117048510Y-92498510D03*
%TO.N,GND*%
X108079508Y-107940981D03*
X124250760Y-92625760D03*
%TO.N,3.3V*%
X116275000Y-102375000D03*
%TO.N,GND*%
X114500000Y-102300000D03*
%TO.N,SPI_MOSI*%
X115400000Y-103100000D03*
%TO.N,SPI_MISO*%
X115650000Y-103859291D03*
%TO.N,SPI_CLK*%
X116075000Y-104600000D03*
%TO.N,SPI_CS*%
X119500000Y-103400000D03*
%TO.N,GND*%
X105200000Y-114400000D03*
X112170000Y-117300000D03*
X103700000Y-113800000D03*
X116100000Y-117400000D03*
X98325000Y-97225000D03*
X112700000Y-111200000D03*
X115500000Y-111200000D03*
X97700000Y-93200000D03*
X97400000Y-103400000D03*
X114100000Y-111200000D03*
X115000000Y-122000000D03*
X101400000Y-93200000D03*
X111300000Y-111200000D03*
X106800000Y-109900000D03*
X106100000Y-109900000D03*
X104500000Y-105300000D03*
X112200000Y-118600000D03*
X105800000Y-97900000D03*
%TO.N,3.3V*%
X106700000Y-99900000D03*
X110259999Y-115600000D03*
X118000000Y-111100000D03*
X105000000Y-111700000D03*
X112600000Y-115700000D03*
X109000000Y-113100000D03*
X109900000Y-107900000D03*
X109000000Y-111600000D03*
X106200000Y-107500000D03*
X104043627Y-108934654D03*
%TO.N,D-*%
X103850000Y-110800000D03*
X103599422Y-109600000D03*
%TO.N,RX*%
X105180921Y-107612624D03*
X109000000Y-109699997D03*
%TO.N,TX*%
X109000000Y-110500000D03*
X104670971Y-108229029D03*
%TO.N,OP*%
X118100000Y-109100000D03*
X107275000Y-112600000D03*
%TO.N,EN*%
X109800000Y-114800000D03*
X115100000Y-118100000D03*
%TD*%
D49*
%TO.N,OB1*%
X121151141Y-94500760D02*
X121151141Y-96801141D01*
D50*
X121151141Y-96801141D02*
X125050000Y-100700000D01*
X125050000Y-100700000D02*
X127400000Y-100700000D01*
D49*
%TO.N,TMC_STEP*%
X113300000Y-99830000D02*
X111940000Y-101190000D01*
%TO.N,TMC_RX*%
X112850000Y-99480000D02*
X111440000Y-100890000D01*
%TO.N,TMC_DIR*%
X113750000Y-93285412D02*
X114536902Y-92498510D01*
X112390000Y-101580000D02*
X113750000Y-100220000D01*
%TO.N,Net-(U5-VCP)*%
X123808380Y-91000000D02*
X124250000Y-90558380D01*
X126350000Y-89250000D02*
X126750000Y-89650000D01*
%TO.N,GND*%
X121151141Y-92501141D02*
X120650760Y-92000760D01*
X117434644Y-92000760D02*
X117107394Y-91673510D01*
%TO.N,Net-(U5-STDBY)*%
X117429384Y-93001520D02*
X117107394Y-93323510D01*
%TO.N,TMC_RX*%
X110690000Y-106915000D02*
X110075000Y-106300000D01*
%TO.N,3.3V*%
X107212500Y-107207500D02*
X107220000Y-107200000D01*
%TO.N,SPI_CLK*%
X119500000Y-111500000D02*
X118430000Y-112570000D01*
X118100000Y-104600000D02*
X119500000Y-106000000D01*
D51*
%TO.N,4.5V-30V*%
X105700000Y-106000000D02*
X106500000Y-106000000D01*
D50*
%TO.N,Net-(U4-SW)*%
X101775001Y-101175000D02*
X102425000Y-101175000D01*
D49*
%TO.N,Net-(U4-FB)*%
X98125001Y-95125000D02*
X98575000Y-95125000D01*
X99375000Y-94325000D02*
X99387500Y-94325000D01*
D50*
X101400000Y-95975000D02*
X101450000Y-95925000D01*
D51*
%TO.N,4.5V-30V*%
X98725000Y-99600000D02*
X99350000Y-100225000D01*
D50*
X101950000Y-108150000D02*
X102000000Y-108200000D01*
D51*
X99350000Y-101950000D02*
X99275000Y-102025000D01*
D50*
X102000000Y-108200000D02*
X102050000Y-108150000D01*
X102435000Y-108150000D02*
X102385000Y-108150000D01*
D49*
%TO.N,3.3V*%
X112190000Y-115219740D02*
X112190000Y-114770000D01*
D50*
X103000000Y-97475000D02*
X103050000Y-97525000D01*
X104325000Y-98425000D02*
X104325000Y-99425000D01*
X105725000Y-100825000D02*
X105825000Y-100825000D01*
D52*
%TO.N,D+*%
X101100000Y-111040000D02*
X101100000Y-110700000D01*
X103550000Y-110200000D02*
X103400000Y-110350000D01*
D49*
%TO.N,TX*%
X109200000Y-110500000D02*
X109270000Y-110570000D01*
%TO.N,EN*%
X115100000Y-116480000D02*
X115120000Y-116500000D01*
X115100000Y-116520000D02*
X115120000Y-116500000D01*
%TO.N,Net-(E1-A)*%
X111200000Y-119390000D02*
X111120000Y-119470000D01*
%TO.N,Net-(U3-LNA_IN)*%
X111210000Y-116470000D02*
X111190000Y-116450000D01*
%TO.N,TMC_STEP*%
X117375000Y-91000000D02*
X118150760Y-91000000D01*
X114190000Y-106860000D02*
X114190000Y-107870000D01*
X111940000Y-104610000D02*
X114190000Y-106860000D01*
X115630000Y-90660000D02*
X113300000Y-92990000D01*
X117035000Y-90660000D02*
X115630000Y-90660000D01*
X111940000Y-101190000D02*
X111940000Y-104610000D01*
X113300000Y-92990000D02*
X113300000Y-99830000D01*
X117150000Y-90775000D02*
X117375000Y-91000000D01*
X117150000Y-90775000D02*
X117035000Y-90660000D01*
%TO.N,TMC_RX*%
X118175000Y-89555000D02*
X118229240Y-89500760D01*
X118229240Y-89500760D02*
X119149620Y-89500760D01*
X111440000Y-100890000D02*
X111440000Y-104935000D01*
X111440000Y-104935000D02*
X110075000Y-106300000D01*
X113150000Y-92210000D02*
X112850000Y-92510000D01*
X112850000Y-92510000D02*
X112850000Y-99480000D01*
%TO.N,TMC_DIR*%
X113750000Y-100220000D02*
X113750000Y-93285412D01*
X114690000Y-106723604D02*
X112390000Y-104423604D01*
X114536902Y-92498510D02*
X117048510Y-92498510D01*
X114690000Y-107870000D02*
X114690000Y-106723604D01*
X112390000Y-104423604D02*
X112390000Y-101580000D01*
%TO.N,5V*%
X117810000Y-87160000D02*
X117273510Y-87696490D01*
X121280000Y-87160000D02*
X117810000Y-87160000D01*
X117273510Y-87696490D02*
X117273510Y-88098510D01*
X121923510Y-87803510D02*
X121280000Y-87160000D01*
X121923510Y-88098510D02*
X121923510Y-87803510D01*
%TO.N,OB2*%
X123150760Y-93501900D02*
X123150760Y-94700000D01*
D50*
%TO.N,OA2*%
X118150760Y-98950760D02*
X118150760Y-93501900D01*
X124900000Y-105700000D02*
X118150760Y-98950760D01*
X127400000Y-105700000D02*
X124900000Y-105700000D01*
D49*
%TO.N,4.5V-30V*%
X121850000Y-95400000D02*
X121800000Y-95450000D01*
X125275000Y-95400000D02*
X121850000Y-95400000D01*
X125650000Y-95025000D02*
X125275000Y-95400000D01*
%TO.N,Net-(U5-VCP)*%
X126125000Y-93475000D02*
X125650000Y-93475000D01*
X126750000Y-89650000D02*
X126750000Y-92850000D01*
X126750000Y-92850000D02*
X126125000Y-93475000D01*
X124825000Y-89250000D02*
X126350000Y-89250000D01*
X124250000Y-89825000D02*
X124825000Y-89250000D01*
X124250000Y-90558380D02*
X124250000Y-89825000D01*
X123150760Y-91000000D02*
X123808380Y-91000000D01*
%TO.N,Net-(U5-CPO)*%
X125524240Y-92000760D02*
X125650000Y-91875000D01*
X123150760Y-92000760D02*
X125524240Y-92000760D01*
%TO.N,Net-(U5-CPI)*%
X123150760Y-91500379D02*
X124474621Y-91500379D01*
X124474621Y-91500379D02*
X125650000Y-90325000D01*
%TO.N,OA1*%
X120150379Y-96850379D02*
X120150379Y-94500760D01*
%TO.N,4.5V-30V*%
X119149620Y-95299620D02*
X119149620Y-94500760D01*
X119300000Y-95450000D02*
X119149620Y-95299620D01*
X121800000Y-95450000D02*
X122151900Y-95098100D01*
X122151900Y-95098100D02*
X122151900Y-94500760D01*
%TO.N,GND*%
X124126141Y-92501141D02*
X123150760Y-92501141D01*
X124250760Y-92625760D02*
X124126141Y-92501141D01*
X123150760Y-92501141D02*
X121151141Y-92501141D01*
X119650000Y-91000000D02*
X120650760Y-92000760D01*
X119650000Y-89500760D02*
X119650000Y-91000000D01*
X118150760Y-92000760D02*
X120650760Y-92000760D01*
X117107394Y-91673510D02*
X115948510Y-91673510D01*
X118150760Y-92000760D02*
X117434644Y-92000760D01*
%TO.N,Net-(U5-STDBY)*%
X117107394Y-93323510D02*
X115948510Y-93323510D01*
X118150760Y-93001520D02*
X117429384Y-93001520D01*
%TO.N,5V*%
X117248510Y-89597370D02*
X117248510Y-88123510D01*
X118150760Y-90499620D02*
X117248510Y-89597370D01*
%TO.N,GND*%
X119650000Y-88822020D02*
X120373510Y-88098510D01*
X119650000Y-89500760D02*
X119650000Y-88822020D01*
X120373510Y-88098510D02*
X118823510Y-88098510D01*
%TO.N,TMC_RX*%
X110690000Y-107870000D02*
X110690000Y-106915000D01*
%TO.N,TMC_TX*%
X111190000Y-106835000D02*
X111725000Y-106300000D01*
X111190000Y-107870000D02*
X111190000Y-106835000D01*
%TO.N,GND*%
X108180000Y-107840489D02*
X108180000Y-107200000D01*
X108079508Y-107940981D02*
X108180000Y-107840489D01*
%TO.N,5V*%
X122151900Y-89500760D02*
X122151900Y-88120120D01*
%TO.N,TMC_DIR*%
X117051141Y-92501141D02*
X117048510Y-92498510D01*
X118150760Y-92501141D02*
X117051141Y-92501141D01*
%TO.N,3.3V*%
X107220000Y-107200000D02*
X106500000Y-107200000D01*
X106500000Y-107200000D02*
X106200000Y-107500000D01*
X107212500Y-108512500D02*
X107212500Y-107207500D01*
%TO.N,EN*%
X108000000Y-110800000D02*
X107900000Y-110700000D01*
X108000000Y-113029740D02*
X108000000Y-110800000D01*
X109770260Y-114800000D02*
X108000000Y-113029740D01*
X109800000Y-114800000D02*
X109770260Y-114800000D01*
%TO.N,OP*%
X107200000Y-111400000D02*
X107212500Y-111387500D01*
X107200000Y-112525000D02*
X107200000Y-111400000D01*
X107275000Y-112600000D02*
X107200000Y-112525000D01*
%TO.N,SPI_CLK*%
X118430000Y-112570000D02*
X116890000Y-112570000D01*
X116075000Y-104600000D02*
X118100000Y-104600000D01*
X119500000Y-106000000D02*
X119500000Y-111500000D01*
%TO.N,SPI_MISO*%
X118657208Y-113070000D02*
X116890000Y-113070000D01*
X120000000Y-105700000D02*
X120000000Y-111727208D01*
X115650000Y-103859291D02*
X118159291Y-103859291D01*
X118159291Y-103859291D02*
X120000000Y-105700000D01*
X120000000Y-111727208D02*
X118657208Y-113070000D01*
%TO.N,SPI_MOSI*%
X118793604Y-113570000D02*
X116890000Y-113570000D01*
X120500000Y-105400000D02*
X120500000Y-111863604D01*
X120500000Y-111863604D02*
X118793604Y-113570000D01*
X118225000Y-103125000D02*
X120500000Y-105400000D01*
X115425000Y-103125000D02*
X118225000Y-103125000D01*
X115400000Y-103100000D02*
X115425000Y-103125000D01*
D51*
%TO.N,4.5V-30V*%
X107800000Y-96100000D02*
X111150000Y-92750000D01*
X106500000Y-106000000D02*
X107800000Y-104700000D01*
X103550000Y-108150000D02*
X105700000Y-106000000D01*
X102385000Y-108150000D02*
X103550000Y-108150000D01*
X107800000Y-104700000D02*
X107800000Y-96100000D01*
D49*
%TO.N,RX*%
X105712500Y-108212500D02*
X105712500Y-108512500D01*
X105180921Y-107612624D02*
X105180921Y-107680921D01*
X105180921Y-107680921D02*
X105712500Y-108212500D01*
%TO.N,TX*%
X104670971Y-108229029D02*
X105025000Y-108583058D01*
X105025000Y-108583058D02*
X105025000Y-109200000D01*
%TO.N,3.3V*%
X104537760Y-109700000D02*
X105025000Y-109700000D01*
X104200000Y-109362240D02*
X104537760Y-109700000D01*
X104200000Y-109091027D02*
X104200000Y-109362240D01*
X104043627Y-108934654D02*
X104200000Y-109091027D01*
D50*
X106700000Y-99950000D02*
X105825000Y-100825000D01*
X106700000Y-99900000D02*
X106700000Y-99950000D01*
D49*
%TO.N,SPI_CS*%
X118930000Y-114070000D02*
X116890000Y-114070000D01*
X121000000Y-104900000D02*
X121000000Y-112000000D01*
X119500000Y-103400000D02*
X121000000Y-104900000D01*
X121000000Y-112000000D02*
X118930000Y-114070000D01*
D50*
%TO.N,Net-(U4-SW)*%
X99675000Y-98412500D02*
X99675000Y-99074999D01*
X99675000Y-99074999D02*
X101775001Y-101175000D01*
X103000000Y-99125000D02*
X103000000Y-100600000D01*
X103000000Y-100600000D02*
X102425000Y-101175000D01*
%TO.N,Net-(U4-BS)*%
X100525000Y-96725000D02*
X100525000Y-98425000D01*
X101225000Y-99125000D02*
X101450000Y-99125000D01*
X100525000Y-98425000D02*
X101225000Y-99125000D01*
X99937500Y-96137500D02*
X100525000Y-96725000D01*
X99675000Y-96137500D02*
X99937500Y-96137500D01*
D49*
%TO.N,Net-(U4-FB)*%
X97775000Y-96137500D02*
X97775000Y-95475001D01*
X98575000Y-95125000D02*
X99375000Y-94325000D01*
D50*
X101400000Y-97525000D02*
X101400000Y-95975000D01*
D49*
X97775000Y-95475001D02*
X98125001Y-95125000D01*
D50*
X101400000Y-95875000D02*
X101450000Y-95925000D01*
D49*
X99387500Y-94325000D02*
X100987500Y-95925000D01*
X100987500Y-95925000D02*
X101450000Y-95925000D01*
D51*
X99375000Y-94125000D02*
X99375000Y-94250000D01*
D50*
%TO.N,4.5V-30V*%
X101596016Y-113050000D02*
X100600000Y-112053984D01*
X102335000Y-108150000D02*
X102600000Y-108200000D01*
X102600000Y-108200000D02*
X102435000Y-108150000D01*
X101595000Y-108150000D02*
X101950000Y-108150000D01*
X100600000Y-112053984D02*
X100600000Y-109145000D01*
D51*
X98725000Y-98412500D02*
X98725000Y-99600000D01*
D50*
X100600000Y-109145000D02*
X99275000Y-107820000D01*
D51*
X99350000Y-100225000D02*
X99350000Y-101950000D01*
D50*
X99275000Y-107820000D02*
X99275000Y-102025000D01*
D51*
X99275000Y-102025000D02*
X99275000Y-102674999D01*
D50*
X102050000Y-108150000D02*
X102335000Y-108150000D01*
X100600000Y-109145000D02*
X101595000Y-108150000D01*
X102385000Y-113050000D02*
X101596016Y-113050000D01*
D49*
%TO.N,GND*%
X115000000Y-122000000D02*
X115000000Y-123300000D01*
D50*
X98725000Y-96137500D02*
X98725000Y-96825000D01*
D49*
X105825000Y-97925000D02*
X105800000Y-97900000D01*
D50*
X102385000Y-107195000D02*
X101470000Y-106280000D01*
D49*
X106100000Y-109900000D02*
X106462500Y-109950000D01*
D50*
X98725000Y-96825000D02*
X98325000Y-97225000D01*
D49*
X105475000Y-104325000D02*
X105825000Y-104325000D01*
X103650000Y-113850000D02*
X103700000Y-113800000D01*
X116080000Y-117380000D02*
X116080000Y-116500000D01*
X106712500Y-108512500D02*
X106712500Y-109700000D01*
X106712500Y-109700000D02*
X106100000Y-109900000D01*
X116100000Y-117400000D02*
X116080000Y-117380000D01*
X112200000Y-118600000D02*
X112200000Y-119350000D01*
X105200000Y-113580000D02*
X105200000Y-114400000D01*
X97725000Y-94325000D02*
X97725000Y-93225000D01*
X101437500Y-94325000D02*
X101437500Y-93237500D01*
X97725000Y-93225000D02*
X97700000Y-93200000D01*
X104500000Y-105300000D02*
X105475000Y-104325000D01*
X105825000Y-98925000D02*
X105825000Y-97925000D01*
X112200000Y-119350000D02*
X112080000Y-119470000D01*
X97375000Y-102025000D02*
X97375000Y-103375000D01*
X97375000Y-103375000D02*
X97400000Y-103400000D01*
X102385000Y-113850000D02*
X103650000Y-113850000D01*
X112170000Y-117300000D02*
X112170000Y-116470000D01*
X106712500Y-109700000D02*
X106462500Y-109950000D01*
X101437500Y-93237500D02*
X101400000Y-93200000D01*
X106800000Y-109900000D02*
X106712500Y-109700000D01*
D50*
X102385000Y-107350000D02*
X102385000Y-107195000D01*
D49*
%TO.N,3.3V*%
X112600000Y-115629740D02*
X112190000Y-115219740D01*
X109990000Y-113070000D02*
X109030000Y-113070000D01*
D51*
X105825000Y-102425000D02*
X105825000Y-100825000D01*
D49*
X116890000Y-111070000D02*
X117970000Y-111070000D01*
X112600000Y-115700000D02*
X112600000Y-115629740D01*
D50*
X102425000Y-103875000D02*
X104375000Y-103875000D01*
D49*
X106212500Y-107512500D02*
X106200000Y-107500000D01*
X112600000Y-115700000D02*
X112670260Y-115700000D01*
X105712500Y-112107500D02*
X105200000Y-112620000D01*
X109030000Y-113070000D02*
X109000000Y-113100000D01*
D50*
X103425000Y-97525000D02*
X104325000Y-98425000D01*
D49*
X109990000Y-108570000D02*
X109990000Y-107990000D01*
X106212500Y-108512500D02*
X106212500Y-107512500D01*
X105200000Y-112620000D02*
X105200000Y-111900000D01*
X110259999Y-115600000D02*
X110690000Y-115169999D01*
X109990000Y-107990000D02*
X109900000Y-107900000D01*
D50*
X103000000Y-95925000D02*
X104600000Y-95925000D01*
D49*
X105200000Y-111900000D02*
X105000000Y-111700000D01*
D50*
X104375000Y-103875000D02*
X105825000Y-102425000D01*
D49*
X110690000Y-115169999D02*
X110690000Y-114770000D01*
D50*
X103000000Y-95925000D02*
X103000000Y-97475000D01*
D49*
X113190000Y-116219740D02*
X113190000Y-116500000D01*
X109990000Y-111570000D02*
X109030000Y-111570000D01*
D50*
X104600000Y-95925000D02*
X104625000Y-95950000D01*
D49*
X112670260Y-115700000D02*
X113190000Y-116219740D01*
D50*
X104325000Y-99425000D02*
X105725000Y-100825000D01*
D49*
X109030000Y-111570000D02*
X109000000Y-111600000D01*
X117970000Y-111070000D02*
X118000000Y-111100000D01*
X105712500Y-111387500D02*
X105712500Y-112107500D01*
X111690000Y-114770000D02*
X112190000Y-114770000D01*
D50*
X103050000Y-97525000D02*
X103425000Y-97525000D01*
D52*
%TO.N,D+*%
X103400000Y-110350000D02*
X102385000Y-110350000D01*
X102385000Y-111350000D02*
X101410000Y-111350000D01*
X101450000Y-110350000D02*
X102385000Y-110350000D01*
X105025000Y-110200000D02*
X103550000Y-110200000D01*
X101410000Y-111350000D02*
X101100000Y-111040000D01*
X101100000Y-110700000D02*
X101450000Y-110350000D01*
%TO.N,D-*%
X103800000Y-110850000D02*
X102385000Y-110850000D01*
X103599422Y-109600000D02*
X103560000Y-109600000D01*
X103950000Y-110700000D02*
X105025000Y-110700000D01*
X103310000Y-109850000D02*
X102385000Y-109850000D01*
X103560000Y-109600000D02*
X103310000Y-109850000D01*
X103850000Y-110800000D02*
X103950000Y-110700000D01*
X103850000Y-110800000D02*
X103800000Y-110850000D01*
D49*
%TO.N,RX*%
X109540260Y-110070000D02*
X109990000Y-110070000D01*
X109000000Y-109699997D02*
X109170257Y-109699997D01*
X109170257Y-109699997D02*
X109540260Y-110070000D01*
%TO.N,TX*%
X109270000Y-110570000D02*
X109990000Y-110570000D01*
X109000000Y-110500000D02*
X109200000Y-110500000D01*
%TO.N,Net-(U4-EN)*%
X97775000Y-98412500D02*
X97775000Y-100150000D01*
X97775000Y-100150000D02*
X97700000Y-100225000D01*
%TO.N,OP*%
X118070000Y-109070000D02*
X116890000Y-109070000D01*
X118100000Y-109100000D02*
X118070000Y-109070000D01*
%TO.N,EN*%
X114690000Y-114770000D02*
X114690000Y-115219740D01*
X114690000Y-115219740D02*
X115100000Y-115629740D01*
X114210000Y-116500000D02*
X115120000Y-116500000D01*
X115100000Y-115629740D02*
X115100000Y-116480000D01*
X115100000Y-118100000D02*
X115100000Y-118800000D01*
X115100000Y-118800000D02*
X115000000Y-118900000D01*
X115100000Y-118100000D02*
X115100000Y-116520000D01*
%TO.N,Net-(E1-A)*%
X111200000Y-118455000D02*
X111200000Y-119390000D01*
X111120000Y-121830000D02*
X110650000Y-122300000D01*
X111120000Y-119470000D02*
X111120000Y-121830000D01*
%TO.N,Net-(U3-LNA_IN)*%
X111210000Y-117475000D02*
X111210000Y-116470000D01*
X111190000Y-116450000D02*
X111190000Y-114770000D01*
X111200000Y-117485000D02*
X111210000Y-117475000D01*
D50*
%TO.N,Net-(D2-A)*%
X104625000Y-94300000D02*
X103037500Y-94300000D01*
X103037500Y-94300000D02*
X103012500Y-94325000D01*
%TD*%
%TA.AperFunction,Conductor*%
%TO.N,TMC_RX*%
G36*
X110473256Y-106147876D02*
G01*
X110479363Y-106154135D01*
X110808361Y-106954437D01*
X110808337Y-106963392D01*
X110801989Y-106969707D01*
X110797540Y-106970586D01*
X110566870Y-106970586D01*
X110563225Y-106970004D01*
X109978607Y-106778308D01*
X109971813Y-106772474D01*
X109970834Y-106764636D01*
X110073637Y-106305088D01*
X110078788Y-106297764D01*
X110080813Y-106296740D01*
X110464305Y-106147679D01*
X110473256Y-106147876D01*
G37*
%TD.AperFunction*%
%TD*%
%TA.AperFunction,Conductor*%
%TO.N,4.5V-30V*%
G36*
X98977096Y-99559396D02*
G01*
X99443108Y-99746327D01*
X99449510Y-99752588D01*
X99450191Y-99759644D01*
X99351315Y-100219878D01*
X99346227Y-100227246D01*
X99344175Y-100228301D01*
X98959399Y-100380330D01*
X98950446Y-100380183D01*
X98944959Y-100375284D01*
X98859775Y-100227246D01*
X98485090Y-99576091D01*
X98483934Y-99567211D01*
X98489396Y-99560115D01*
X98495231Y-99558556D01*
X98972741Y-99558556D01*
X98977096Y-99559396D01*
G37*
%TD.AperFunction*%
%TD*%
%TA.AperFunction,Conductor*%
%TO.N,TMC_STEP*%
G36*
X117773963Y-90852231D02*
G01*
X117775412Y-90852520D01*
X117775414Y-90852520D01*
X117804276Y-90852520D01*
X117808874Y-90853461D01*
X118126585Y-90989241D01*
X118132846Y-90995644D01*
X118132746Y-91004598D01*
X118126584Y-91010759D01*
X117808875Y-91146538D01*
X117804279Y-91147479D01*
X117775410Y-91147479D01*
X117773957Y-91147767D01*
X117769612Y-91147805D01*
X117652390Y-91126731D01*
X117644854Y-91121895D01*
X117642760Y-91115216D01*
X117642760Y-90884783D01*
X117646187Y-90876510D01*
X117652388Y-90873268D01*
X117769618Y-90852192D01*
X117773963Y-90852231D01*
G37*
%TD.AperFunction*%
%TD*%
%TA.AperFunction,Conductor*%
%TO.N,TMC_STEP*%
G36*
X117145716Y-90478890D02*
G01*
X117149980Y-90486764D01*
X117150043Y-90487935D01*
X117150992Y-90772632D01*
X117150088Y-90777182D01*
X117040325Y-91039885D01*
X117033973Y-91046197D01*
X117025018Y-91046170D01*
X117023674Y-91045504D01*
X116578811Y-90788378D01*
X116573363Y-90781271D01*
X116572966Y-90778248D01*
X116572966Y-90545546D01*
X116576393Y-90537273D01*
X116583455Y-90533909D01*
X117137135Y-90476337D01*
X117145716Y-90478890D01*
G37*
%TD.AperFunction*%
%TD*%
%TA.AperFunction,Conductor*%
%TO.N,TMC_STEP*%
G36*
X117370164Y-90571381D02*
G01*
X117370352Y-90571575D01*
X117653610Y-90871619D01*
X117656802Y-90879650D01*
X117656802Y-91112089D01*
X117653375Y-91120362D01*
X117645102Y-91123789D01*
X117643953Y-91123732D01*
X117160515Y-91076037D01*
X117152619Y-91071815D01*
X117149964Y-91064435D01*
X117149016Y-90779884D01*
X117152414Y-90771601D01*
X117353618Y-90571341D01*
X117361899Y-90567935D01*
X117370164Y-90571381D01*
G37*
%TD.AperFunction*%
%TD*%
%TA.AperFunction,Conductor*%
%TO.N,TMC_RX*%
G36*
X118754876Y-89373833D02*
G01*
X118762286Y-89378861D01*
X118764211Y-89385291D01*
X118764211Y-89618090D01*
X118760784Y-89626363D01*
X118757179Y-89628819D01*
X118300691Y-89827427D01*
X118291737Y-89827585D01*
X118285294Y-89821366D01*
X118285263Y-89821295D01*
X118175883Y-89559509D01*
X118175857Y-89550556D01*
X118175862Y-89550542D01*
X118286088Y-89286730D01*
X118292439Y-89280420D01*
X118299247Y-89279785D01*
X118754876Y-89373833D01*
G37*
%TD.AperFunction*%
%TD*%
%TA.AperFunction,Conductor*%
%TO.N,TMC_RX*%
G36*
X118999974Y-89351345D02*
G01*
X119001535Y-89352647D01*
X119024800Y-89375760D01*
X119142265Y-89492460D01*
X119145719Y-89500722D01*
X119142319Y-89509006D01*
X119142265Y-89509060D01*
X119001541Y-89648867D01*
X118993257Y-89652267D01*
X118991225Y-89652082D01*
X118854450Y-89627491D01*
X118846913Y-89622655D01*
X118844820Y-89615976D01*
X118844820Y-89385543D01*
X118848247Y-89377270D01*
X118854448Y-89374028D01*
X118991227Y-89349437D01*
X118999974Y-89351345D01*
G37*
%TD.AperFunction*%
%TD*%
%TA.AperFunction,Conductor*%
%TO.N,TMC_RX*%
G36*
X110642675Y-105560290D02*
G01*
X110646410Y-105562801D01*
X110811889Y-105728280D01*
X110815316Y-105736553D01*
X110814211Y-105741516D01*
X110479732Y-106455582D01*
X110473120Y-106461620D01*
X110464683Y-106461438D01*
X110080156Y-106303121D01*
X110073810Y-106296802D01*
X110073114Y-106294476D01*
X109986092Y-105834397D01*
X109987921Y-105825632D01*
X109993169Y-105821389D01*
X110633721Y-105560240D01*
X110642675Y-105560290D01*
G37*
%TD.AperFunction*%
%TD*%
%TA.AperFunction,Conductor*%
%TO.N,TMC_RX*%
G36*
X112885341Y-92100329D02*
G01*
X113147815Y-92208103D01*
X113151663Y-92210671D01*
X113352187Y-92412141D01*
X113355594Y-92420423D01*
X113352148Y-92428688D01*
X113350479Y-92430066D01*
X112977980Y-92683707D01*
X112971395Y-92685736D01*
X112739990Y-92685736D01*
X112731717Y-92682309D01*
X112728290Y-92674036D01*
X112728640Y-92671195D01*
X112789349Y-92428688D01*
X112869552Y-92108310D01*
X112874885Y-92101119D01*
X112883742Y-92099804D01*
X112885341Y-92100329D01*
G37*
%TD.AperFunction*%
%TD*%
%TA.AperFunction,Conductor*%
%TO.N,TMC_DIR*%
G36*
X116932441Y-92225333D02*
G01*
X116937819Y-92231192D01*
X117047625Y-92493999D01*
X117047652Y-92502954D01*
X117047625Y-92503021D01*
X116937819Y-92765827D01*
X116931467Y-92772139D01*
X116923522Y-92772480D01*
X116456709Y-92626081D01*
X116449840Y-92620335D01*
X116448510Y-92614917D01*
X116448510Y-92382102D01*
X116451937Y-92373829D01*
X116456706Y-92370939D01*
X116923523Y-92224539D01*
X116932441Y-92225333D01*
G37*
%TD.AperFunction*%
%TD*%
%TA.AperFunction,Conductor*%
%TO.N,5V*%
G36*
X117583349Y-87223974D02*
G01*
X117749470Y-87390095D01*
X117752897Y-87398368D01*
X117752889Y-87398795D01*
X117724026Y-88188652D01*
X117720300Y-88196795D01*
X117711907Y-88199917D01*
X117709713Y-88199628D01*
X117277740Y-88100351D01*
X117270445Y-88095158D01*
X117270252Y-88094838D01*
X117006467Y-87642092D01*
X117005263Y-87633219D01*
X117009718Y-87626722D01*
X117568221Y-87222766D01*
X117576931Y-87220695D01*
X117583349Y-87223974D01*
G37*
%TD.AperFunction*%
%TD*%
%TA.AperFunction,Conductor*%
%TO.N,5V*%
G36*
X121521613Y-87221941D02*
G01*
X121785824Y-87389458D01*
X122149050Y-87619753D01*
X122154202Y-87627077D01*
X122153278Y-87634810D01*
X121926511Y-88094564D01*
X121919778Y-88100467D01*
X121919227Y-88100639D01*
X121486142Y-88224145D01*
X121477246Y-88223119D01*
X121471682Y-88216103D01*
X121471387Y-88214785D01*
X121451699Y-88094564D01*
X121337893Y-87399620D01*
X121339938Y-87390904D01*
X121341160Y-87389464D01*
X121507076Y-87223548D01*
X121515348Y-87220122D01*
X121521613Y-87221941D01*
G37*
%TD.AperFunction*%
%TD*%
%TA.AperFunction,Conductor*%
%TO.N,OB2*%
G36*
X123275440Y-94103427D02*
G01*
X123278331Y-94108199D01*
X123424730Y-94575012D01*
X123423936Y-94583931D01*
X123418077Y-94589309D01*
X123155271Y-94699115D01*
X123146316Y-94699142D01*
X123146249Y-94699115D01*
X122883442Y-94589309D01*
X122877130Y-94582957D01*
X122876789Y-94575013D01*
X123023189Y-94108199D01*
X123028935Y-94101330D01*
X123034353Y-94100000D01*
X123267167Y-94100000D01*
X123275440Y-94103427D01*
G37*
%TD.AperFunction*%
%TD*%
%TA.AperFunction,Conductor*%
%TO.N,OB2*%
G36*
X123159005Y-93509199D02*
G01*
X123298867Y-93649979D01*
X123302267Y-93658262D01*
X123302082Y-93660294D01*
X123277491Y-93797070D01*
X123272655Y-93804607D01*
X123265976Y-93806700D01*
X123035544Y-93806700D01*
X123027271Y-93803273D01*
X123024029Y-93797070D01*
X123015086Y-93747333D01*
X122999437Y-93660292D01*
X123001345Y-93651545D01*
X123002642Y-93649989D01*
X123142460Y-93509253D01*
X123150722Y-93505800D01*
X123159005Y-93509199D01*
G37*
%TD.AperFunction*%
%TD*%
%TA.AperFunction,Conductor*%
%TO.N,OA2*%
G36*
X126954892Y-104923704D02*
G01*
X127397649Y-105694170D01*
X127398800Y-105703051D01*
X127397649Y-105705830D01*
X126954892Y-106476295D01*
X126947799Y-106481760D01*
X126940165Y-106481230D01*
X125582117Y-105903030D01*
X125575847Y-105896636D01*
X125575000Y-105892265D01*
X125575000Y-105507734D01*
X125578427Y-105499461D01*
X125582113Y-105496971D01*
X126940166Y-104918768D01*
X126949119Y-104918681D01*
X126954892Y-104923704D01*
G37*
%TD.AperFunction*%
%TD*%
%TA.AperFunction,Conductor*%
%TO.N,4.5V-30V*%
G36*
X122380813Y-95273013D02*
G01*
X122388181Y-95278102D01*
X122390054Y-95284452D01*
X122390054Y-95517262D01*
X122386627Y-95525535D01*
X122382934Y-95528028D01*
X121925641Y-95722554D01*
X121916686Y-95722639D01*
X121910295Y-95716368D01*
X121910265Y-95716299D01*
X121800883Y-95454509D01*
X121800857Y-95445556D01*
X121800862Y-95445542D01*
X121911057Y-95181805D01*
X121917408Y-95175495D01*
X121924309Y-95174879D01*
X122380813Y-95273013D01*
G37*
%TD.AperFunction*%
%TD*%
%TA.AperFunction,Conductor*%
%TO.N,4.5V-30V*%
G36*
X125197038Y-94740846D02*
G01*
X125646764Y-95022348D01*
X125651958Y-95029642D01*
X125652013Y-95029891D01*
X125741464Y-95461651D01*
X125739786Y-95470448D01*
X125732381Y-95475482D01*
X125730616Y-95475709D01*
X124797130Y-95524358D01*
X124788690Y-95521367D01*
X124784837Y-95513283D01*
X124784821Y-95512674D01*
X124784821Y-95278885D01*
X124787145Y-95271886D01*
X125181456Y-94743762D01*
X125189150Y-94739184D01*
X125197038Y-94740846D01*
G37*
%TD.AperFunction*%
%TD*%
%TA.AperFunction,Conductor*%
%TO.N,Net-(U5-VCP)*%
G36*
X126350622Y-93068014D02*
G01*
X126357783Y-93071388D01*
X126524204Y-93237809D01*
X126527631Y-93246082D01*
X126525090Y-93253362D01*
X126116582Y-93767277D01*
X126108751Y-93771621D01*
X126101040Y-93769802D01*
X126097161Y-93767277D01*
X126067107Y-93747711D01*
X125658440Y-93481661D01*
X125653376Y-93474276D01*
X125654597Y-93466170D01*
X125896280Y-93031686D01*
X125903297Y-93026122D01*
X125907616Y-93025727D01*
X126350622Y-93068014D01*
G37*
%TD.AperFunction*%
%TD*%
%TA.AperFunction,Conductor*%
%TO.N,Net-(U5-VCP)*%
G36*
X123649131Y-90873268D02*
G01*
X123656667Y-90878104D01*
X123658760Y-90884783D01*
X123658760Y-91115216D01*
X123655333Y-91123489D01*
X123649130Y-91126731D01*
X123531907Y-91147805D01*
X123527561Y-91147767D01*
X123526109Y-91147479D01*
X123526108Y-91147479D01*
X123497241Y-91147479D01*
X123492644Y-91146538D01*
X123174933Y-91010758D01*
X123168673Y-91004356D01*
X123168773Y-90995402D01*
X123174933Y-90989241D01*
X123492646Y-90853461D01*
X123497244Y-90852520D01*
X123526103Y-90852520D01*
X123526108Y-90852520D01*
X123527550Y-90852232D01*
X123531901Y-90852192D01*
X123649131Y-90873268D01*
G37*
%TD.AperFunction*%
%TD*%
%TA.AperFunction,Conductor*%
%TO.N,Net-(U5-CPO)*%
G36*
X125248047Y-91497594D02*
G01*
X125643204Y-91867698D01*
X125646900Y-91875854D01*
X125644437Y-91883426D01*
X125318862Y-92301496D01*
X125311075Y-92305918D01*
X125306174Y-92305485D01*
X124733243Y-92128309D01*
X124726352Y-92122591D01*
X124725000Y-92117131D01*
X124725000Y-91881628D01*
X124728427Y-91873355D01*
X124729696Y-91872256D01*
X125233054Y-91496754D01*
X125241733Y-91494555D01*
X125248047Y-91497594D01*
G37*
%TD.AperFunction*%
%TD*%
%TA.AperFunction,Conductor*%
%TO.N,Net-(U5-CPO)*%
G36*
X123649131Y-91874028D02*
G01*
X123656667Y-91878864D01*
X123658760Y-91885543D01*
X123658760Y-92115976D01*
X123655333Y-92124249D01*
X123649130Y-92127491D01*
X123531902Y-92148566D01*
X123527556Y-92148528D01*
X123526109Y-92148241D01*
X123526108Y-92148241D01*
X123497246Y-92148241D01*
X123492648Y-92147300D01*
X123419353Y-92115976D01*
X123174933Y-92011518D01*
X123168673Y-92005116D01*
X123168773Y-91996162D01*
X123174933Y-91990001D01*
X123492648Y-91854219D01*
X123497246Y-91853279D01*
X123526106Y-91853279D01*
X123526108Y-91853279D01*
X123527551Y-91852991D01*
X123531900Y-91852952D01*
X123649131Y-91874028D01*
G37*
%TD.AperFunction*%
%TD*%
%TA.AperFunction,Conductor*%
%TO.N,Net-(U5-CPI)*%
G36*
X123523628Y-91353039D02*
G01*
X123525764Y-91353259D01*
X123530110Y-91353297D01*
X123532536Y-91353091D01*
X123535587Y-91353233D01*
X123649131Y-91373647D01*
X123656667Y-91378483D01*
X123658760Y-91385162D01*
X123658760Y-91615595D01*
X123655333Y-91623868D01*
X123649130Y-91627110D01*
X123535576Y-91647525D01*
X123532524Y-91647668D01*
X123530057Y-91647460D01*
X123530052Y-91647460D01*
X123525703Y-91647499D01*
X123523597Y-91647717D01*
X123522396Y-91647779D01*
X123497057Y-91647779D01*
X123492459Y-91646838D01*
X123174934Y-91511137D01*
X123168673Y-91504734D01*
X123168773Y-91495780D01*
X123174931Y-91489621D01*
X123492459Y-91353919D01*
X123497056Y-91352979D01*
X123497241Y-91352979D01*
X123522435Y-91352979D01*
X123523628Y-91353039D01*
G37*
%TD.AperFunction*%
%TD*%
%TA.AperFunction,Conductor*%
%TO.N,Net-(U5-CPI)*%
G36*
X125645661Y-90322588D02*
G01*
X125652403Y-90328483D01*
X125652735Y-90329216D01*
X125832016Y-90764370D01*
X125831999Y-90773325D01*
X125825845Y-90779565D01*
X125033374Y-91122540D01*
X125024420Y-91122681D01*
X125020454Y-91120075D01*
X124854831Y-90954452D01*
X124851404Y-90946179D01*
X124852297Y-90941697D01*
X124919539Y-90779565D01*
X125170811Y-90173703D01*
X125177143Y-90167377D01*
X125185358Y-90167103D01*
X125645661Y-90322588D01*
G37*
%TD.AperFunction*%
%TD*%
%TA.AperFunction,Conductor*%
%TO.N,OA1*%
G36*
X120275059Y-96253806D02*
G01*
X120277950Y-96258578D01*
X120424349Y-96725391D01*
X120423555Y-96734310D01*
X120417696Y-96739688D01*
X120154890Y-96849494D01*
X120145935Y-96849521D01*
X120145868Y-96849494D01*
X119883061Y-96739688D01*
X119876749Y-96733336D01*
X119876408Y-96725392D01*
X120022808Y-96258578D01*
X120028554Y-96251709D01*
X120033972Y-96250379D01*
X120266786Y-96250379D01*
X120275059Y-96253806D01*
G37*
%TD.AperFunction*%
%TD*%
%TA.AperFunction,Conductor*%
%TO.N,OA1*%
G36*
X120154976Y-94518773D02*
G01*
X120161137Y-94524934D01*
X120296919Y-94842648D01*
X120297860Y-94847246D01*
X120297860Y-94876108D01*
X120298147Y-94877556D01*
X120298185Y-94881902D01*
X120277110Y-94999130D01*
X120272274Y-95006666D01*
X120265595Y-95008760D01*
X120035163Y-95008760D01*
X120026890Y-95005333D01*
X120023648Y-94999130D01*
X120002572Y-94881907D01*
X120002611Y-94877556D01*
X120002900Y-94876108D01*
X120002900Y-94847241D01*
X120003841Y-94842643D01*
X120139621Y-94524931D01*
X120146022Y-94518673D01*
X120154976Y-94518773D01*
G37*
%TD.AperFunction*%
%TD*%
%TA.AperFunction,Conductor*%
%TO.N,4.5V-30V*%
G36*
X119276781Y-94900034D02*
G01*
X119278111Y-94901623D01*
X119506552Y-95229851D01*
X119508465Y-95238599D01*
X119505242Y-95244789D01*
X119303446Y-95447537D01*
X119295181Y-95450983D01*
X119295114Y-95450983D01*
X119012190Y-95450040D01*
X119003928Y-95446586D01*
X119000529Y-95438301D01*
X119000539Y-95437864D01*
X119024123Y-94907787D01*
X119027914Y-94899674D01*
X119035811Y-94896607D01*
X119268508Y-94896607D01*
X119276781Y-94900034D01*
G37*
%TD.AperFunction*%
%TD*%
%TA.AperFunction,Conductor*%
%TO.N,4.5V-30V*%
G36*
X119154218Y-94518773D02*
G01*
X119160379Y-94524934D01*
X119296159Y-94842645D01*
X119297100Y-94847243D01*
X119297100Y-94876108D01*
X119297099Y-94876108D01*
X119297387Y-94877552D01*
X119297427Y-94881903D01*
X119276351Y-94999130D01*
X119271515Y-95006667D01*
X119264836Y-95008760D01*
X119034404Y-95008760D01*
X119026131Y-95005333D01*
X119022889Y-94999130D01*
X119001812Y-94881903D01*
X118997839Y-94859804D01*
X118998594Y-94853143D01*
X119138861Y-94524933D01*
X119145264Y-94518673D01*
X119154218Y-94518773D01*
G37*
%TD.AperFunction*%
%TD*%
%TA.AperFunction,Conductor*%
%TO.N,4.5V-30V*%
G36*
X122268666Y-94999188D02*
G01*
X122272093Y-95007461D01*
X122271433Y-95011336D01*
X122081246Y-95553175D01*
X122075272Y-95559846D01*
X122066331Y-95560340D01*
X122065762Y-95560123D01*
X121804510Y-95452852D01*
X121798160Y-95446542D01*
X121689287Y-95182750D01*
X121689298Y-95173797D01*
X121694718Y-95167901D01*
X122024368Y-94997072D01*
X122029751Y-94995761D01*
X122260393Y-94995761D01*
X122268666Y-94999188D01*
G37*
%TD.AperFunction*%
%TD*%
%TA.AperFunction,Conductor*%
%TO.N,4.5V-30V*%
G36*
X122156497Y-94518773D02*
G01*
X122162658Y-94524934D01*
X122302924Y-94853140D01*
X122303680Y-94859808D01*
X122278631Y-94999130D01*
X122273795Y-95006667D01*
X122267116Y-95008760D01*
X122036684Y-95008760D01*
X122028411Y-95005333D01*
X122025169Y-94999130D01*
X122019012Y-94964890D01*
X122004092Y-94881901D01*
X122004133Y-94877549D01*
X122004420Y-94876108D01*
X122004420Y-94847243D01*
X122005361Y-94842645D01*
X122141142Y-94524931D01*
X122147543Y-94518673D01*
X122156497Y-94518773D01*
G37*
%TD.AperFunction*%
%TD*%
%TA.AperFunction,Conductor*%
%TO.N,OB1*%
G36*
X126954892Y-99923704D02*
G01*
X127397649Y-100694170D01*
X127398800Y-100703051D01*
X127397649Y-100705830D01*
X126954892Y-101476295D01*
X126947799Y-101481760D01*
X126940165Y-101481230D01*
X125582117Y-100903030D01*
X125575847Y-100896636D01*
X125575000Y-100892265D01*
X125575000Y-100507734D01*
X125578427Y-100499461D01*
X125582113Y-100496971D01*
X126940166Y-99918768D01*
X126949119Y-99918681D01*
X126954892Y-99923704D01*
G37*
%TD.AperFunction*%
%TD*%
%TA.AperFunction,Conductor*%
%TO.N,OB1*%
G36*
X121155739Y-94518773D02*
G01*
X121161900Y-94524934D01*
X121297679Y-94842643D01*
X121298620Y-94847241D01*
X121298620Y-94876108D01*
X121298908Y-94877561D01*
X121298946Y-94881907D01*
X121277872Y-94999130D01*
X121273036Y-95006666D01*
X121266357Y-95008760D01*
X121035925Y-95008760D01*
X121027652Y-95005333D01*
X121024410Y-94999130D01*
X121003333Y-94881902D01*
X121003372Y-94877551D01*
X121003660Y-94876108D01*
X121003660Y-94847246D01*
X121004601Y-94842648D01*
X121140382Y-94524934D01*
X121146785Y-94518673D01*
X121155739Y-94518773D01*
G37*
%TD.AperFunction*%
%TD*%
%TA.AperFunction,Conductor*%
%TO.N,GND*%
G36*
X124246615Y-92329566D02*
G01*
X124250757Y-92337506D01*
X124250802Y-92338496D01*
X124251752Y-92623392D01*
X124250848Y-92627942D01*
X124141198Y-92890374D01*
X124134846Y-92896686D01*
X124125891Y-92896659D01*
X124124329Y-92895864D01*
X123685781Y-92629557D01*
X123680488Y-92622333D01*
X123680154Y-92619556D01*
X123680154Y-92386853D01*
X123683581Y-92378580D01*
X123690822Y-92375199D01*
X124238073Y-92326880D01*
X124246615Y-92329566D01*
G37*
%TD.AperFunction*%
%TD*%
%TA.AperFunction,Conductor*%
%TO.N,GND*%
G36*
X123523631Y-92353801D02*
G01*
X123525759Y-92354020D01*
X123530105Y-92354058D01*
X123532531Y-92353852D01*
X123535581Y-92353994D01*
X123649131Y-92374409D01*
X123656667Y-92379245D01*
X123658760Y-92385924D01*
X123658760Y-92616357D01*
X123655333Y-92624630D01*
X123649130Y-92627872D01*
X123531907Y-92648946D01*
X123527561Y-92648908D01*
X123526109Y-92648620D01*
X123526108Y-92648620D01*
X123497241Y-92648620D01*
X123492644Y-92647679D01*
X123174933Y-92511899D01*
X123168673Y-92505497D01*
X123168773Y-92496543D01*
X123174933Y-92490382D01*
X123492459Y-92354682D01*
X123497057Y-92353741D01*
X123497246Y-92353741D01*
X123522440Y-92353741D01*
X123523631Y-92353801D01*
G37*
%TD.AperFunction*%
%TD*%
%TA.AperFunction,Conductor*%
%TO.N,GND*%
G36*
X122506620Y-91313686D02*
G01*
X122510281Y-91316317D01*
X122591491Y-91402846D01*
X122594660Y-91410851D01*
X122594660Y-91672526D01*
X122606293Y-91731010D01*
X122615018Y-91744069D01*
X122616765Y-91752852D01*
X122615019Y-91757068D01*
X122606293Y-91770129D01*
X122594660Y-91828612D01*
X122594660Y-92172908D01*
X122606293Y-92231391D01*
X122650608Y-92297712D01*
X122716929Y-92342027D01*
X122775412Y-92353660D01*
X123478796Y-92353660D01*
X123487069Y-92357087D01*
X123487327Y-92357353D01*
X123501791Y-92372764D01*
X123504960Y-92380771D01*
X123504960Y-92620122D01*
X123501533Y-92628395D01*
X123500065Y-92629639D01*
X123476572Y-92646437D01*
X123469767Y-92648620D01*
X122775412Y-92648620D01*
X122746170Y-92654436D01*
X122716928Y-92660253D01*
X122650608Y-92704567D01*
X122650607Y-92704568D01*
X122606293Y-92770888D01*
X122594660Y-92829372D01*
X122594660Y-93173667D01*
X122606293Y-93232151D01*
X122615018Y-93245209D01*
X122616765Y-93253992D01*
X122615018Y-93258209D01*
X122610796Y-93264528D01*
X122607873Y-93267545D01*
X122511801Y-93336236D01*
X122503078Y-93338261D01*
X122498144Y-93336203D01*
X120667502Y-92013578D01*
X120662803Y-92005955D01*
X120664870Y-91997242D01*
X120670273Y-91993129D01*
X122497672Y-91313358D01*
X122506620Y-91313686D01*
G37*
%TD.AperFunction*%
%TD*%
%TA.AperFunction,Conductor*%
%TO.N,GND*%
G36*
X122773969Y-92353373D02*
G01*
X122775412Y-92353660D01*
X122804274Y-92353660D01*
X122808871Y-92354600D01*
X122882164Y-92385924D01*
X123126585Y-92490382D01*
X123132846Y-92496785D01*
X123132746Y-92505739D01*
X123126584Y-92511900D01*
X122808875Y-92647679D01*
X122804279Y-92648620D01*
X122775410Y-92648620D01*
X122773957Y-92648908D01*
X122769612Y-92648946D01*
X122652390Y-92627872D01*
X122644854Y-92623036D01*
X122642760Y-92616357D01*
X122642760Y-92385924D01*
X122646187Y-92377651D01*
X122652388Y-92374409D01*
X122769618Y-92353333D01*
X122773969Y-92353373D01*
G37*
%TD.AperFunction*%
%TD*%
%TA.AperFunction,Conductor*%
%TO.N,GND*%
G36*
X119778169Y-89149026D02*
G01*
X119792965Y-89160538D01*
X119797389Y-89168322D01*
X119797479Y-89169771D01*
X119797479Y-89876108D01*
X119809112Y-89934591D01*
X119853427Y-90000912D01*
X119919748Y-90045227D01*
X119978231Y-90056860D01*
X119978232Y-90056860D01*
X120322526Y-90056860D01*
X120322527Y-90056860D01*
X120381010Y-90045227D01*
X120394070Y-90036499D01*
X120402851Y-90034753D01*
X120407067Y-90036499D01*
X120420129Y-90045227D01*
X120478612Y-90056860D01*
X120478613Y-90056860D01*
X120822907Y-90056860D01*
X120822908Y-90056860D01*
X120881391Y-90045227D01*
X120894451Y-90036499D01*
X120903232Y-90034753D01*
X120907448Y-90036499D01*
X120920510Y-90045227D01*
X120930441Y-90047202D01*
X120935340Y-90049441D01*
X121050552Y-90139090D01*
X121054319Y-90142021D01*
X121058744Y-90149806D01*
X121058559Y-90153776D01*
X120655591Y-91979864D01*
X120650462Y-91987205D01*
X120641645Y-91988768D01*
X120635563Y-91985272D01*
X120630579Y-91979864D01*
X118946718Y-90152919D01*
X118943632Y-90144516D01*
X118945217Y-90139095D01*
X118989868Y-90062658D01*
X118997000Y-90057243D01*
X118999971Y-90056860D01*
X119321767Y-90056860D01*
X119321768Y-90056860D01*
X119380251Y-90045227D01*
X119446572Y-90000912D01*
X119490887Y-89934591D01*
X119502520Y-89876108D01*
X119502520Y-89188210D01*
X119504117Y-89182309D01*
X119511441Y-89169771D01*
X119521612Y-89152358D01*
X119528744Y-89146943D01*
X119531715Y-89146560D01*
X119770984Y-89146560D01*
X119778169Y-89149026D01*
G37*
%TD.AperFunction*%
%TD*%
%TA.AperFunction,Conductor*%
%TO.N,GND*%
G36*
X119654597Y-89518773D02*
G01*
X119660758Y-89524934D01*
X119796538Y-89842643D01*
X119797479Y-89847241D01*
X119797479Y-89876108D01*
X119797767Y-89877561D01*
X119797805Y-89881907D01*
X119776731Y-89999130D01*
X119771895Y-90006666D01*
X119765216Y-90008760D01*
X119534784Y-90008760D01*
X119526511Y-90005333D01*
X119523269Y-89999130D01*
X119517112Y-89964890D01*
X119502192Y-89881901D01*
X119502233Y-89877549D01*
X119502520Y-89876108D01*
X119502520Y-89847241D01*
X119503461Y-89842645D01*
X119503462Y-89842643D01*
X119639242Y-89524931D01*
X119645643Y-89518673D01*
X119654597Y-89518773D01*
G37*
%TD.AperFunction*%
%TD*%
%TA.AperFunction,Conductor*%
%TO.N,GND*%
G36*
X118803703Y-91004610D02*
G01*
X120042820Y-91672526D01*
X120632653Y-91990461D01*
X120638310Y-91997403D01*
X120637401Y-92006311D01*
X120632653Y-92011059D01*
X118803706Y-92996907D01*
X118794798Y-92997816D01*
X118790450Y-92995413D01*
X118710855Y-92925767D01*
X118706886Y-92917740D01*
X118706860Y-92916962D01*
X118706860Y-92829372D01*
X118695227Y-92770889D01*
X118686500Y-92757829D01*
X118684754Y-92749048D01*
X118686499Y-92744833D01*
X118695227Y-92731772D01*
X118706860Y-92673289D01*
X118706860Y-92328993D01*
X118695227Y-92270510D01*
X118650912Y-92204189D01*
X118584591Y-92159874D01*
X118526108Y-92148241D01*
X117826648Y-92148241D01*
X117818944Y-92145346D01*
X117800554Y-92129255D01*
X117796586Y-92121229D01*
X117796560Y-92120451D01*
X117796560Y-91881068D01*
X117799987Y-91872795D01*
X117800547Y-91872270D01*
X117818944Y-91856174D01*
X117826648Y-91853279D01*
X118526107Y-91853279D01*
X118526108Y-91853279D01*
X118584591Y-91841646D01*
X118650912Y-91797331D01*
X118695227Y-91731010D01*
X118706860Y-91672527D01*
X118706860Y-91328231D01*
X118695227Y-91269748D01*
X118686500Y-91256688D01*
X118684754Y-91247907D01*
X118686499Y-91243692D01*
X118695227Y-91230631D01*
X118706860Y-91172148D01*
X118706860Y-91084555D01*
X118710287Y-91076282D01*
X118710824Y-91075778D01*
X118790452Y-91006103D01*
X118798932Y-91003236D01*
X118803703Y-91004610D01*
G37*
%TD.AperFunction*%
%TD*%
%TA.AperFunction,Conductor*%
%TO.N,GND*%
G36*
X118649131Y-91874028D02*
G01*
X118656667Y-91878864D01*
X118658760Y-91885543D01*
X118658760Y-92115976D01*
X118655333Y-92124249D01*
X118649130Y-92127491D01*
X118531902Y-92148566D01*
X118527556Y-92148528D01*
X118526109Y-92148241D01*
X118526108Y-92148241D01*
X118497246Y-92148241D01*
X118492648Y-92147300D01*
X118419353Y-92115976D01*
X118174933Y-92011518D01*
X118168673Y-92005116D01*
X118168773Y-91996162D01*
X118174933Y-91990001D01*
X118492648Y-91854219D01*
X118497246Y-91853279D01*
X118526106Y-91853279D01*
X118526108Y-91853279D01*
X118527551Y-91852991D01*
X118531900Y-91852952D01*
X118649131Y-91874028D01*
G37*
%TD.AperFunction*%
%TD*%
%TA.AperFunction,Conductor*%
%TO.N,GND*%
G36*
X116307929Y-91292645D02*
G01*
X116817012Y-91545285D01*
X116822898Y-91552031D01*
X116823510Y-91555764D01*
X116823510Y-91791255D01*
X116820083Y-91799528D01*
X116817011Y-91801735D01*
X116307930Y-92054373D01*
X116298996Y-92054981D01*
X116294102Y-92051797D01*
X116062969Y-91799528D01*
X115954750Y-91681412D01*
X115951689Y-91672999D01*
X115954750Y-91665607D01*
X116294103Y-91295221D01*
X116302218Y-91291437D01*
X116307929Y-91292645D01*
G37*
%TD.AperFunction*%
%TD*%
%TA.AperFunction,Conductor*%
%TO.N,GND*%
G36*
X117773969Y-91852992D02*
G01*
X117775412Y-91853279D01*
X117804274Y-91853279D01*
X117808871Y-91854219D01*
X117882164Y-91885543D01*
X118126585Y-91990001D01*
X118132846Y-91996404D01*
X118132746Y-92005358D01*
X118126584Y-92011519D01*
X117866539Y-92122655D01*
X117808872Y-92147300D01*
X117804274Y-92148241D01*
X117775410Y-92148241D01*
X117773962Y-92148528D01*
X117769617Y-92148566D01*
X117652390Y-92127491D01*
X117644854Y-92122655D01*
X117642760Y-92115976D01*
X117642760Y-91885543D01*
X117646187Y-91877270D01*
X117652388Y-91874028D01*
X117769618Y-91852952D01*
X117773969Y-91852992D01*
G37*
%TD.AperFunction*%
%TD*%
%TA.AperFunction,Conductor*%
%TO.N,Net-(U5-STDBY)*%
G36*
X116307929Y-92942645D02*
G01*
X116817012Y-93195285D01*
X116822898Y-93202031D01*
X116823510Y-93205764D01*
X116823510Y-93441255D01*
X116820083Y-93449528D01*
X116817011Y-93451735D01*
X116307930Y-93704373D01*
X116298996Y-93704981D01*
X116294102Y-93701797D01*
X116062969Y-93449528D01*
X115954750Y-93331412D01*
X115951689Y-93322999D01*
X115954750Y-93315607D01*
X116294103Y-92945221D01*
X116302218Y-92941437D01*
X116307929Y-92942645D01*
G37*
%TD.AperFunction*%
%TD*%
%TA.AperFunction,Conductor*%
%TO.N,Net-(U5-STDBY)*%
G36*
X117773964Y-92853753D02*
G01*
X117775412Y-92854041D01*
X117804279Y-92854041D01*
X117808875Y-92854981D01*
X118126586Y-92990761D01*
X118132846Y-92997163D01*
X118132746Y-93006117D01*
X118126585Y-93012278D01*
X117808874Y-93148059D01*
X117804276Y-93149000D01*
X117775412Y-93149000D01*
X117774050Y-93149270D01*
X117773964Y-93149288D01*
X117769615Y-93149327D01*
X117652390Y-93128251D01*
X117644853Y-93123415D01*
X117642760Y-93116736D01*
X117642760Y-92886303D01*
X117646187Y-92878030D01*
X117652388Y-92874788D01*
X117769613Y-92853713D01*
X117773964Y-92853753D01*
G37*
%TD.AperFunction*%
%TD*%
%TA.AperFunction,Conductor*%
%TO.N,5V*%
G36*
X117280697Y-88103107D02*
G01*
X117698420Y-88428413D01*
X117702842Y-88436199D01*
X117701416Y-88443400D01*
X117376869Y-89017567D01*
X117369815Y-89023083D01*
X117366684Y-89023510D01*
X117130869Y-89023510D01*
X117122596Y-89020083D01*
X117120323Y-89016876D01*
X116844721Y-88443116D01*
X116844227Y-88434175D01*
X116848078Y-88428819D01*
X116848601Y-88428412D01*
X117266321Y-88103107D01*
X117274954Y-88100728D01*
X117280697Y-88103107D01*
G37*
%TD.AperFunction*%
%TD*%
%TA.AperFunction,Conductor*%
%TO.N,5V*%
G36*
X117987193Y-90157922D02*
G01*
X118207323Y-90341740D01*
X118211477Y-90349672D01*
X118210658Y-90355137D01*
X118155967Y-90489287D01*
X118149671Y-90495654D01*
X118140716Y-90495704D01*
X118140514Y-90495620D01*
X117805314Y-90351583D01*
X117799066Y-90345168D01*
X117798938Y-90336836D01*
X117801324Y-90330278D01*
X117804041Y-90326013D01*
X117971424Y-90158630D01*
X117979696Y-90155204D01*
X117987193Y-90157922D01*
G37*
%TD.AperFunction*%
%TD*%
%TA.AperFunction,Conductor*%
%TO.N,GND*%
G36*
X119934138Y-87916492D02*
G01*
X120369293Y-88095774D01*
X120375637Y-88102094D01*
X120375921Y-88102848D01*
X120531406Y-88563149D01*
X120530807Y-88572083D01*
X120524803Y-88577700D01*
X119756812Y-88896212D01*
X119747857Y-88896216D01*
X119744057Y-88893678D01*
X119578434Y-88728055D01*
X119575007Y-88719782D01*
X119575969Y-88715135D01*
X119918944Y-87922664D01*
X119925375Y-87916432D01*
X119934138Y-87916492D01*
G37*
%TD.AperFunction*%
%TD*%
%TA.AperFunction,Conductor*%
%TO.N,GND*%
G36*
X119773489Y-88996187D02*
G01*
X119776731Y-89002390D01*
X119797805Y-89119612D01*
X119797767Y-89123957D01*
X119797479Y-89125409D01*
X119797479Y-89154277D01*
X119796538Y-89158875D01*
X119660758Y-89476585D01*
X119654355Y-89482846D01*
X119645401Y-89482746D01*
X119639241Y-89476586D01*
X119548440Y-89264122D01*
X119503461Y-89158873D01*
X119502520Y-89154275D01*
X119502520Y-89125414D01*
X119502519Y-89125409D01*
X119502231Y-89123963D01*
X119502192Y-89119618D01*
X119523269Y-89002390D01*
X119528105Y-88994853D01*
X119534784Y-88992760D01*
X119765216Y-88992760D01*
X119773489Y-88996187D01*
G37*
%TD.AperFunction*%
%TD*%
%TA.AperFunction,Conductor*%
%TO.N,GND*%
G36*
X120056738Y-87657006D02*
G01*
X120369590Y-88091675D01*
X120371642Y-88100392D01*
X120369590Y-88105345D01*
X120056738Y-88540013D01*
X120049124Y-88544726D01*
X120041501Y-88543373D01*
X119479469Y-88226865D01*
X119473942Y-88219819D01*
X119473510Y-88216670D01*
X119473510Y-87980349D01*
X119476937Y-87972076D01*
X119479469Y-87970154D01*
X120041503Y-87653645D01*
X120050391Y-87652573D01*
X120056738Y-87657006D01*
G37*
%TD.AperFunction*%
%TD*%
%TA.AperFunction,Conductor*%
%TO.N,GND*%
G36*
X119155516Y-87653645D02*
G01*
X119161484Y-87657006D01*
X119717551Y-87970154D01*
X119723078Y-87977200D01*
X119723510Y-87980349D01*
X119723510Y-88216670D01*
X119720083Y-88224943D01*
X119717551Y-88226865D01*
X119155518Y-88543373D01*
X119146628Y-88544446D01*
X119140281Y-88540013D01*
X118913510Y-88224943D01*
X118827428Y-88105344D01*
X118825377Y-88096628D01*
X118827429Y-88091675D01*
X118907556Y-87980349D01*
X119140282Y-87657004D01*
X119147895Y-87652293D01*
X119155516Y-87653645D01*
G37*
%TD.AperFunction*%
%TD*%
%TA.AperFunction,Conductor*%
%TO.N,TMC_TX*%
G36*
X111336319Y-106168177D02*
G01*
X111719237Y-106297060D01*
X111725985Y-106302947D01*
X111726724Y-106304829D01*
X111862860Y-106764909D01*
X111861922Y-106773815D01*
X111856128Y-106779035D01*
X111317153Y-107002829D01*
X111312666Y-107003723D01*
X111080873Y-107003723D01*
X111072600Y-107000296D01*
X111069173Y-106992023D01*
X111069697Y-106988561D01*
X111138975Y-106764909D01*
X111321453Y-106175814D01*
X111327173Y-106168928D01*
X111336090Y-106168103D01*
X111336319Y-106168177D01*
G37*
%TD.AperFunction*%
%TD*%
%TA.AperFunction,Conductor*%
%TO.N,GND*%
G36*
X108302979Y-107364397D02*
G01*
X108306311Y-107371179D01*
X108377819Y-107927834D01*
X108375474Y-107936477D01*
X108367705Y-107940930D01*
X108366253Y-107941025D01*
X108081875Y-107941973D01*
X108077325Y-107941069D01*
X108077114Y-107940981D01*
X108040387Y-107925635D01*
X107814298Y-107831170D01*
X107807986Y-107824818D01*
X107808013Y-107815863D01*
X107808521Y-107814802D01*
X108051678Y-107367085D01*
X108058638Y-107361451D01*
X108061960Y-107360970D01*
X108294706Y-107360970D01*
X108302979Y-107364397D01*
G37*
%TD.AperFunction*%
%TD*%
%TA.AperFunction,Conductor*%
%TO.N,GND*%
G36*
X108187491Y-107205246D02*
G01*
X108393878Y-107377329D01*
X108442852Y-107418164D01*
X108447011Y-107426094D01*
X108446245Y-107431438D01*
X108307920Y-107782588D01*
X108301699Y-107789030D01*
X108297034Y-107790000D01*
X108062966Y-107790000D01*
X108054693Y-107786573D01*
X108052080Y-107782588D01*
X107913754Y-107431438D01*
X107913910Y-107422485D01*
X107917145Y-107418165D01*
X108172508Y-107205246D01*
X108181056Y-107202581D01*
X108187491Y-107205246D01*
G37*
%TD.AperFunction*%
%TD*%
%TA.AperFunction,Conductor*%
%TO.N,5V*%
G36*
X121931964Y-88102226D02*
G01*
X122366486Y-88344592D01*
X122372042Y-88351615D01*
X122372369Y-88356469D01*
X122278339Y-89012795D01*
X122273773Y-89020499D01*
X122266757Y-89022836D01*
X122032008Y-89022836D01*
X122023735Y-89019409D01*
X122023427Y-89019089D01*
X121572542Y-88532624D01*
X121569431Y-88524227D01*
X121572151Y-88517161D01*
X121917295Y-88104932D01*
X121925233Y-88100790D01*
X121931964Y-88102226D01*
G37*
%TD.AperFunction*%
%TD*%
%TA.AperFunction,Conductor*%
%TO.N,5V*%
G36*
X122275389Y-88996187D02*
G01*
X122278631Y-89002390D01*
X122303680Y-89141711D01*
X122302924Y-89148379D01*
X122162659Y-89476585D01*
X122156256Y-89482846D01*
X122147302Y-89482746D01*
X122141141Y-89476585D01*
X122005361Y-89158873D01*
X122004420Y-89154275D01*
X122004420Y-89125414D01*
X122004420Y-89125412D01*
X122004131Y-89123963D01*
X122004092Y-89119618D01*
X122025169Y-89002390D01*
X122030005Y-88994853D01*
X122036684Y-88992760D01*
X122267116Y-88992760D01*
X122275389Y-88996187D01*
G37*
%TD.AperFunction*%
%TD*%
%TA.AperFunction,Conductor*%
%TO.N,TMC_DIR*%
G36*
X117203138Y-92234064D02*
G01*
X117208540Y-92237688D01*
X117222189Y-92253954D01*
X117259160Y-92275298D01*
X117260004Y-92275837D01*
X117294960Y-92300313D01*
X117307515Y-92303677D01*
X117310333Y-92304844D01*
X117321599Y-92311348D01*
X117321600Y-92311348D01*
X117321602Y-92311349D01*
X117342284Y-92314995D01*
X117363637Y-92318760D01*
X117364605Y-92318974D01*
X117405837Y-92330023D01*
X117405838Y-92330022D01*
X117405839Y-92330023D01*
X117448336Y-92326305D01*
X117449356Y-92326260D01*
X117489985Y-92326260D01*
X117493543Y-92326814D01*
X117639847Y-92373541D01*
X117646685Y-92379322D01*
X117647987Y-92384686D01*
X117647987Y-92617506D01*
X117644560Y-92625779D01*
X117639736Y-92628686D01*
X117488002Y-92675500D01*
X117484553Y-92676020D01*
X117444104Y-92676020D01*
X117443084Y-92675975D01*
X117400580Y-92672255D01*
X117400577Y-92672255D01*
X117359353Y-92683301D01*
X117358357Y-92683522D01*
X117316339Y-92690932D01*
X117305076Y-92697433D01*
X117302256Y-92698601D01*
X117289702Y-92701965D01*
X117289695Y-92701968D01*
X117254742Y-92726441D01*
X117253882Y-92726989D01*
X117216933Y-92748322D01*
X117216929Y-92748326D01*
X117206909Y-92760265D01*
X117201396Y-92763923D01*
X117173464Y-92772541D01*
X117164549Y-92771706D01*
X117159219Y-92765873D01*
X117049393Y-92503019D01*
X117049367Y-92494066D01*
X117049372Y-92494052D01*
X117159179Y-92231243D01*
X117165531Y-92224932D01*
X117173535Y-92224610D01*
X117203138Y-92234064D01*
G37*
%TD.AperFunction*%
%TD*%
%TA.AperFunction,Conductor*%
%TO.N,TMC_DIR*%
G36*
X117809061Y-92354682D02*
G01*
X118126585Y-92490382D01*
X118132846Y-92496785D01*
X118132746Y-92505739D01*
X118126584Y-92511900D01*
X117809060Y-92647600D01*
X117804464Y-92648541D01*
X117779158Y-92648541D01*
X117777958Y-92648479D01*
X117775857Y-92648262D01*
X117774609Y-92648250D01*
X117771502Y-92648222D01*
X117771501Y-92648222D01*
X117771492Y-92648222D01*
X117769000Y-92648432D01*
X117765950Y-92648288D01*
X117652390Y-92627872D01*
X117644854Y-92623036D01*
X117642760Y-92616357D01*
X117642760Y-92385924D01*
X117646187Y-92377651D01*
X117652388Y-92374409D01*
X117765938Y-92353994D01*
X117768987Y-92353852D01*
X117771414Y-92354058D01*
X117775759Y-92354020D01*
X117777886Y-92353801D01*
X117779078Y-92353741D01*
X117804463Y-92353741D01*
X117809061Y-92354682D01*
G37*
%TD.AperFunction*%
%TD*%
%TA.AperFunction,Conductor*%
%TO.N,3.3V*%
G36*
X107003183Y-106927151D02*
G01*
X107118712Y-107071868D01*
X107215173Y-107192701D01*
X107217656Y-107201304D01*
X107215173Y-107207299D01*
X107003185Y-107472847D01*
X106995345Y-107477175D01*
X106989158Y-107476180D01*
X106666817Y-107328131D01*
X106660729Y-107321564D01*
X106660000Y-107317499D01*
X106660000Y-107082500D01*
X106663427Y-107074227D01*
X106666812Y-107071870D01*
X106989160Y-106923818D01*
X106998106Y-106923480D01*
X107003183Y-106927151D01*
G37*
%TD.AperFunction*%
%TD*%
%TA.AperFunction,Conductor*%
%TO.N,3.3V*%
G36*
X106670052Y-107079955D02*
G01*
X106675386Y-107087149D01*
X106675736Y-107089990D01*
X106675736Y-107321394D01*
X106673707Y-107327979D01*
X106420066Y-107700479D01*
X106412577Y-107705389D01*
X106403810Y-107703565D01*
X106402141Y-107702187D01*
X106200671Y-107501663D01*
X106198102Y-107497814D01*
X106090331Y-107235345D01*
X106090358Y-107226390D01*
X106096710Y-107220078D01*
X106098299Y-107219555D01*
X106661195Y-107078640D01*
X106670052Y-107079955D01*
G37*
%TD.AperFunction*%
%TD*%
%TA.AperFunction,Conductor*%
%TO.N,3.3V*%
G36*
X107227491Y-107205246D02*
G01*
X107469949Y-107407406D01*
X107482731Y-107418063D01*
X107486890Y-107425993D01*
X107486047Y-107431528D01*
X107340492Y-107782779D01*
X107334159Y-107789110D01*
X107329683Y-107790000D01*
X107095620Y-107790000D01*
X107087347Y-107786573D01*
X107084659Y-107782393D01*
X106953558Y-107431344D01*
X106953874Y-107422395D01*
X106957024Y-107418266D01*
X107212508Y-107205246D01*
X107221056Y-107202581D01*
X107227491Y-107205246D01*
G37*
%TD.AperFunction*%
%TD*%
%TA.AperFunction,Conductor*%
%TO.N,EN*%
G36*
X109458293Y-114315640D02*
G01*
X109459748Y-114317413D01*
X109462888Y-114322112D01*
X109549883Y-114380240D01*
X109626599Y-114395500D01*
X109641565Y-114395499D01*
X109646540Y-114396611D01*
X109904736Y-114518098D01*
X109910763Y-114524721D01*
X109910578Y-114533129D01*
X109802563Y-114796184D01*
X109796251Y-114802536D01*
X109796184Y-114802563D01*
X109532339Y-114910902D01*
X109523384Y-114910875D01*
X109517738Y-114905886D01*
X109279869Y-114489710D01*
X109278740Y-114480829D01*
X109281753Y-114475635D01*
X109441750Y-114315638D01*
X109450020Y-114312213D01*
X109458293Y-114315640D01*
G37*
%TD.AperFunction*%
%TD*%
%TA.AperFunction,Conductor*%
%TO.N,OP*%
G36*
X107325931Y-112018345D02*
G01*
X107328193Y-112021529D01*
X107546791Y-112474071D01*
X107547304Y-112483011D01*
X107541345Y-112489695D01*
X107540767Y-112489956D01*
X107277182Y-112600088D01*
X107272632Y-112600992D01*
X106988822Y-112600046D01*
X106980560Y-112596592D01*
X106977161Y-112588307D01*
X106977327Y-112586383D01*
X107073337Y-112024646D01*
X107078109Y-112017069D01*
X107084870Y-112014918D01*
X107317658Y-112014918D01*
X107325931Y-112018345D01*
G37*
%TD.AperFunction*%
%TD*%
%TA.AperFunction,Conductor*%
%TO.N,SPI_CLK*%
G36*
X116666802Y-104472429D02*
G01*
X116673670Y-104478174D01*
X116675000Y-104483592D01*
X116675000Y-104716407D01*
X116671573Y-104724680D01*
X116666801Y-104727571D01*
X116199987Y-104873970D01*
X116191068Y-104873176D01*
X116185691Y-104867318D01*
X116075883Y-104604509D01*
X116075857Y-104595556D01*
X116075862Y-104595542D01*
X116185691Y-104332680D01*
X116192042Y-104326370D01*
X116199986Y-104326029D01*
X116666802Y-104472429D01*
G37*
%TD.AperFunction*%
%TD*%
%TA.AperFunction,Conductor*%
%TO.N,SPI_MISO*%
G36*
X116241802Y-103731720D02*
G01*
X116248670Y-103737465D01*
X116250000Y-103742883D01*
X116250000Y-103975698D01*
X116246573Y-103983971D01*
X116241801Y-103986862D01*
X115774987Y-104133261D01*
X115766068Y-104132467D01*
X115760691Y-104126609D01*
X115650883Y-103863800D01*
X115650857Y-103854847D01*
X115650862Y-103854833D01*
X115760691Y-103591971D01*
X115767042Y-103585661D01*
X115774986Y-103585320D01*
X116241802Y-103731720D01*
G37*
%TD.AperFunction*%
%TD*%
%TA.AperFunction,Conductor*%
%TO.N,SPI_MOSI*%
G36*
X115987378Y-102997178D02*
G01*
X115993952Y-103003256D01*
X115995027Y-103008154D01*
X115995027Y-103240995D01*
X115991600Y-103249268D01*
X115986322Y-103252305D01*
X115585662Y-103358401D01*
X115582667Y-103358791D01*
X115578038Y-103358791D01*
X115524929Y-103374384D01*
X115516026Y-103373427D01*
X115510838Y-103367670D01*
X115400883Y-103104509D01*
X115400857Y-103095556D01*
X115400862Y-103095542D01*
X115510482Y-102833181D01*
X115516833Y-102826871D01*
X115525324Y-102826717D01*
X115987378Y-102997178D01*
G37*
%TD.AperFunction*%
%TD*%
%TA.AperFunction,Conductor*%
%TO.N,4.5V-30V*%
G36*
X110310284Y-92402165D02*
G01*
X111144936Y-92746909D01*
X111151274Y-92753235D01*
X111151939Y-92755415D01*
X111350190Y-93740602D01*
X111348463Y-93749388D01*
X111343239Y-93753702D01*
X109899568Y-94358194D01*
X109890613Y-94358229D01*
X109886776Y-94355675D01*
X109544600Y-94013499D01*
X109541173Y-94005226D01*
X109542295Y-94000226D01*
X110295243Y-92407976D01*
X110301877Y-92401964D01*
X110310284Y-92402165D01*
G37*
%TD.AperFunction*%
%TD*%
%TA.AperFunction,Conductor*%
%TO.N,4.5V-30V*%
G36*
X103113954Y-107850659D02*
G01*
X103400224Y-107898370D01*
X103407821Y-107903110D01*
X103410000Y-107909911D01*
X103410000Y-108390088D01*
X103406573Y-108398361D01*
X103400223Y-108401629D01*
X103113298Y-108449450D01*
X103106907Y-108448722D01*
X102989000Y-108400000D01*
X102410166Y-108160812D01*
X102403829Y-108154487D01*
X102403822Y-108145532D01*
X102410146Y-108139195D01*
X103106643Y-107851386D01*
X103111111Y-107850500D01*
X103112031Y-107850500D01*
X103113954Y-107850659D01*
G37*
%TD.AperFunction*%
%TD*%
%TA.AperFunction,Conductor*%
%TO.N,4.5V-30V*%
G36*
X103113954Y-107850659D02*
G01*
X103400224Y-107898370D01*
X103407821Y-107903110D01*
X103410000Y-107909911D01*
X103410000Y-108390088D01*
X103406573Y-108398361D01*
X103400223Y-108401629D01*
X103113298Y-108449450D01*
X103106907Y-108448722D01*
X102989000Y-108400000D01*
X102410166Y-108160812D01*
X102403829Y-108154487D01*
X102403822Y-108145532D01*
X102410146Y-108139195D01*
X103106643Y-107851386D01*
X103111111Y-107850500D01*
X103112031Y-107850500D01*
X103113954Y-107850659D01*
G37*
%TD.AperFunction*%
%TD*%
%TA.AperFunction,Conductor*%
%TO.N,RX*%
G36*
X105456183Y-107502303D02*
G01*
X105462494Y-107508654D01*
X105617605Y-107889788D01*
X105649705Y-107968662D01*
X105649649Y-107977616D01*
X105647141Y-107981345D01*
X105482516Y-108145970D01*
X105474243Y-108149397D01*
X105467926Y-108147545D01*
X105074327Y-107895055D01*
X105069213Y-107887703D01*
X105069820Y-107880765D01*
X105178357Y-107616438D01*
X105184667Y-107610088D01*
X105447230Y-107502276D01*
X105456183Y-107502303D01*
G37*
%TD.AperFunction*%
%TD*%
%TA.AperFunction,Conductor*%
%TO.N,TX*%
G36*
X104945731Y-108118914D02*
G01*
X104952043Y-108125266D01*
X104952245Y-108125793D01*
X105144451Y-108666769D01*
X105143992Y-108675712D01*
X105137343Y-108681711D01*
X105133426Y-108682386D01*
X104902823Y-108682386D01*
X104897487Y-108681098D01*
X104565756Y-108511107D01*
X104559956Y-108504285D01*
X104560276Y-108496232D01*
X104669112Y-108232532D01*
X104675431Y-108226197D01*
X104936778Y-108118887D01*
X104945731Y-108118914D01*
G37*
%TD.AperFunction*%
%TD*%
%TA.AperFunction,Conductor*%
%TO.N,3.3V*%
G36*
X104332773Y-108934628D02*
G01*
X104341037Y-108938074D01*
X104344413Y-108945481D01*
X104374128Y-109354643D01*
X104371310Y-109363142D01*
X104370732Y-109363763D01*
X104206277Y-109528218D01*
X104198004Y-109531645D01*
X104189731Y-109528218D01*
X104189475Y-109527955D01*
X104049213Y-109378607D01*
X104047099Y-109375457D01*
X104042377Y-109365117D01*
X104024799Y-109326627D01*
X103930550Y-109217857D01*
X103850266Y-109166261D01*
X103848068Y-109164432D01*
X103839232Y-109155024D01*
X103836066Y-109146647D01*
X103839458Y-109138769D01*
X104039478Y-108937411D01*
X104047738Y-108933958D01*
X104332773Y-108934628D01*
G37*
%TD.AperFunction*%
%TD*%
%TA.AperFunction,Conductor*%
%TO.N,3.3V*%
G36*
X106432007Y-99788960D02*
G01*
X106698517Y-99898393D01*
X106702372Y-99900969D01*
X106902969Y-100102908D01*
X106906368Y-100111192D01*
X106902914Y-100119454D01*
X106901996Y-100120274D01*
X106455311Y-100479139D01*
X106446715Y-100481649D01*
X106439710Y-100478291D01*
X106170840Y-100209421D01*
X106167413Y-100201148D01*
X106169165Y-100194990D01*
X106417617Y-99793624D01*
X106424884Y-99788395D01*
X106432007Y-99788960D01*
G37*
%TD.AperFunction*%
%TD*%
%TA.AperFunction,Conductor*%
%TO.N,3.3V*%
G36*
X106539129Y-99840319D02*
G01*
X106810446Y-100111636D01*
X106813873Y-100119909D01*
X106813091Y-100124115D01*
X106552808Y-100799816D01*
X106546636Y-100806304D01*
X106542190Y-100807306D01*
X105832341Y-100825500D01*
X105823983Y-100822286D01*
X105821224Y-100818263D01*
X105621921Y-100334771D01*
X105621936Y-100325818D01*
X105627206Y-100320004D01*
X106525327Y-99838280D01*
X106534236Y-99837391D01*
X106539129Y-99840319D01*
G37*
%TD.AperFunction*%
%TD*%
%TA.AperFunction,Conductor*%
%TO.N,SPI_CS*%
G36*
X119776247Y-103289275D02*
G01*
X119782105Y-103294652D01*
X119981974Y-103677164D01*
X120008673Y-103728259D01*
X120009467Y-103737178D01*
X120006576Y-103741950D01*
X119841950Y-103906576D01*
X119833677Y-103910003D01*
X119828260Y-103908673D01*
X119394652Y-103682105D01*
X119388907Y-103675237D01*
X119389247Y-103667293D01*
X119497436Y-103403814D01*
X119503746Y-103397464D01*
X119767293Y-103289248D01*
X119776247Y-103289275D01*
G37*
%TD.AperFunction*%
%TD*%
%TA.AperFunction,Conductor*%
%TO.N,Net-(U4-SW)*%
G36*
X99971496Y-98382581D02*
G01*
X99975806Y-98390430D01*
X99975848Y-98390893D01*
X100028182Y-99140392D01*
X100025339Y-99148884D01*
X100024783Y-99149480D01*
X99756156Y-99418107D01*
X99747883Y-99421534D01*
X99739610Y-99418107D01*
X99737935Y-99415993D01*
X99529319Y-99079049D01*
X99527846Y-99070350D01*
X99672475Y-98419968D01*
X99677616Y-98412636D01*
X99682617Y-98410878D01*
X99962900Y-98380078D01*
X99971496Y-98382581D01*
G37*
%TD.AperFunction*%
%TD*%
%TA.AperFunction,Conductor*%
%TO.N,Net-(U4-SW)*%
G36*
X100301531Y-99414119D02*
G01*
X100858390Y-99600131D01*
X100865107Y-99605915D01*
X100876472Y-99628220D01*
X100971780Y-99723528D01*
X101091874Y-99784719D01*
X101141693Y-99792609D01*
X101191511Y-99800500D01*
X101456329Y-99800500D01*
X101460036Y-99801103D01*
X102718100Y-100221343D01*
X102724861Y-100227214D01*
X102725539Y-100235996D01*
X102428539Y-101166830D01*
X102422760Y-101173670D01*
X102416422Y-101174934D01*
X100582039Y-101022231D01*
X100574079Y-101018129D01*
X100572240Y-101015142D01*
X100424142Y-100666187D01*
X100014910Y-99701931D01*
X100014833Y-99692979D01*
X100017406Y-99689092D01*
X100289555Y-99416943D01*
X100297827Y-99413517D01*
X100301531Y-99414119D01*
G37*
%TD.AperFunction*%
%TD*%
%TA.AperFunction,Conductor*%
%TO.N,Net-(U4-SW)*%
G36*
X103201244Y-99278427D02*
G01*
X103203301Y-99281207D01*
X103700433Y-100216115D01*
X103701292Y-100225028D01*
X103697080Y-100231000D01*
X102434402Y-101169015D01*
X102425717Y-101171198D01*
X102418033Y-101166600D01*
X102418032Y-101166599D01*
X101726550Y-100233643D01*
X101724377Y-100224956D01*
X101728220Y-100217894D01*
X102796685Y-99277915D01*
X102804413Y-99275000D01*
X103192971Y-99275000D01*
X103201244Y-99278427D01*
G37*
%TD.AperFunction*%
%TD*%
%TA.AperFunction,Conductor*%
%TO.N,Net-(U4-SW)*%
G36*
X103007187Y-99129597D02*
G01*
X103255875Y-99323265D01*
X103425959Y-99455720D01*
X103430381Y-99463507D01*
X103429650Y-99469253D01*
X103202925Y-100042602D01*
X103196696Y-100049036D01*
X103192045Y-100050000D01*
X102807955Y-100050000D01*
X102799682Y-100046573D01*
X102797075Y-100042602D01*
X102570349Y-99469253D01*
X102570493Y-99460300D01*
X102574039Y-99455721D01*
X102992811Y-99129597D01*
X103001444Y-99127218D01*
X103007187Y-99129597D01*
G37*
%TD.AperFunction*%
%TD*%
%TA.AperFunction,Conductor*%
%TO.N,Net-(U4-BS)*%
G36*
X100829838Y-98442269D02*
G01*
X101546813Y-98646967D01*
X101553828Y-98652533D01*
X101555017Y-98660778D01*
X101451903Y-99120373D01*
X101446748Y-99127696D01*
X101445849Y-99128211D01*
X101008940Y-99353483D01*
X101000016Y-99354229D01*
X100994101Y-99349945D01*
X100831762Y-99125707D01*
X100546229Y-98731302D01*
X100544154Y-98722593D01*
X100547432Y-98716172D01*
X100818358Y-98445246D01*
X100826630Y-98441820D01*
X100829838Y-98442269D01*
G37*
%TD.AperFunction*%
%TD*%
%TA.AperFunction,Conductor*%
%TO.N,Net-(U4-BS)*%
G36*
X99981496Y-95955183D02*
G01*
X100318751Y-96237505D01*
X100322895Y-96245442D01*
X100320212Y-96253985D01*
X100319514Y-96254748D01*
X100045713Y-96528549D01*
X100045706Y-96528557D01*
X99985300Y-96604471D01*
X99977467Y-96608811D01*
X99968860Y-96606341D01*
X99966226Y-96603392D01*
X99680515Y-96146737D01*
X99679032Y-96137906D01*
X99684226Y-96130614D01*
X99967807Y-95954218D01*
X99976641Y-95952759D01*
X99981496Y-95955183D01*
G37*
%TD.AperFunction*%
%TD*%
%TA.AperFunction,Conductor*%
%TO.N,Net-(U4-FB)*%
G36*
X98985315Y-94163561D02*
G01*
X99369844Y-94321879D01*
X99376189Y-94328197D01*
X99376885Y-94330523D01*
X99463908Y-94790602D01*
X99462079Y-94799367D01*
X99456829Y-94803610D01*
X98816279Y-95064759D01*
X98807324Y-95064709D01*
X98803589Y-95062198D01*
X98638110Y-94896719D01*
X98634683Y-94888446D01*
X98635787Y-94883485D01*
X98970268Y-94169417D01*
X98976879Y-94163380D01*
X98985315Y-94163561D01*
G37*
%TD.AperFunction*%
%TD*%
%TA.AperFunction,Conductor*%
%TO.N,Net-(U4-FB)*%
G36*
X101457191Y-95929618D02*
G01*
X101874996Y-96255991D01*
X101879406Y-96263784D01*
X101878340Y-96270275D01*
X101603186Y-96843364D01*
X101596516Y-96849339D01*
X101592639Y-96850000D01*
X101208618Y-96850000D01*
X101200345Y-96846573D01*
X101197444Y-96841770D01*
X101019527Y-96268832D01*
X101020347Y-96259915D01*
X101023510Y-96256132D01*
X101442800Y-95929606D01*
X101451432Y-95927227D01*
X101457191Y-95929618D01*
G37*
%TD.AperFunction*%
%TD*%
%TA.AperFunction,Conductor*%
%TO.N,Net-(U4-FB)*%
G36*
X101599995Y-96653427D02*
G01*
X101602755Y-96657806D01*
X101782200Y-97166168D01*
X101781722Y-97175110D01*
X101779071Y-97178689D01*
X101407904Y-97518758D01*
X101399489Y-97521820D01*
X101392096Y-97518758D01*
X101020928Y-97178689D01*
X101017143Y-97170573D01*
X101017799Y-97166168D01*
X101197245Y-96657806D01*
X101203230Y-96651145D01*
X101208278Y-96650000D01*
X101591722Y-96650000D01*
X101599995Y-96653427D01*
G37*
%TD.AperFunction*%
%TD*%
%TA.AperFunction,Conductor*%
%TO.N,Net-(U4-FB)*%
G36*
X97907017Y-95182774D02*
G01*
X97907440Y-95183176D01*
X98072090Y-95347826D01*
X98075517Y-95356099D01*
X98075517Y-95356106D01*
X98075008Y-96158201D01*
X98071576Y-96166472D01*
X98063301Y-96169894D01*
X98062030Y-96169824D01*
X97782618Y-96139121D01*
X97774769Y-96134811D01*
X97772475Y-96130031D01*
X97752870Y-96041872D01*
X97628124Y-95480901D01*
X97629673Y-95472084D01*
X97630863Y-95470522D01*
X97890492Y-95183598D01*
X97898583Y-95179764D01*
X97907017Y-95182774D01*
G37*
%TD.AperFunction*%
%TD*%
%TA.AperFunction,Conductor*%
%TO.N,Net-(U4-FB)*%
G36*
X99779799Y-94167083D02*
G01*
X100119124Y-94875953D01*
X100119605Y-94884895D01*
X100116844Y-94889278D01*
X99951355Y-95054767D01*
X99943082Y-95058194D01*
X99938779Y-95057374D01*
X99296932Y-94803528D01*
X99290499Y-94797299D01*
X99289723Y-94790560D01*
X99373158Y-94330548D01*
X99378005Y-94323022D01*
X99380154Y-94321846D01*
X99764742Y-94161337D01*
X99773694Y-94161314D01*
X99779799Y-94167083D01*
G37*
%TD.AperFunction*%
%TD*%
%TA.AperFunction,Conductor*%
%TO.N,Net-(U4-FB)*%
G36*
X101225003Y-95453473D02*
G01*
X101228791Y-95457991D01*
X101446479Y-95916797D01*
X101446929Y-95925740D01*
X101442640Y-95931381D01*
X101020846Y-96228108D01*
X101012108Y-96230066D01*
X101004959Y-96225824D01*
X100596256Y-95712202D01*
X100593786Y-95703595D01*
X100597137Y-95696645D01*
X100763889Y-95529893D01*
X100770213Y-95526632D01*
X101216278Y-95451469D01*
X101225003Y-95453473D01*
G37*
%TD.AperFunction*%
%TD*%
%TA.AperFunction,Conductor*%
%TO.N,4.5V-30V*%
G36*
X98730902Y-98424591D02*
G01*
X98735102Y-98428791D01*
X99023046Y-98921655D01*
X99024572Y-98928849D01*
X98976156Y-99364592D01*
X98971837Y-99372436D01*
X98964528Y-99375000D01*
X98485472Y-99375000D01*
X98477199Y-99371573D01*
X98473844Y-99364592D01*
X98454477Y-99190294D01*
X98425427Y-98928846D01*
X98426952Y-98921658D01*
X98714898Y-98428790D01*
X98722030Y-98423376D01*
X98730902Y-98424591D01*
G37*
%TD.AperFunction*%
%TD*%
%TA.AperFunction,Conductor*%
%TO.N,4.5V-30V*%
G36*
X99357902Y-100231240D02*
G01*
X99729599Y-100571794D01*
X99733384Y-100579909D01*
X99733025Y-100583337D01*
X99602261Y-101091217D01*
X99596880Y-101098375D01*
X99590931Y-101100000D01*
X99109069Y-101100000D01*
X99100796Y-101096573D01*
X99097739Y-101091217D01*
X99057109Y-100933415D01*
X98966974Y-100583335D01*
X98968229Y-100574471D01*
X98970394Y-100571799D01*
X99342097Y-100231240D01*
X99350511Y-100228179D01*
X99357902Y-100231240D01*
G37*
%TD.AperFunction*%
%TD*%
%TA.AperFunction,Conductor*%
%TO.N,4.5V-30V*%
G36*
X99599034Y-100803427D02*
G01*
X99602142Y-100808987D01*
X99754603Y-101448594D01*
X99753188Y-101457436D01*
X99752175Y-101458839D01*
X99284304Y-102014940D01*
X99276355Y-102019065D01*
X99267819Y-102016361D01*
X99266120Y-102014597D01*
X98833315Y-101458839D01*
X98814918Y-101435216D01*
X98812539Y-101426584D01*
X98813518Y-101423145D01*
X99042983Y-100924021D01*
X99096868Y-100806813D01*
X99103437Y-100800727D01*
X99107498Y-100800000D01*
X99590761Y-100800000D01*
X99599034Y-100803427D01*
G37*
%TD.AperFunction*%
%TD*%
%TA.AperFunction,Conductor*%
%TO.N,4.5V-30V*%
G36*
X99282532Y-102033220D02*
G01*
X99283953Y-102034641D01*
X99751325Y-102590151D01*
X99754029Y-102598687D01*
X99753123Y-102602299D01*
X99478042Y-103242916D01*
X99471629Y-103249166D01*
X99467291Y-103250000D01*
X99082709Y-103250000D01*
X99074436Y-103246573D01*
X99071958Y-103242916D01*
X98796876Y-102602299D01*
X98796761Y-102593345D01*
X98798674Y-102590151D01*
X99266047Y-102034641D01*
X99273996Y-102030516D01*
X99282532Y-102033220D01*
G37*
%TD.AperFunction*%
%TD*%
%TA.AperFunction,Conductor*%
%TO.N,4.5V-30V*%
G36*
X102395288Y-112749876D02*
G01*
X102403527Y-112753384D01*
X102406871Y-112761691D01*
X102406841Y-112762430D01*
X102386329Y-113042218D01*
X102382306Y-113050219D01*
X102377439Y-113052728D01*
X101664410Y-113227051D01*
X101656017Y-113225951D01*
X101301410Y-113032026D01*
X101295796Y-113025050D01*
X101296759Y-113016147D01*
X101298748Y-113013491D01*
X101567075Y-112745164D01*
X101575345Y-112741738D01*
X102395288Y-112749876D01*
G37*
%TD.AperFunction*%
%TD*%
%TA.AperFunction,Conductor*%
%TO.N,4.5V-30V*%
G36*
X102395288Y-112749876D02*
G01*
X102403527Y-112753384D01*
X102406871Y-112761691D01*
X102406841Y-112762430D01*
X102386329Y-113042218D01*
X102382306Y-113050219D01*
X102377439Y-113052728D01*
X101664410Y-113227051D01*
X101656017Y-113225951D01*
X101301410Y-113032026D01*
X101295796Y-113025050D01*
X101296759Y-113016147D01*
X101298748Y-113013491D01*
X101567075Y-112745164D01*
X101575345Y-112741738D01*
X102395288Y-112749876D01*
G37*
%TD.AperFunction*%
%TD*%
%TA.AperFunction,Conductor*%
%TO.N,GND*%
G36*
X115267318Y-122110691D02*
G01*
X115273629Y-122117042D01*
X115273970Y-122124987D01*
X115127571Y-122591801D01*
X115121825Y-122598670D01*
X115116407Y-122600000D01*
X114883593Y-122600000D01*
X114875320Y-122596573D01*
X114872429Y-122591801D01*
X114726029Y-122124987D01*
X114726823Y-122116068D01*
X114732679Y-122110692D01*
X114995490Y-122000883D01*
X115004444Y-122000857D01*
X115267318Y-122110691D01*
G37*
%TD.AperFunction*%
%TD*%
%TA.AperFunction,Conductor*%
%TO.N,GND*%
G36*
X115127291Y-122403427D02*
G01*
X115128503Y-122404850D01*
X115444172Y-122841931D01*
X115446238Y-122850644D01*
X115442969Y-122857045D01*
X115008282Y-123292699D01*
X115000013Y-123296135D01*
X114991736Y-123292717D01*
X114991718Y-123292699D01*
X114557030Y-122857045D01*
X114553612Y-122848768D01*
X114555826Y-122841932D01*
X114871497Y-122404849D01*
X114879119Y-122400149D01*
X114880982Y-122400000D01*
X115119018Y-122400000D01*
X115127291Y-122403427D01*
G37*
%TD.AperFunction*%
%TD*%
%TA.AperFunction,Conductor*%
%TO.N,GND*%
G36*
X98437237Y-96108424D02*
G01*
X98714342Y-96135675D01*
X98717450Y-96135981D01*
X98725348Y-96140201D01*
X98727672Y-96144854D01*
X98885705Y-96793018D01*
X98884408Y-96801746D01*
X98679645Y-97147894D01*
X98672483Y-97153270D01*
X98663618Y-97152007D01*
X98661302Y-97150210D01*
X98392779Y-96881687D01*
X98389352Y-96873414D01*
X98389365Y-96872870D01*
X98424427Y-96119525D01*
X98428234Y-96111421D01*
X98436658Y-96108383D01*
X98437237Y-96108424D01*
G37*
%TD.AperFunction*%
%TD*%
%TA.AperFunction,Conductor*%
%TO.N,GND*%
G36*
X102177557Y-106704296D02*
G01*
X102535313Y-107043940D01*
X102538953Y-107052121D01*
X102537643Y-107057813D01*
X102391109Y-107340291D01*
X102384257Y-107346056D01*
X102375335Y-107345289D01*
X102375325Y-107345283D01*
X102375306Y-107345273D01*
X101824780Y-107057682D01*
X101819033Y-107050814D01*
X101819827Y-107041895D01*
X101822243Y-107038732D01*
X101886447Y-106979290D01*
X102161229Y-106704507D01*
X102169501Y-106701081D01*
X102177557Y-106704296D01*
G37*
%TD.AperFunction*%
%TD*%
%TA.AperFunction,Conductor*%
%TO.N,GND*%
G36*
X102177557Y-106704296D02*
G01*
X102535313Y-107043940D01*
X102538953Y-107052121D01*
X102537643Y-107057813D01*
X102391109Y-107340291D01*
X102384257Y-107346056D01*
X102375335Y-107345289D01*
X102375325Y-107345283D01*
X102375306Y-107345273D01*
X101824780Y-107057682D01*
X101819033Y-107050814D01*
X101819827Y-107041895D01*
X101822243Y-107038732D01*
X101886447Y-106979290D01*
X102161229Y-106704507D01*
X102169501Y-106701081D01*
X102177557Y-106704296D01*
G37*
%TD.AperFunction*%
%TD*%
%TA.AperFunction,Conductor*%
%TO.N,GND*%
G36*
X102428370Y-106537193D02*
G01*
X102435469Y-106542651D01*
X102437008Y-106547757D01*
X102464642Y-106986859D01*
X102461741Y-106995331D01*
X102461238Y-106995867D01*
X102188287Y-107268818D01*
X102180014Y-107272245D01*
X102174468Y-107270847D01*
X101647061Y-106986859D01*
X101272186Y-106785003D01*
X101266526Y-106778063D01*
X101266916Y-106770242D01*
X101358628Y-106547757D01*
X101465372Y-106288803D01*
X101471693Y-106282461D01*
X101479226Y-106281964D01*
X102428370Y-106537193D01*
G37*
%TD.AperFunction*%
%TD*%
%TA.AperFunction,Conductor*%
%TO.N,GND*%
G36*
X106532702Y-109699041D02*
G01*
X106538248Y-109702146D01*
X106702122Y-109866020D01*
X106705549Y-109874293D01*
X106702122Y-109882566D01*
X106699896Y-109884309D01*
X106226418Y-110170152D01*
X106217564Y-110171494D01*
X106210355Y-110166183D01*
X106209575Y-110164647D01*
X106101171Y-109905204D01*
X106101145Y-109896251D01*
X106210975Y-109632047D01*
X106217315Y-109625724D01*
X106224504Y-109625161D01*
X106532702Y-109699041D01*
G37*
%TD.AperFunction*%
%TD*%
%TA.AperFunction,Conductor*%
%TO.N,GND*%
G36*
X98912822Y-96794112D02*
G01*
X98916249Y-96802385D01*
X98914635Y-96808315D01*
X98607306Y-97331057D01*
X98600159Y-97336452D01*
X98592776Y-97335950D01*
X98329510Y-97227852D01*
X98323160Y-97221542D01*
X98214350Y-96957903D01*
X98214361Y-96948948D01*
X98219937Y-96942972D01*
X98522532Y-96791916D01*
X98527758Y-96790685D01*
X98904549Y-96790685D01*
X98912822Y-96794112D01*
G37*
%TD.AperFunction*%
%TD*%
%TA.AperFunction,Conductor*%
%TO.N,GND*%
G36*
X116205033Y-116807405D02*
G01*
X116207776Y-116811737D01*
X116373423Y-117274738D01*
X116372984Y-117283682D01*
X116366918Y-117289475D01*
X116104511Y-117399115D01*
X116095556Y-117399142D01*
X116095489Y-117399115D01*
X115832333Y-117289163D01*
X115826021Y-117282811D01*
X115825562Y-117275268D01*
X115952638Y-116812579D01*
X115958133Y-116805509D01*
X115963920Y-116803978D01*
X116196760Y-116803978D01*
X116205033Y-116807405D01*
G37*
%TD.AperFunction*%
%TD*%
%TA.AperFunction,Conductor*%
%TO.N,GND*%
G36*
X116087491Y-116505246D02*
G01*
X116293878Y-116677329D01*
X116342852Y-116718164D01*
X116347011Y-116726094D01*
X116346245Y-116731438D01*
X116207920Y-117082588D01*
X116201699Y-117089030D01*
X116197034Y-117090000D01*
X115962966Y-117090000D01*
X115954693Y-117086573D01*
X115952080Y-117082588D01*
X115813754Y-116731438D01*
X115813910Y-116722485D01*
X115817145Y-116718165D01*
X116072508Y-116505246D01*
X116081056Y-116502581D01*
X116087491Y-116505246D01*
G37*
%TD.AperFunction*%
%TD*%
%TA.AperFunction,Conductor*%
%TO.N,GND*%
G36*
X106838621Y-109320832D02*
G01*
X106840761Y-109323770D01*
X107071397Y-109773939D01*
X107072119Y-109782865D01*
X107066319Y-109789687D01*
X107065495Y-109790070D01*
X106802182Y-109900088D01*
X106797632Y-109900992D01*
X106513542Y-109900045D01*
X106505280Y-109896591D01*
X106501881Y-109888306D01*
X106502011Y-109886607D01*
X106517243Y-109785195D01*
X106586004Y-109327367D01*
X106590621Y-109319695D01*
X106597574Y-109317405D01*
X106830348Y-109317405D01*
X106838621Y-109320832D01*
G37*
%TD.AperFunction*%
%TD*%
%TA.AperFunction,Conductor*%
%TO.N,GND*%
G36*
X106838485Y-108515927D02*
G01*
X106840713Y-108519041D01*
X106885801Y-108610827D01*
X106887000Y-108615986D01*
X106887000Y-108913400D01*
X106902259Y-108990116D01*
X106902260Y-108990117D01*
X106960388Y-109077112D01*
X107047383Y-109135240D01*
X107124099Y-109150500D01*
X107143616Y-109150499D01*
X107151888Y-109153925D01*
X107154116Y-109157041D01*
X107183811Y-109217493D01*
X107184383Y-109226429D01*
X107181589Y-109230918D01*
X106471525Y-109941962D01*
X106463254Y-109945395D01*
X106454979Y-109941974D01*
X106454286Y-109941219D01*
X105859810Y-109233340D01*
X105857114Y-109224801D01*
X105860625Y-109217417D01*
X105980196Y-109101457D01*
X105988517Y-109098159D01*
X105994836Y-109100129D01*
X106047383Y-109135240D01*
X106124099Y-109150500D01*
X106300900Y-109150499D01*
X106377617Y-109135240D01*
X106464612Y-109077112D01*
X106522740Y-108990117D01*
X106538000Y-108913401D01*
X106538000Y-108565455D01*
X106541427Y-108557182D01*
X106541481Y-108557128D01*
X106584096Y-108515800D01*
X106592241Y-108512500D01*
X106830212Y-108512500D01*
X106838485Y-108515927D01*
G37*
%TD.AperFunction*%
%TD*%
%TA.AperFunction,Conductor*%
%TO.N,GND*%
G36*
X106684418Y-109626529D02*
G01*
X106688996Y-109631928D01*
X106799064Y-109895181D01*
X106799094Y-109904135D01*
X106799068Y-109904199D01*
X106690171Y-110165234D01*
X106683823Y-110171550D01*
X106674868Y-110171527D01*
X106673818Y-110171026D01*
X106300452Y-109969605D01*
X106294885Y-109962941D01*
X106222712Y-109741907D01*
X106223402Y-109732980D01*
X106230202Y-109727155D01*
X106231214Y-109726874D01*
X106675589Y-109625037D01*
X106684418Y-109626529D01*
G37*
%TD.AperFunction*%
%TD*%
%TA.AperFunction,Conductor*%
%TO.N,GND*%
G36*
X106627828Y-109599499D02*
G01*
X106630739Y-109604201D01*
X106703005Y-109825518D01*
X106702315Y-109834447D01*
X106698640Y-109838702D01*
X106320162Y-110106451D01*
X106311429Y-110108431D01*
X106305156Y-110105197D01*
X106102516Y-109903755D01*
X106099065Y-109895492D01*
X106099065Y-109895420D01*
X106099245Y-109838702D01*
X106099963Y-109611575D01*
X106103416Y-109603314D01*
X106111573Y-109599913D01*
X106619531Y-109596133D01*
X106627828Y-109599499D01*
G37*
%TD.AperFunction*%
%TD*%
%TA.AperFunction,Conductor*%
%TO.N,GND*%
G36*
X112467318Y-118710691D02*
G01*
X112473629Y-118717042D01*
X112473970Y-118724987D01*
X112327571Y-119191801D01*
X112321825Y-119198670D01*
X112316407Y-119200000D01*
X112083593Y-119200000D01*
X112075320Y-119196573D01*
X112072429Y-119191801D01*
X111926029Y-118724987D01*
X111926823Y-118716068D01*
X111932679Y-118710692D01*
X112195490Y-118600883D01*
X112204444Y-118600857D01*
X112467318Y-118710691D01*
G37*
%TD.AperFunction*%
%TD*%
%TA.AperFunction,Conductor*%
%TO.N,GND*%
G36*
X112322507Y-118883427D02*
G01*
X112325894Y-118890728D01*
X112359400Y-119292805D01*
X112356672Y-119301335D01*
X112353838Y-119303762D01*
X112088631Y-119465728D01*
X112079784Y-119467116D01*
X112073535Y-119463222D01*
X111856143Y-119201675D01*
X111853490Y-119193122D01*
X111855617Y-119187401D01*
X112071501Y-118884903D01*
X112079096Y-118880160D01*
X112081024Y-118880000D01*
X112314234Y-118880000D01*
X112322507Y-118883427D01*
G37*
%TD.AperFunction*%
%TD*%
%TA.AperFunction,Conductor*%
%TO.N,GND*%
G36*
X105324680Y-113803427D02*
G01*
X105327571Y-113808199D01*
X105473970Y-114275012D01*
X105473176Y-114283931D01*
X105467317Y-114289309D01*
X105204511Y-114399115D01*
X105195556Y-114399142D01*
X105195489Y-114399115D01*
X104932682Y-114289309D01*
X104926370Y-114282957D01*
X104926029Y-114275013D01*
X105072429Y-113808199D01*
X105078175Y-113801330D01*
X105083593Y-113800000D01*
X105316407Y-113800000D01*
X105324680Y-113803427D01*
G37*
%TD.AperFunction*%
%TD*%
%TA.AperFunction,Conductor*%
%TO.N,GND*%
G36*
X105207296Y-113584825D02*
G01*
X105472847Y-113796814D01*
X105477175Y-113804653D01*
X105476180Y-113810840D01*
X105328131Y-114133183D01*
X105321564Y-114139271D01*
X105317499Y-114140000D01*
X105082501Y-114140000D01*
X105074228Y-114136573D01*
X105071869Y-114133183D01*
X104923819Y-113810840D01*
X104923480Y-113801892D01*
X104927149Y-113796816D01*
X105192702Y-113584825D01*
X105201304Y-113582343D01*
X105207296Y-113584825D01*
G37*
%TD.AperFunction*%
%TD*%
%TA.AperFunction,Conductor*%
%TO.N,GND*%
G36*
X97967754Y-93310873D02*
G01*
X97974066Y-93317225D01*
X97974553Y-93324664D01*
X97852305Y-93786322D01*
X97846875Y-93793442D01*
X97840995Y-93795027D01*
X97608155Y-93795027D01*
X97599882Y-93791600D01*
X97597178Y-93787377D01*
X97556596Y-93677377D01*
X97426717Y-93325325D01*
X97427069Y-93316379D01*
X97433181Y-93310482D01*
X97695490Y-93200883D01*
X97704444Y-93200857D01*
X97967754Y-93310873D01*
G37*
%TD.AperFunction*%
%TD*%
%TA.AperFunction,Conductor*%
%TO.N,GND*%
G36*
X97851018Y-93453427D02*
G01*
X97853225Y-93456499D01*
X98105863Y-93965579D01*
X98106471Y-93974513D01*
X98103287Y-93979407D01*
X97732904Y-94318758D01*
X97724489Y-94321820D01*
X97717096Y-94318758D01*
X97346712Y-93979407D01*
X97342927Y-93971291D01*
X97344135Y-93965580D01*
X97596775Y-93456499D01*
X97603522Y-93450612D01*
X97607255Y-93450000D01*
X97842745Y-93450000D01*
X97851018Y-93453427D01*
G37*
%TD.AperFunction*%
%TD*%
%TA.AperFunction,Conductor*%
%TO.N,GND*%
G36*
X101667974Y-93310965D02*
G01*
X101674285Y-93317316D01*
X101674839Y-93324491D01*
X101564653Y-93783572D01*
X101559390Y-93790817D01*
X101553276Y-93792541D01*
X101320443Y-93792541D01*
X101312170Y-93789114D01*
X101309569Y-93785158D01*
X101290663Y-93737537D01*
X101127076Y-93325485D01*
X101127208Y-93316533D01*
X101133437Y-93310375D01*
X101395490Y-93200883D01*
X101404444Y-93200857D01*
X101667974Y-93310965D01*
G37*
%TD.AperFunction*%
%TD*%
%TA.AperFunction,Conductor*%
%TO.N,GND*%
G36*
X101563649Y-93415927D02*
G01*
X101565770Y-93418829D01*
X101853975Y-93976573D01*
X101854729Y-93985496D01*
X101850946Y-93991035D01*
X101444865Y-94320033D01*
X101436280Y-94322578D01*
X101430135Y-94320033D01*
X101024053Y-93991035D01*
X101019782Y-93983164D01*
X101021023Y-93976576D01*
X101309230Y-93418829D01*
X101316072Y-93413052D01*
X101319624Y-93412500D01*
X101555376Y-93412500D01*
X101563649Y-93415927D01*
G37*
%TD.AperFunction*%
%TD*%
%TA.AperFunction,Conductor*%
%TO.N,GND*%
G36*
X104841950Y-104793423D02*
G01*
X105006576Y-104958049D01*
X105010003Y-104966322D01*
X105008673Y-104971740D01*
X104782106Y-105405346D01*
X104775237Y-105411092D01*
X104767292Y-105410751D01*
X104503815Y-105302563D01*
X104497463Y-105296251D01*
X104497436Y-105296184D01*
X104389248Y-105032707D01*
X104389275Y-105023752D01*
X104394651Y-105017894D01*
X104828262Y-104791325D01*
X104837178Y-104790532D01*
X104841950Y-104793423D01*
G37*
%TD.AperFunction*%
%TD*%
%TA.AperFunction,Conductor*%
%TO.N,GND*%
G36*
X105818467Y-104323133D02*
G01*
X105826094Y-104327826D01*
X105827820Y-104331314D01*
X105972907Y-104813391D01*
X105972009Y-104822301D01*
X105965075Y-104827967D01*
X105964676Y-104828079D01*
X104864486Y-105117079D01*
X104855613Y-105115867D01*
X104853240Y-105114036D01*
X104687528Y-104948324D01*
X104684101Y-104940051D01*
X104685638Y-104934256D01*
X105095985Y-104215071D01*
X105103061Y-104209584D01*
X105107996Y-104209317D01*
X105818467Y-104323133D01*
G37*
%TD.AperFunction*%
%TD*%
%TA.AperFunction,Conductor*%
%TO.N,GND*%
G36*
X106067754Y-98010873D02*
G01*
X106074066Y-98017225D01*
X106074553Y-98024664D01*
X105952305Y-98486322D01*
X105946875Y-98493442D01*
X105940995Y-98495027D01*
X105708155Y-98495027D01*
X105699882Y-98491600D01*
X105697178Y-98487377D01*
X105656596Y-98377377D01*
X105526717Y-98025325D01*
X105527069Y-98016379D01*
X105533181Y-98010482D01*
X105795490Y-97900883D01*
X105804444Y-97900857D01*
X106067754Y-98010873D01*
G37*
%TD.AperFunction*%
%TD*%
%TA.AperFunction,Conductor*%
%TO.N,GND*%
G36*
X105952388Y-97928427D02*
G01*
X105953508Y-97929724D01*
X106318954Y-98421831D01*
X106321135Y-98430517D01*
X106317801Y-98437113D01*
X105833240Y-98917825D01*
X105824953Y-98921219D01*
X105816760Y-98917825D01*
X105332198Y-98437113D01*
X105328738Y-98428854D01*
X105331044Y-98421832D01*
X105696492Y-97929724D01*
X105704175Y-97925126D01*
X105705885Y-97925000D01*
X105944115Y-97925000D01*
X105952388Y-97928427D01*
G37*
%TD.AperFunction*%
%TD*%
%TA.AperFunction,Conductor*%
%TO.N,GND*%
G36*
X97500118Y-102808400D02*
G01*
X97502822Y-102812623D01*
X97673282Y-103274672D01*
X97672930Y-103283620D01*
X97666816Y-103289518D01*
X97404511Y-103399115D01*
X97395556Y-103399142D01*
X97395489Y-103399115D01*
X97132245Y-103289126D01*
X97125933Y-103282774D01*
X97125446Y-103275337D01*
X97247695Y-102813678D01*
X97253125Y-102806558D01*
X97259005Y-102804973D01*
X97491845Y-102804973D01*
X97500118Y-102808400D01*
G37*
%TD.AperFunction*%
%TD*%
%TA.AperFunction,Conductor*%
%TO.N,GND*%
G36*
X97382532Y-102033220D02*
G01*
X97383953Y-102034641D01*
X97850829Y-102589561D01*
X97853533Y-102598097D01*
X97852154Y-102602684D01*
X97503323Y-103243891D01*
X97496359Y-103249521D01*
X97493045Y-103250000D01*
X97256955Y-103250000D01*
X97248682Y-103246573D01*
X97246677Y-103243891D01*
X96897845Y-102602684D01*
X96896902Y-102593779D01*
X96899168Y-102589562D01*
X97366047Y-102034640D01*
X97373996Y-102030516D01*
X97382532Y-102033220D01*
G37*
%TD.AperFunction*%
%TD*%
%TA.AperFunction,Conductor*%
%TO.N,GND*%
G36*
X103589704Y-113533631D02*
G01*
X103589734Y-113533700D01*
X103699115Y-113795489D01*
X103699142Y-113804444D01*
X103699115Y-113804511D01*
X103588943Y-114068192D01*
X103582591Y-114074504D01*
X103575688Y-114075120D01*
X103119187Y-113976986D01*
X103111819Y-113971897D01*
X103109946Y-113965547D01*
X103109946Y-113732737D01*
X103113373Y-113724464D01*
X103117064Y-113721971D01*
X103574360Y-113527444D01*
X103583313Y-113527360D01*
X103589704Y-113533631D01*
G37*
%TD.AperFunction*%
%TD*%
%TA.AperFunction,Conductor*%
%TO.N,GND*%
G36*
X103113598Y-113552220D02*
G01*
X103115004Y-113552919D01*
X103404196Y-113721614D01*
X103409615Y-113728741D01*
X103410000Y-113731719D01*
X103410000Y-113968280D01*
X103406573Y-113976553D01*
X103404195Y-113978386D01*
X103115006Y-114147079D01*
X103106133Y-114148288D01*
X103104643Y-114147786D01*
X102410167Y-113860813D01*
X102403829Y-113854487D01*
X102403822Y-113845532D01*
X102410146Y-113839195D01*
X103104644Y-113552213D01*
X103113598Y-113552220D01*
G37*
%TD.AperFunction*%
%TD*%
%TA.AperFunction,Conductor*%
%TO.N,GND*%
G36*
X103113598Y-113552220D02*
G01*
X103115004Y-113552919D01*
X103404196Y-113721614D01*
X103409615Y-113728741D01*
X103410000Y-113731719D01*
X103410000Y-113968280D01*
X103406573Y-113976553D01*
X103404195Y-113978386D01*
X103115006Y-114147079D01*
X103106133Y-114148288D01*
X103104643Y-114147786D01*
X102410167Y-113860813D01*
X102403829Y-113854487D01*
X102403822Y-113845532D01*
X102410146Y-113839195D01*
X103104644Y-113552213D01*
X103113598Y-113552220D01*
G37*
%TD.AperFunction*%
%TD*%
%TA.AperFunction,Conductor*%
%TO.N,GND*%
G36*
X112294680Y-116703427D02*
G01*
X112297571Y-116708199D01*
X112443970Y-117175012D01*
X112443176Y-117183931D01*
X112437317Y-117189309D01*
X112174511Y-117299115D01*
X112165556Y-117299142D01*
X112165489Y-117299115D01*
X111902682Y-117189309D01*
X111896370Y-117182957D01*
X111896029Y-117175013D01*
X112042429Y-116708199D01*
X112048175Y-116701330D01*
X112053593Y-116700000D01*
X112286407Y-116700000D01*
X112294680Y-116703427D01*
G37*
%TD.AperFunction*%
%TD*%
%TA.AperFunction,Conductor*%
%TO.N,GND*%
G36*
X112177491Y-116475246D02*
G01*
X112383878Y-116647329D01*
X112432852Y-116688164D01*
X112437011Y-116696094D01*
X112436245Y-116701438D01*
X112297920Y-117052588D01*
X112291699Y-117059030D01*
X112287034Y-117060000D01*
X112052966Y-117060000D01*
X112044693Y-117056573D01*
X112042080Y-117052588D01*
X111903754Y-116701438D01*
X111903910Y-116692485D01*
X111907145Y-116688165D01*
X112162508Y-116475246D01*
X112171056Y-116472581D01*
X112177491Y-116475246D01*
G37*
%TD.AperFunction*%
%TD*%
%TA.AperFunction,Conductor*%
%TO.N,GND*%
G36*
X106683558Y-109627124D02*
G01*
X106689559Y-109633288D01*
X106799106Y-109895624D01*
X106799132Y-109904578D01*
X106799105Y-109904644D01*
X106689198Y-110167586D01*
X106682846Y-110173898D01*
X106675208Y-110174329D01*
X106213460Y-110043260D01*
X106206437Y-110037705D01*
X106205065Y-110030408D01*
X106236887Y-109799699D01*
X106241411Y-109791975D01*
X106244315Y-109790366D01*
X106674607Y-109626859D01*
X106683558Y-109627124D01*
G37*
%TD.AperFunction*%
%TD*%
%TA.AperFunction,Conductor*%
%TO.N,3.3V*%
G36*
X112314178Y-115164326D02*
G01*
X112374803Y-115203445D01*
X112378822Y-115209257D01*
X112379319Y-115209052D01*
X112379760Y-115210117D01*
X112437888Y-115297112D01*
X112524883Y-115355240D01*
X112601599Y-115370500D01*
X112630250Y-115370499D01*
X112636592Y-115372368D01*
X112706630Y-115417561D01*
X112711723Y-115424926D01*
X112711109Y-115431836D01*
X112602563Y-115696184D01*
X112596251Y-115702536D01*
X112596184Y-115702563D01*
X112333722Y-115810334D01*
X112324767Y-115810307D01*
X112318455Y-115803955D01*
X112318429Y-115803892D01*
X112132365Y-115343161D01*
X112132445Y-115334207D01*
X112134938Y-115330510D01*
X112299564Y-115165884D01*
X112307836Y-115162458D01*
X112314178Y-115164326D01*
G37*
%TD.AperFunction*%
%TD*%
%TA.AperFunction,Conductor*%
%TO.N,3.3V*%
G36*
X109585223Y-112942754D02*
G01*
X109592393Y-112948118D01*
X109594033Y-112954091D01*
X109594033Y-113186930D01*
X109590606Y-113195203D01*
X109586490Y-113197867D01*
X109125391Y-113373139D01*
X109116440Y-113372875D01*
X109110438Y-113366713D01*
X109000883Y-113104509D01*
X109000857Y-113095556D01*
X109000862Y-113095542D01*
X109110910Y-112832156D01*
X109117262Y-112825845D01*
X109124593Y-112825331D01*
X109585223Y-112942754D01*
G37*
%TD.AperFunction*%
%TD*%
%TA.AperFunction,Conductor*%
%TO.N,3.3V*%
G36*
X105833239Y-100832173D02*
G01*
X106319013Y-101314087D01*
X106322473Y-101322346D01*
X106321258Y-101327584D01*
X106078222Y-101818491D01*
X106071481Y-101824385D01*
X106067737Y-101825000D01*
X105582263Y-101825000D01*
X105573990Y-101821573D01*
X105571778Y-101818491D01*
X105328741Y-101327584D01*
X105328141Y-101318649D01*
X105330983Y-101314091D01*
X105816760Y-100832173D01*
X105825047Y-100828780D01*
X105833239Y-100832173D01*
G37*
%TD.AperFunction*%
%TD*%
%TA.AperFunction,Conductor*%
%TO.N,3.3V*%
G36*
X106076010Y-101428427D02*
G01*
X106078222Y-101431509D01*
X106321258Y-101922414D01*
X106321858Y-101931349D01*
X106319013Y-101935911D01*
X105833240Y-102417825D01*
X105824953Y-102421219D01*
X105816760Y-102417825D01*
X105596502Y-102199317D01*
X105330985Y-101935910D01*
X105327526Y-101927652D01*
X105328740Y-101922417D01*
X105571778Y-101431509D01*
X105578519Y-101425615D01*
X105582263Y-101425000D01*
X106067737Y-101425000D01*
X106076010Y-101428427D01*
G37*
%TD.AperFunction*%
%TD*%
%TA.AperFunction,Conductor*%
%TO.N,3.3V*%
G36*
X117884266Y-110826608D02*
G01*
X117889089Y-110832157D01*
X117999115Y-111095489D01*
X117999142Y-111104444D01*
X117999115Y-111104511D01*
X117889561Y-111366713D01*
X117883209Y-111373025D01*
X117874608Y-111373139D01*
X117413510Y-111197867D01*
X117406994Y-111191724D01*
X117405967Y-111186930D01*
X117405967Y-110954091D01*
X117409394Y-110945818D01*
X117414776Y-110942754D01*
X117875405Y-110825331D01*
X117884266Y-110826608D01*
G37*
%TD.AperFunction*%
%TD*%
%TA.AperFunction,Conductor*%
%TO.N,3.3V*%
G36*
X104279820Y-102926787D02*
G01*
X104832222Y-103131649D01*
X104836427Y-103134346D01*
X105109865Y-103407784D01*
X105113292Y-103416057D01*
X105110540Y-103423595D01*
X104279908Y-104409507D01*
X104271956Y-104413626D01*
X104267685Y-104413201D01*
X102452485Y-103883927D01*
X102445502Y-103878322D01*
X102444528Y-103869420D01*
X102450133Y-103862437D01*
X102450374Y-103862309D01*
X104270417Y-102927353D01*
X104279341Y-102926622D01*
X104279820Y-102926787D01*
G37*
%TD.AperFunction*%
%TD*%
%TA.AperFunction,Conductor*%
%TO.N,3.3V*%
G36*
X105566775Y-112088774D02*
G01*
X105731380Y-112253379D01*
X105734807Y-112261652D01*
X105733533Y-112266961D01*
X105514326Y-112697482D01*
X105507519Y-112703299D01*
X105500803Y-112703456D01*
X105204834Y-112622227D01*
X105197764Y-112616734D01*
X105197109Y-112615389D01*
X105088019Y-112349737D01*
X105088046Y-112340783D01*
X105093281Y-112334998D01*
X105552944Y-112086751D01*
X105561850Y-112085836D01*
X105566775Y-112088774D01*
G37*
%TD.AperFunction*%
%TD*%
%TA.AperFunction,Conductor*%
%TO.N,3.3V*%
G36*
X103456671Y-97272990D02*
G01*
X103716513Y-97533354D01*
X103866007Y-97683147D01*
X103869426Y-97691424D01*
X103865999Y-97699685D01*
X103594488Y-97971196D01*
X103587094Y-97974590D01*
X103258388Y-97999367D01*
X103249881Y-97996572D01*
X103246729Y-97992248D01*
X103239141Y-97974264D01*
X103053116Y-97533354D01*
X103053058Y-97524400D01*
X103057562Y-97518969D01*
X103442059Y-97271418D01*
X103450869Y-97269821D01*
X103456671Y-97272990D01*
G37*
%TD.AperFunction*%
%TD*%
%TA.AperFunction,Conductor*%
%TO.N,3.3V*%
G36*
X110186513Y-107899955D02*
G01*
X110194775Y-107903409D01*
X110198174Y-107911694D01*
X110198051Y-107913346D01*
X110116462Y-108472089D01*
X110111876Y-108479780D01*
X110104885Y-108482098D01*
X109872114Y-108482098D01*
X109863841Y-108478671D01*
X109861726Y-108475781D01*
X109628682Y-108026085D01*
X109627918Y-108017163D01*
X109633687Y-108010314D01*
X109634541Y-108009914D01*
X109897822Y-107899909D01*
X109902362Y-107899007D01*
X110186513Y-107899955D01*
G37*
%TD.AperFunction*%
%TD*%
%TA.AperFunction,Conductor*%
%TO.N,3.3V*%
G36*
X106467536Y-107610782D02*
G01*
X106473847Y-107617133D01*
X106474263Y-107624829D01*
X106339944Y-108089066D01*
X106334353Y-108096061D01*
X106328705Y-108097514D01*
X106095870Y-108097514D01*
X106087597Y-108094087D01*
X106084797Y-108089591D01*
X105926368Y-107625160D01*
X105926940Y-107616224D01*
X105932929Y-107610587D01*
X106195490Y-107500883D01*
X106204444Y-107500857D01*
X106467536Y-107610782D01*
G37*
%TD.AperFunction*%
%TD*%
%TA.AperFunction,Conductor*%
%TO.N,3.3V*%
G36*
X105288887Y-111699962D02*
G01*
X105297147Y-111703416D01*
X105300533Y-111711100D01*
X105324411Y-112207976D01*
X105321385Y-112216404D01*
X105313286Y-112220225D01*
X105312724Y-112220238D01*
X105080089Y-112220238D01*
X105071816Y-112216811D01*
X105071530Y-112216515D01*
X105063572Y-112207976D01*
X104795551Y-111920376D01*
X104792417Y-111911987D01*
X104795816Y-111904145D01*
X104996555Y-111702461D01*
X105004817Y-111699016D01*
X105288887Y-111699962D01*
G37*
%TD.AperFunction*%
%TD*%
%TA.AperFunction,Conductor*%
%TO.N,3.3V*%
G36*
X105325772Y-112063427D02*
G01*
X105328131Y-112066817D01*
X105476180Y-112389158D01*
X105476519Y-112398106D01*
X105472847Y-112403185D01*
X105207299Y-112615173D01*
X105198696Y-112617656D01*
X105192701Y-112615173D01*
X105125028Y-112561150D01*
X104927151Y-112403184D01*
X104922824Y-112395345D01*
X104923818Y-112389161D01*
X105071869Y-112066817D01*
X105078436Y-112060729D01*
X105082501Y-112060000D01*
X105317499Y-112060000D01*
X105325772Y-112063427D01*
G37*
%TD.AperFunction*%
%TD*%
%TA.AperFunction,Conductor*%
%TO.N,3.3V*%
G36*
X110601949Y-115093423D02*
G01*
X110766575Y-115258049D01*
X110770002Y-115266322D01*
X110768672Y-115271740D01*
X110542105Y-115705346D01*
X110535236Y-115711092D01*
X110527291Y-115710751D01*
X110263814Y-115602563D01*
X110257462Y-115596251D01*
X110257435Y-115596184D01*
X110149247Y-115332707D01*
X110149274Y-115323752D01*
X110154650Y-115317894D01*
X110588261Y-115091325D01*
X110597177Y-115090532D01*
X110601949Y-115093423D01*
G37*
%TD.AperFunction*%
%TD*%
%TA.AperFunction,Conductor*%
%TO.N,3.3V*%
G36*
X103331529Y-95478743D02*
G01*
X103892951Y-95721946D01*
X103899180Y-95728379D01*
X103900000Y-95732682D01*
X103900000Y-96117317D01*
X103896573Y-96125590D01*
X103892951Y-96128053D01*
X103331531Y-96371255D01*
X103322577Y-96371399D01*
X103317384Y-96367354D01*
X103003919Y-95931835D01*
X103001867Y-95923118D01*
X103003919Y-95918165D01*
X103317384Y-95482644D01*
X103324998Y-95477932D01*
X103331529Y-95478743D01*
G37*
%TD.AperFunction*%
%TD*%
%TA.AperFunction,Conductor*%
%TO.N,3.3V*%
G36*
X104275318Y-95568240D02*
G01*
X104278447Y-95570664D01*
X104618758Y-95942096D01*
X104621820Y-95950511D01*
X104618758Y-95957904D01*
X104278929Y-96328809D01*
X104270813Y-96332594D01*
X104265950Y-96331765D01*
X103757348Y-96127944D01*
X103750943Y-96121686D01*
X103750000Y-96117084D01*
X103750000Y-95733661D01*
X103753427Y-95725388D01*
X103758282Y-95722471D01*
X104266405Y-95567378D01*
X104275318Y-95568240D01*
G37*
%TD.AperFunction*%
%TD*%
%TA.AperFunction,Conductor*%
%TO.N,3.3V*%
G36*
X105826016Y-102427713D02*
G01*
X105828775Y-102431736D01*
X106028078Y-102915226D01*
X106028063Y-102924181D01*
X106022791Y-102929996D01*
X105124673Y-103411718D01*
X105115763Y-103412608D01*
X105110870Y-103409680D01*
X104839553Y-103138363D01*
X104836126Y-103130090D01*
X104836907Y-103125888D01*
X105097193Y-102450179D01*
X105103363Y-102443694D01*
X105107804Y-102442692D01*
X105817658Y-102424499D01*
X105826016Y-102427713D01*
G37*
%TD.AperFunction*%
%TD*%
%TA.AperFunction,Conductor*%
%TO.N,3.3V*%
G36*
X103007187Y-95929597D02*
G01*
X103255875Y-96123265D01*
X103425959Y-96255720D01*
X103430381Y-96263507D01*
X103429650Y-96269253D01*
X103202925Y-96842602D01*
X103196696Y-96849036D01*
X103192045Y-96850000D01*
X102807955Y-96850000D01*
X102799682Y-96846573D01*
X102797075Y-96842602D01*
X102570349Y-96269253D01*
X102570493Y-96260300D01*
X102574039Y-96255721D01*
X102992811Y-95929597D01*
X103001444Y-95927218D01*
X103007187Y-95929597D01*
G37*
%TD.AperFunction*%
%TD*%
%TA.AperFunction,Conductor*%
%TO.N,3.3V*%
G36*
X103200677Y-96653427D02*
G01*
X103203091Y-96656938D01*
X103426759Y-97158943D01*
X103426996Y-97167895D01*
X103424111Y-97172206D01*
X103057912Y-97518516D01*
X103049547Y-97521710D01*
X103041969Y-97518642D01*
X102670399Y-97178204D01*
X102666615Y-97170090D01*
X102666973Y-97166668D01*
X102797739Y-96658783D01*
X102803120Y-96651625D01*
X102809069Y-96650000D01*
X103192404Y-96650000D01*
X103200677Y-96653427D01*
G37*
%TD.AperFunction*%
%TD*%
%TA.AperFunction,Conductor*%
%TO.N,3.3V*%
G36*
X109585223Y-111442754D02*
G01*
X109592393Y-111448118D01*
X109594033Y-111454091D01*
X109594033Y-111686930D01*
X109590606Y-111695203D01*
X109586490Y-111697867D01*
X109125391Y-111873139D01*
X109116440Y-111872875D01*
X109110438Y-111866713D01*
X109000883Y-111604509D01*
X109000857Y-111595556D01*
X109000862Y-111595542D01*
X109110910Y-111332156D01*
X109117262Y-111325845D01*
X109124593Y-111325331D01*
X109585223Y-111442754D01*
G37*
%TD.AperFunction*%
%TD*%
%TA.AperFunction,Conductor*%
%TO.N,3.3V*%
G36*
X112877118Y-115588917D02*
G01*
X112882438Y-115593369D01*
X113135672Y-115985819D01*
X113137278Y-115994629D01*
X113134114Y-116000436D01*
X112969492Y-116165058D01*
X112961219Y-116168485D01*
X112956838Y-116167634D01*
X112496107Y-115981570D01*
X112489719Y-115975294D01*
X112489639Y-115966340D01*
X112489665Y-115966277D01*
X112597436Y-115703815D01*
X112603746Y-115697464D01*
X112868165Y-115588890D01*
X112877118Y-115588917D01*
G37*
%TD.AperFunction*%
%TD*%
%TA.AperFunction,Conductor*%
%TO.N,3.3V*%
G36*
X105043500Y-99856782D02*
G01*
X105611010Y-100130125D01*
X106005938Y-100320343D01*
X106011905Y-100327020D01*
X106011801Y-100335033D01*
X105828476Y-100818403D01*
X105822338Y-100824923D01*
X105817898Y-100825948D01*
X105107566Y-100847917D01*
X105099191Y-100844748D01*
X105096685Y-100841346D01*
X105088687Y-100824923D01*
X104756831Y-100143519D01*
X104756291Y-100134582D01*
X104759076Y-100130127D01*
X105030153Y-99859050D01*
X105038425Y-99855624D01*
X105043500Y-99856782D01*
G37*
%TD.AperFunction*%
%TD*%
%TA.AperFunction,Conductor*%
%TO.N,D+*%
G36*
X103113300Y-110201100D02*
G01*
X103252000Y-110247333D01*
X103258765Y-110253201D01*
X103260000Y-110258433D01*
X103260000Y-110441566D01*
X103256573Y-110449839D01*
X103252000Y-110452666D01*
X103113300Y-110498900D01*
X103109600Y-110499500D01*
X103108776Y-110499500D01*
X103106409Y-110499258D01*
X102827179Y-110441566D01*
X102439455Y-110361457D01*
X102432047Y-110356428D01*
X102430365Y-110347633D01*
X102435395Y-110340224D01*
X102439455Y-110338542D01*
X103106409Y-110200742D01*
X103108776Y-110200500D01*
X103109600Y-110200500D01*
X103113300Y-110201100D01*
G37*
%TD.AperFunction*%
%TD*%
%TA.AperFunction,Conductor*%
%TO.N,D+*%
G36*
X101663591Y-111200742D02*
G01*
X102330543Y-111338542D01*
X102337952Y-111343572D01*
X102339634Y-111352367D01*
X102334604Y-111359776D01*
X102330543Y-111361458D01*
X101663591Y-111499258D01*
X101661224Y-111499500D01*
X101660400Y-111499500D01*
X101656700Y-111498900D01*
X101518000Y-111452666D01*
X101511235Y-111446798D01*
X101510000Y-111441566D01*
X101510000Y-111258433D01*
X101513427Y-111250160D01*
X101517998Y-111247333D01*
X101656700Y-111201100D01*
X101660400Y-111200500D01*
X101661224Y-111200500D01*
X101663591Y-111200742D01*
G37*
%TD.AperFunction*%
%TD*%
%TA.AperFunction,Conductor*%
%TO.N,D+*%
G36*
X101663591Y-110200742D02*
G01*
X102330543Y-110338542D01*
X102337952Y-110343572D01*
X102339634Y-110352367D01*
X102334604Y-110359776D01*
X102330543Y-110361458D01*
X101663591Y-110499258D01*
X101661224Y-110499500D01*
X101660400Y-110499500D01*
X101656700Y-110498900D01*
X101518000Y-110452666D01*
X101511235Y-110446798D01*
X101510000Y-110441566D01*
X101510000Y-110258433D01*
X101513427Y-110250160D01*
X101517998Y-110247333D01*
X101656700Y-110201100D01*
X101660400Y-110200500D01*
X101661224Y-110200500D01*
X101663591Y-110200742D01*
G37*
%TD.AperFunction*%
%TD*%
%TA.AperFunction,Conductor*%
%TO.N,D+*%
G36*
X104652555Y-110075849D02*
G01*
X104967413Y-110180523D01*
X104992602Y-110188897D01*
X104999372Y-110194759D01*
X105000014Y-110203691D01*
X104994152Y-110210461D01*
X104992602Y-110211103D01*
X104652559Y-110324149D01*
X104647322Y-110324643D01*
X104643617Y-110324149D01*
X104634845Y-110322979D01*
X104472654Y-110301353D01*
X104464906Y-110296863D01*
X104462500Y-110289756D01*
X104462500Y-110110243D01*
X104465927Y-110101970D01*
X104472653Y-110098646D01*
X104647326Y-110075356D01*
X104652555Y-110075849D01*
G37*
%TD.AperFunction*%
%TD*%
%TA.AperFunction,Conductor*%
%TO.N,D-*%
G36*
X103739697Y-110533651D02*
G01*
X103739937Y-110534186D01*
X103849115Y-110795489D01*
X103849142Y-110804444D01*
X103849115Y-110804511D01*
X103739136Y-111067729D01*
X103732784Y-111074041D01*
X103725316Y-111074520D01*
X103268622Y-110952321D01*
X103261516Y-110946873D01*
X103259946Y-110941019D01*
X103259946Y-110757375D01*
X103263373Y-110749102D01*
X103266598Y-110746820D01*
X103492598Y-110638794D01*
X103495472Y-110637857D01*
X103510433Y-110635061D01*
X103539772Y-110616894D01*
X103541193Y-110616146D01*
X103572765Y-110602206D01*
X103574662Y-110600308D01*
X103577878Y-110598031D01*
X103724096Y-110528140D01*
X103733038Y-110527665D01*
X103739697Y-110533651D01*
G37*
%TD.AperFunction*%
%TD*%
%TA.AperFunction,Conductor*%
%TO.N,D-*%
G36*
X103108776Y-110705000D02*
G01*
X103108792Y-110705000D01*
X103109600Y-110705000D01*
X103119630Y-110704191D01*
X103124256Y-110704752D01*
X103252000Y-110747333D01*
X103258765Y-110753201D01*
X103260000Y-110758433D01*
X103260000Y-110941566D01*
X103256573Y-110949839D01*
X103252000Y-110952666D01*
X103113300Y-110998900D01*
X103109600Y-110999500D01*
X103108776Y-110999500D01*
X103106409Y-110999258D01*
X102439456Y-110861457D01*
X102432047Y-110856427D01*
X102430365Y-110847632D01*
X102435395Y-110840223D01*
X102439450Y-110838543D01*
X103088884Y-110704362D01*
X103091840Y-110704136D01*
X103108776Y-110705000D01*
G37*
%TD.AperFunction*%
%TD*%
%TA.AperFunction,Conductor*%
%TO.N,D-*%
G36*
X103863635Y-110502350D02*
G01*
X104420398Y-110598326D01*
X104427967Y-110603107D01*
X104430109Y-110609855D01*
X104430109Y-110793350D01*
X104426682Y-110801623D01*
X104424396Y-110803402D01*
X103976389Y-111070262D01*
X103967528Y-111071552D01*
X103960350Y-111066197D01*
X103959606Y-111064721D01*
X103850421Y-110803402D01*
X103849910Y-110802178D01*
X103849007Y-110797636D01*
X103849953Y-110513839D01*
X103853407Y-110505580D01*
X103861692Y-110502181D01*
X103863635Y-110502350D01*
G37*
%TD.AperFunction*%
%TD*%
%TA.AperFunction,Conductor*%
%TO.N,D-*%
G36*
X104652555Y-110575849D02*
G01*
X104967413Y-110680523D01*
X104992602Y-110688897D01*
X104999372Y-110694759D01*
X105000014Y-110703691D01*
X104994152Y-110710461D01*
X104992602Y-110711103D01*
X104652559Y-110824149D01*
X104647322Y-110824643D01*
X104643617Y-110824149D01*
X104634845Y-110822979D01*
X104472654Y-110801353D01*
X104464906Y-110796863D01*
X104462500Y-110789756D01*
X104462500Y-110610243D01*
X104465927Y-110601970D01*
X104472653Y-110598646D01*
X104647326Y-110575356D01*
X104652555Y-110575849D01*
G37*
%TD.AperFunction*%
%TD*%
%TA.AperFunction,Conductor*%
%TO.N,D-*%
G36*
X103113300Y-109701100D02*
G01*
X103252000Y-109747333D01*
X103258765Y-109753201D01*
X103260000Y-109758433D01*
X103260000Y-109941566D01*
X103256573Y-109949839D01*
X103252000Y-109952666D01*
X103124262Y-109995245D01*
X103119623Y-109995807D01*
X103109602Y-109995000D01*
X103109600Y-109995000D01*
X103108776Y-109995000D01*
X103107832Y-109995048D01*
X103091841Y-109995862D01*
X103088880Y-109995635D01*
X102439456Y-109861457D01*
X102432047Y-109856427D01*
X102430365Y-109847632D01*
X102435395Y-109840223D01*
X102439450Y-109838543D01*
X103106409Y-109700742D01*
X103108776Y-109700500D01*
X103109600Y-109700500D01*
X103113300Y-109701100D01*
G37*
%TD.AperFunction*%
%TD*%
%TA.AperFunction,Conductor*%
%TO.N,D-*%
G36*
X103395587Y-109396222D02*
G01*
X103396523Y-109397058D01*
X103578550Y-109578231D01*
X103596959Y-109596553D01*
X103600405Y-109604818D01*
X103600405Y-109604885D01*
X103599469Y-109885759D01*
X103596015Y-109894021D01*
X103588309Y-109897408D01*
X103543325Y-109899488D01*
X103542785Y-109899500D01*
X103522153Y-109899500D01*
X103516084Y-109900634D01*
X103514477Y-109900820D01*
X103480010Y-109902414D01*
X103480003Y-109902416D01*
X103461752Y-109910474D01*
X103459177Y-109911272D01*
X103439567Y-109914938D01*
X103438561Y-109915329D01*
X103438502Y-109915178D01*
X103435007Y-109916361D01*
X103109833Y-109948720D01*
X103101261Y-109946130D01*
X103097032Y-109938237D01*
X103096974Y-109937078D01*
X103096974Y-109754110D01*
X103099544Y-109746793D01*
X103135304Y-109702187D01*
X103142145Y-109698033D01*
X103188231Y-109688867D01*
X103254552Y-109644552D01*
X103298867Y-109578231D01*
X103310500Y-109519748D01*
X103310500Y-109487764D01*
X103313070Y-109480447D01*
X103379141Y-109398032D01*
X103386989Y-109393721D01*
X103395587Y-109396222D01*
G37*
%TD.AperFunction*%
%TD*%
%TA.AperFunction,Conductor*%
%TO.N,RX*%
G36*
X109219580Y-109496957D02*
G01*
X109220299Y-109497751D01*
X109399193Y-109714306D01*
X109401648Y-109719475D01*
X109404760Y-109735116D01*
X109404760Y-109735117D01*
X109462887Y-109822111D01*
X109462888Y-109822112D01*
X109518071Y-109858984D01*
X109520591Y-109861260D01*
X109572218Y-109923754D01*
X109574845Y-109932315D01*
X109571471Y-109939479D01*
X109406924Y-110104026D01*
X109398651Y-110107453D01*
X109395766Y-110107092D01*
X109262862Y-110073270D01*
X109259422Y-110071774D01*
X109210053Y-110040047D01*
X109210054Y-110040047D01*
X109071962Y-109999500D01*
X109071961Y-109999500D01*
X108974443Y-109999500D01*
X108971559Y-109999139D01*
X108898249Y-109980483D01*
X108891076Y-109975121D01*
X108889795Y-109966259D01*
X108890308Y-109964708D01*
X108998394Y-109701477D01*
X109000967Y-109697626D01*
X109203035Y-109496900D01*
X109211318Y-109493503D01*
X109219580Y-109496957D01*
G37*
%TD.AperFunction*%
%TD*%
%TA.AperFunction,Conductor*%
%TO.N,TX*%
G36*
X109124639Y-110229645D02*
G01*
X109126454Y-110230598D01*
X109148320Y-110244651D01*
X109177468Y-110260225D01*
X109180908Y-110261721D01*
X109212181Y-110272422D01*
X109228069Y-110276465D01*
X109230164Y-110277217D01*
X109327888Y-110323286D01*
X109328718Y-110323721D01*
X109361639Y-110342728D01*
X109364755Y-110344527D01*
X109365616Y-110345075D01*
X109400576Y-110369554D01*
X109413140Y-110372920D01*
X109415952Y-110374084D01*
X109427215Y-110380588D01*
X109427217Y-110380589D01*
X109461176Y-110386576D01*
X109464135Y-110387515D01*
X109579365Y-110441836D01*
X109585387Y-110448463D01*
X109586076Y-110452419D01*
X109586076Y-110685209D01*
X109582649Y-110693482D01*
X109576439Y-110696726D01*
X109013716Y-110797542D01*
X109004968Y-110795627D01*
X109000136Y-110788088D01*
X108999953Y-110786070D01*
X108999007Y-110502362D01*
X108999909Y-110497822D01*
X109109335Y-110235926D01*
X109115684Y-110229618D01*
X109124639Y-110229645D01*
G37*
%TD.AperFunction*%
%TD*%
%TA.AperFunction,Conductor*%
%TO.N,Net-(U4-EN)*%
G36*
X97780278Y-98426993D02*
G01*
X97785442Y-98432157D01*
X98061152Y-98977596D01*
X98061826Y-98986525D01*
X98061510Y-98987374D01*
X97903000Y-99367800D01*
X97896655Y-99374119D01*
X97892200Y-99375000D01*
X97657800Y-99375000D01*
X97649527Y-99371573D01*
X97647000Y-99367800D01*
X97488489Y-98987374D01*
X97488470Y-98978419D01*
X97488838Y-98977614D01*
X97764558Y-98432156D01*
X97771349Y-98426319D01*
X97780278Y-98426993D01*
G37*
%TD.AperFunction*%
%TD*%
%TA.AperFunction,Conductor*%
%TO.N,Net-(U4-EN)*%
G36*
X97899995Y-99353427D02*
G01*
X97902755Y-99357806D01*
X98082200Y-99866168D01*
X98081722Y-99875110D01*
X98079071Y-99878689D01*
X97708329Y-100218368D01*
X97699914Y-100221430D01*
X97692081Y-100217943D01*
X97337232Y-99856940D01*
X97333876Y-99848637D01*
X97335712Y-99842446D01*
X97646550Y-99355406D01*
X97653890Y-99350275D01*
X97656413Y-99350000D01*
X97891722Y-99350000D01*
X97899995Y-99353427D01*
G37*
%TD.AperFunction*%
%TD*%
%TA.AperFunction,Conductor*%
%TO.N,OP*%
G36*
X117984266Y-108826608D02*
G01*
X117989089Y-108832157D01*
X118099115Y-109095489D01*
X118099142Y-109104444D01*
X118099115Y-109104511D01*
X117989561Y-109366713D01*
X117983209Y-109373025D01*
X117974608Y-109373139D01*
X117513510Y-109197867D01*
X117506994Y-109191724D01*
X117505967Y-109186930D01*
X117505967Y-108954091D01*
X117509394Y-108945818D01*
X117514776Y-108942754D01*
X117975405Y-108825331D01*
X117984266Y-108826608D01*
G37*
%TD.AperFunction*%
%TD*%
%TA.AperFunction,Conductor*%
%TO.N,EN*%
G36*
X114455420Y-116233820D02*
G01*
X114743357Y-116371816D01*
X114749336Y-116378482D01*
X114750000Y-116382367D01*
X114750000Y-116617632D01*
X114746573Y-116625905D01*
X114743357Y-116628183D01*
X114455421Y-116766178D01*
X114446479Y-116766663D01*
X114441595Y-116763372D01*
X114215838Y-116507743D01*
X114212931Y-116499275D01*
X114215838Y-116492256D01*
X114441596Y-116236625D01*
X114449639Y-116232694D01*
X114455420Y-116233820D01*
G37*
%TD.AperFunction*%
%TD*%
%TA.AperFunction,Conductor*%
%TO.N,EN*%
G36*
X114903183Y-116227151D02*
G01*
X115018712Y-116371868D01*
X115115173Y-116492701D01*
X115117656Y-116501304D01*
X115115173Y-116507299D01*
X114903185Y-116772847D01*
X114895345Y-116777175D01*
X114889158Y-116776180D01*
X114566817Y-116628131D01*
X114560729Y-116621564D01*
X114560000Y-116617499D01*
X114560000Y-116382500D01*
X114563427Y-116374227D01*
X114566812Y-116371870D01*
X114889160Y-116223818D01*
X114898106Y-116223480D01*
X114903183Y-116227151D01*
G37*
%TD.AperFunction*%
%TD*%
%TA.AperFunction,Conductor*%
%TO.N,EN*%
G36*
X115225698Y-115913427D02*
G01*
X115228100Y-115916912D01*
X115385712Y-116268329D01*
X115385971Y-116277280D01*
X115382530Y-116282103D01*
X115127493Y-116494752D01*
X115118944Y-116497418D01*
X115112507Y-116494752D01*
X114856823Y-116281565D01*
X114852664Y-116273635D01*
X114853236Y-116268822D01*
X114972306Y-115917940D01*
X114978209Y-115911207D01*
X114983385Y-115910000D01*
X115217425Y-115910000D01*
X115225698Y-115913427D01*
G37*
%TD.AperFunction*%
%TD*%
%TA.AperFunction,Conductor*%
%TO.N,EN*%
G36*
X115367318Y-118210691D02*
G01*
X115373629Y-118217042D01*
X115373970Y-118224987D01*
X115227571Y-118691801D01*
X115221825Y-118698670D01*
X115216407Y-118700000D01*
X114983593Y-118700000D01*
X114975320Y-118696573D01*
X114972429Y-118691801D01*
X114826029Y-118224987D01*
X114826823Y-118216068D01*
X114832679Y-118210692D01*
X115095490Y-118100883D01*
X115104444Y-118100857D01*
X115367318Y-118210691D01*
G37*
%TD.AperFunction*%
%TD*%
%TA.AperFunction,Conductor*%
%TO.N,EN*%
G36*
X115226746Y-118003427D02*
G01*
X115228429Y-118005554D01*
X115497680Y-118441676D01*
X115499110Y-118450516D01*
X115495536Y-118456532D01*
X115008729Y-118893170D01*
X115000282Y-118896143D01*
X114992207Y-118892272D01*
X114992190Y-118892253D01*
X114604039Y-118457556D01*
X114601085Y-118449102D01*
X114603803Y-118442242D01*
X114971493Y-118004177D01*
X114979437Y-118000044D01*
X114980455Y-118000000D01*
X115218473Y-118000000D01*
X115226746Y-118003427D01*
G37*
%TD.AperFunction*%
%TD*%
%TA.AperFunction,Conductor*%
%TO.N,EN*%
G36*
X115224680Y-117503427D02*
G01*
X115227571Y-117508199D01*
X115373970Y-117975012D01*
X115373176Y-117983931D01*
X115367317Y-117989309D01*
X115104511Y-118099115D01*
X115095556Y-118099142D01*
X115095489Y-118099115D01*
X114832682Y-117989309D01*
X114826370Y-117982957D01*
X114826029Y-117975013D01*
X114972429Y-117508199D01*
X114978175Y-117501330D01*
X114983593Y-117500000D01*
X115216407Y-117500000D01*
X115224680Y-117503427D01*
G37*
%TD.AperFunction*%
%TD*%
%TA.AperFunction,Conductor*%
%TO.N,EN*%
G36*
X115127491Y-116505246D02*
G01*
X115252771Y-116609704D01*
X115382530Y-116717896D01*
X115386689Y-116725826D01*
X115385712Y-116731670D01*
X115228100Y-117083088D01*
X115221588Y-117089234D01*
X115217425Y-117090000D01*
X114983385Y-117090000D01*
X114975112Y-117086573D01*
X114972306Y-117082060D01*
X114911232Y-116902085D01*
X114853237Y-116731179D01*
X114853823Y-116722244D01*
X114856821Y-116718436D01*
X115112508Y-116505246D01*
X115121056Y-116502581D01*
X115127491Y-116505246D01*
G37*
%TD.AperFunction*%
%TD*%
%TA.AperFunction,Conductor*%
%TO.N,Net-(E1-A)*%
G36*
X111323477Y-118883427D02*
G01*
X111326722Y-118889643D01*
X111398594Y-119292126D01*
X111396675Y-119300873D01*
X111393174Y-119304168D01*
X111128005Y-119466111D01*
X111119158Y-119467499D01*
X111113487Y-119464249D01*
X110955026Y-119300000D01*
X110878470Y-119220648D01*
X110875193Y-119212316D01*
X110876889Y-119206456D01*
X111071583Y-118885630D01*
X111078804Y-118880335D01*
X111081585Y-118880000D01*
X111315204Y-118880000D01*
X111323477Y-118883427D01*
G37*
%TD.AperFunction*%
%TD*%
%TA.AperFunction,Conductor*%
%TO.N,Net-(E1-A)*%
G36*
X111207107Y-118459434D02*
G01*
X111487535Y-118673849D01*
X111492025Y-118681596D01*
X111491036Y-118688078D01*
X111328147Y-119038235D01*
X111321551Y-119044291D01*
X111317539Y-119045000D01*
X111082461Y-119045000D01*
X111074188Y-119041573D01*
X111071853Y-119038235D01*
X111071405Y-119037273D01*
X110908962Y-118688075D01*
X110908580Y-118679131D01*
X110912462Y-118673851D01*
X111192893Y-118459433D01*
X111201547Y-118457131D01*
X111207107Y-118459434D01*
G37*
%TD.AperFunction*%
%TD*%
%TA.AperFunction,Conductor*%
%TO.N,Net-(E1-A)*%
G36*
X111127491Y-119475246D02*
G01*
X111333878Y-119647329D01*
X111382852Y-119688164D01*
X111387011Y-119696094D01*
X111386245Y-119701438D01*
X111247920Y-120052588D01*
X111241699Y-120059030D01*
X111237034Y-120060000D01*
X111002966Y-120060000D01*
X110994693Y-120056573D01*
X110992080Y-120052588D01*
X110853754Y-119701438D01*
X110853910Y-119692485D01*
X110857145Y-119688165D01*
X111112508Y-119475246D01*
X111121056Y-119472581D01*
X111127491Y-119475246D01*
G37*
%TD.AperFunction*%
%TD*%
%TA.AperFunction,Conductor*%
%TO.N,Net-(U3-LNA_IN)*%
G36*
X111217491Y-116475246D02*
G01*
X111423878Y-116647329D01*
X111472852Y-116688164D01*
X111477011Y-116696094D01*
X111476245Y-116701438D01*
X111337920Y-117052588D01*
X111331699Y-117059030D01*
X111327034Y-117060000D01*
X111092966Y-117060000D01*
X111084693Y-117056573D01*
X111082080Y-117052588D01*
X110943754Y-116701438D01*
X110943910Y-116692485D01*
X110947145Y-116688165D01*
X111202508Y-116475246D01*
X111211056Y-116472581D01*
X111217491Y-116475246D01*
G37*
%TD.AperFunction*%
%TD*%
%TA.AperFunction,Conductor*%
%TO.N,Net-(U3-LNA_IN)*%
G36*
X111335648Y-116898427D02*
G01*
X111338079Y-116901976D01*
X111494974Y-117257491D01*
X111495179Y-117266444D01*
X111491206Y-117271637D01*
X111207208Y-117480693D01*
X111198514Y-117482838D01*
X111192993Y-117480431D01*
X110916239Y-117260501D01*
X110911894Y-117252671D01*
X110913009Y-117246198D01*
X111081790Y-116901553D01*
X111088507Y-116895631D01*
X111092298Y-116895000D01*
X111327375Y-116895000D01*
X111335648Y-116898427D01*
G37*
%TD.AperFunction*%
%TD*%
%TA.AperFunction,Conductor*%
%TO.N,Net-(U3-LNA_IN)*%
G36*
X111315698Y-115883427D02*
G01*
X111318100Y-115886912D01*
X111475712Y-116238329D01*
X111475971Y-116247280D01*
X111472530Y-116252103D01*
X111217493Y-116464752D01*
X111208944Y-116467418D01*
X111202507Y-116464752D01*
X110946823Y-116251565D01*
X110942664Y-116243635D01*
X110943236Y-116238822D01*
X111062306Y-115887940D01*
X111068209Y-115881207D01*
X111073385Y-115880000D01*
X111307425Y-115880000D01*
X111315698Y-115883427D01*
G37*
%TD.AperFunction*%
%TD*%
%TA.AperFunction,Conductor*%
%TO.N,Net-(D2-A)*%
G36*
X103340703Y-93881565D02*
G01*
X103880141Y-94097060D01*
X103886552Y-94103310D01*
X103887500Y-94107924D01*
X103887500Y-94492636D01*
X103884073Y-94500909D01*
X103880861Y-94503185D01*
X103369117Y-94748726D01*
X103360176Y-94749215D01*
X103354994Y-94745578D01*
X103017169Y-94331941D01*
X103014590Y-94323366D01*
X103016726Y-94317718D01*
X103326861Y-93885607D01*
X103334467Y-93880886D01*
X103340703Y-93881565D01*
G37*
%TD.AperFunction*%
%TD*%
%TA.AperFunction,Conductor*%
%TO.N,Net-(D2-A)*%
G36*
X104275110Y-93918277D02*
G01*
X104278689Y-93920928D01*
X104618758Y-94292096D01*
X104621820Y-94300511D01*
X104618758Y-94307904D01*
X104278689Y-94679071D01*
X104270573Y-94682856D01*
X104266168Y-94682200D01*
X103757806Y-94502755D01*
X103751145Y-94496770D01*
X103750000Y-94491722D01*
X103750000Y-94108277D01*
X103753427Y-94100004D01*
X103757803Y-94097245D01*
X104266168Y-93917799D01*
X104275110Y-93918277D01*
G37*
%TD.AperFunction*%
%TD*%
M02*
