M48
; DRILL file {KiCad 7.0.10} date Sun Feb  4 10:39:12 2024
; FORMAT={-:-/ absolute / inch / decimal}
; #@! TF.CreationDate,2024-02-04T10:39:12+08:00
; #@! TF.GenerationSoftware,Kicad,Pcbnew,7.0.10
; #@! TF.FileFunction,Plated,1,4,PTH
FMAT,2
INCH
; #@! TA.AperFunction,Plated,PTH,ViaDrill
T1C0.0118
; #@! TA.AperFunction,Plated,PTH,ComponentDrill
T2C0.0197
; #@! TA.AperFunction,Plated,PTH,ComponentDrill
T3C0.0236
; #@! TA.AperFunction,Plated,PTH,ComponentDrill
T4C0.0374
; #@! TA.AperFunction,Plated,PTH,ComponentDrill
T5C0.0394
; #@! TA.AperFunction,Plated,PTH,ComponentDrill
T6C0.1260
%
G90
G05
T1
X3.8346Y-4.0709
X3.8465Y-3.6693
X3.8711Y-3.8278
X3.9921Y-3.6693
X4.0787Y-4.315
X4.0827Y-4.4803
X4.0886Y-4.3622
X4.0962Y-4.2888
X4.1142Y-4.1457
X4.1209Y-4.261
X4.1339Y-4.3976
X4.141Y-4.2367
X4.1417Y-4.5039
X4.1654Y-3.8543
X4.1772Y-4.3268
X4.1811Y-4.2323
X4.2008Y-3.9331
X4.2047Y-4.3268
X4.2234Y-4.4331
X4.2551Y-4.2496
X4.2913Y-4.3189
X4.2913Y-4.3504
X4.2913Y-4.3937
X4.2913Y-4.4528
X4.3228Y-4.5197
X4.3268Y-4.248
X4.3323Y-4.6858
X4.3331Y-4.611
X4.3409Y-4.5512
X4.3819Y-4.378
X4.4161Y-4.6181
X4.4173Y-4.6693
X4.4331Y-4.5551
X4.437Y-4.378
X4.4547Y-3.6303
X4.4921Y-4.378
X4.5079Y-4.0276
X4.5276Y-4.8031
X4.5315Y-4.6496
X4.5433Y-4.0591
X4.5472Y-4.378
X4.5531Y-4.0889
X4.5699Y-4.1181
X4.5709Y-4.622
X4.5778Y-4.0305
X4.6082Y-3.6417
X4.6122Y-3.5738
X4.6457Y-4.374
X4.6496Y-4.2953
X4.6526Y-3.5258
X4.6969Y-3.7579
X4.7047Y-4.0709
X4.7303Y-3.813
X4.7953Y-3.7579
X4.8485Y-3.7283
X4.8918Y-3.6467
T2
X3.8425Y-3.5039
X3.8425Y-4.7244
X3.8702Y-3.4371
X3.8702Y-3.5708
X3.8702Y-4.6576
X3.8702Y-4.7912
X3.937Y-3.4094
X3.937Y-3.5984
X3.937Y-4.6299
X3.937Y-4.8189
X4.0038Y-3.4371
X4.0038Y-3.5708
X4.0038Y-4.6576
X4.0038Y-4.7912
X4.0315Y-3.5039
X4.0315Y-4.7244
X5.063Y-3.5039
X5.063Y-4.7244
X5.0907Y-3.4371
X5.0907Y-3.5708
X5.0907Y-4.6576
X5.0907Y-4.7912
X5.1575Y-3.4094
X5.1575Y-3.5984
X5.1575Y-4.6299
X5.1575Y-4.8189
X5.2243Y-3.4371
X5.2243Y-3.5708
X5.2243Y-4.6576
X5.2243Y-4.7912
X5.252Y-3.5039
X5.252Y-4.7244
T4
X5.0157Y-3.9646
X5.0157Y-4.063
X5.0157Y-4.1614
X5.0157Y-4.2598
T5
X4.2776Y-3.6516
X4.376Y-3.6516
T6
X3.937Y-3.5039
X3.937Y-4.7244
X5.1575Y-3.5039
X5.1575Y-4.7244
T3
G00X3.8421Y-4.1843
M15
G01X3.8185Y-4.1843
M16
G05
G00X3.8421Y-4.5244
M15
G01X3.8185Y-4.5244
M16
G05
G00X4.0165Y-4.1843
M15
G01X3.9732Y-4.1843
M16
G05
G00X4.0165Y-4.5244
M15
G01X3.9732Y-4.5244
M16
G05
M30
